<svg width="192" height="300" viewBox="0 0 192 300" fill="none" xmlns="http://www.w3.org/2000/svg">
<g clip-path="url(#clip0_1512_3363)" filter="url(#filter0_ddddd_1512_3363)">
<g filter="url(#filter1_di_1512_3363)">
<g filter="url(#filter2_di_1512_3363)">
<path fill-rule="evenodd" clip-rule="evenodd" d="M45.2437 44.3842L90.2045 17.874C92.0487 16.8651 94.1173 16.3361 96.22 16.3361C98.3227 16.3361 100.391 16.8651 102.236 17.874L145.584 43.4337C146.081 43.7268 146.516 44.1227 147.017 44.4079C150.74 46.5244 153.027 50.4862 153 54.768L153 54.7867V103.347C153 107.636 150.651 111.607 146.835 113.704C146.781 113.734 146.728 113.765 146.676 113.798C141.039 117.364 133.573 114.964 128.475 110.661C127.904 110.179 127.313 109.717 126.703 109.277C121.646 105.628 115.568 103.665 109.332 103.667H82.6663C76.4266 103.665 70.3452 105.63 65.2869 109.284C64.6805 109.722 64.0926 110.182 63.524 110.661C58.4262 114.964 50.9611 117.364 45.3238 113.798C45.2698 113.764 45.2147 113.731 45.1586 113.701C43.2981 112.684 41.7449 111.186 40.6615 109.364C39.5786 107.542 39.0048 105.463 39 103.343V54.78C39 50.4922 41.3475 46.5273 45.1651 44.429C45.1915 44.4145 45.2177 44.3995 45.2437 44.3842ZM55.9447 127.616L87.1162 147.335C87.1685 147.368 87.2219 147.4 87.2762 147.43C89.9496 148.897 92.9501 149.667 96 149.667C99.0499 149.667 102.05 148.897 104.724 147.43C104.778 147.4 104.831 147.368 104.884 147.335L149.809 118.916C155.477 115.761 159 109.812 159 103.347V54.795C159.033 49.016 156.268 43.6233 151.656 40.2711C151.181 39.926 150.749 39.5138 150.244 39.2158L105.244 12.6824C105.219 12.6678 105.194 12.6535 105.168 12.6395C102.428 11.1285 99.3495 10.3361 96.22 10.3361C93.0905 10.3361 90.012 11.1285 87.2715 12.6395C87.2462 12.6535 87.2211 12.6678 87.1963 12.6824L42.2335 39.1938C36.5419 42.3415 33 48.2968 33 54.78L33 103.353C33.0064 106.548 33.8712 109.683 35.504 112.429C37.1196 115.147 39.4285 117.386 42.1934 118.918L55.5332 127.356C55.6617 127.453 55.7991 127.54 55.9447 127.616ZM71.5766 130.405C65.5163 126.572 62.9869 118.347 68.8001 114.148C72.8355 111.233 77.6873 109.665 82.6654 109.667H109.334C114.309 109.665 119.158 111.231 123.192 114.142C129.011 118.342 126.48 126.574 120.415 130.411L101.759 142.212C99.99 143.167 98.011 143.667 96 143.667C93.989 143.667 92.01 143.167 90.241 142.212L71.5766 130.405ZM79.7365 50.4032C84.0499 46.0899 89.9 43.6667 96 43.6667C102.1 43.6667 107.95 46.0899 112.263 50.4032C116.577 54.7165 119 60.5667 119 66.6667C119 72.7666 116.577 78.6168 112.263 82.9301C107.95 87.2434 102.1 89.6667 96 89.6667C89.9 89.6667 84.0499 87.2434 79.7365 82.9301C75.4232 78.6168 73 72.7666 73 66.6667C73 60.5667 75.4232 54.7165 79.7365 50.4032ZM96 49.6667C91.4913 49.6667 87.1673 51.4577 83.9792 54.6458C80.7911 57.834 79 62.158 79 66.6667C79 71.1753 80.7911 75.4994 83.9792 78.6875C87.1673 81.8756 91.4913 83.6667 96 83.6667C100.509 83.6667 104.833 81.8756 108.021 78.6875C111.209 75.4994 113 71.1753 113 66.6667C113 62.158 111.209 57.834 108.021 54.6458C104.833 51.4577 100.509 49.6667 96 49.6667Z" fill="#B2AFFE"/>
</g>
</g>
</g>
<defs>
<filter id="filter0_ddddd_1512_3363" x="-17" y="-5" width="226" height="315" filterUnits="userSpaceOnUse" color-interpolation-filters="sRGB">
<feFlood flood-opacity="0" result="BackgroundImageFix"/>
<feColorMatrix in="SourceAlpha" type="matrix" values="0 0 0 0 0 0 0 0 0 0 0 0 0 0 0 0 0 0 127 0" result="hardAlpha"/>
<feOffset dy="5"/>
<feGaussianBlur stdDeviation="5"/>
<feColorMatrix type="matrix" values="0 0 0 0 0.698039 0 0 0 0 0.686275 0 0 0 0 0.996078 0 0 0 0.59 0"/>
<feBlend mode="normal" in2="BackgroundImageFix" result="effect1_dropShadow_1512_3363"/>
<feColorMatrix in="SourceAlpha" type="matrix" values="0 0 0 0 0 0 0 0 0 0 0 0 0 0 0 0 0 0 127 0" result="hardAlpha"/>
<feOffset dy="19"/>
<feGaussianBlur stdDeviation="9.5"/>
<feColorMatrix type="matrix" values="0 0 0 0 0.698039 0 0 0 0 0.686275 0 0 0 0 0.996078 0 0 0 0.51 0"/>
<feBlend mode="normal" in2="effect1_dropShadow_1512_3363" result="effect2_dropShadow_1512_3363"/>
<feColorMatrix in="SourceAlpha" type="matrix" values="0 0 0 0 0 0 0 0 0 0 0 0 0 0 0 0 0 0 127 0" result="hardAlpha"/>
<feOffset dy="42"/>
<feGaussianBlur stdDeviation="12.5"/>
<feColorMatrix type="matrix" values="0 0 0 0 0.698039 0 0 0 0 0.686275 0 0 0 0 0.996078 0 0 0 0.3 0"/>
<feBlend mode="normal" in2="effect2_dropShadow_1512_3363" result="effect3_dropShadow_1512_3363"/>
<feColorMatrix in="SourceAlpha" type="matrix" values="0 0 0 0 0 0 0 0 0 0 0 0 0 0 0 0 0 0 127 0" result="hardAlpha"/>
<feOffset dy="75"/>
<feGaussianBlur stdDeviation="15"/>
<feColorMatrix type="matrix" values="0 0 0 0 0.698039 0 0 0 0 0.686275 0 0 0 0 0.996078 0 0 0 0.09 0"/>
<feBlend mode="normal" in2="effect3_dropShadow_1512_3363" result="effect4_dropShadow_1512_3363"/>
<feColorMatrix in="SourceAlpha" type="matrix" values="0 0 0 0 0 0 0 0 0 0 0 0 0 0 0 0 0 0 127 0" result="hardAlpha"/>
<feOffset dy="117"/>
<feGaussianBlur stdDeviation="16.5"/>
<feColorMatrix type="matrix" values="0 0 0 0 0.698039 0 0 0 0 0.686275 0 0 0 0 0.996078 0 0 0 0.01 0"/>
<feBlend mode="normal" in2="effect4_dropShadow_1512_3363" result="effect5_dropShadow_1512_3363"/>
<feBlend mode="normal" in="SourceGraphic" in2="effect5_dropShadow_1512_3363" result="shape"/>
</filter>
<filter id="filter1_di_1512_3363" x="29" y="7.33606" width="134" height="147.331" filterUnits="userSpaceOnUse" color-interpolation-filters="sRGB">
<feFlood flood-opacity="0" result="BackgroundImageFix"/>
<feColorMatrix in="SourceAlpha" type="matrix" values="0 0 0 0 0 0 0 0 0 0 0 0 0 0 0 0 0 0 127 0" result="hardAlpha"/>
<feOffset dy="1"/>
<feGaussianBlur stdDeviation="2"/>
<feComposite in2="hardAlpha" operator="out"/>
<feColorMatrix type="matrix" values="0 0 0 0 0.698039 0 0 0 0 0.686275 0 0 0 0 0.996078 0 0 0 0.6 0"/>
<feBlend mode="normal" in2="BackgroundImageFix" result="effect1_dropShadow_1512_3363"/>
<feBlend mode="normal" in="SourceGraphic" in2="effect1_dropShadow_1512_3363" result="shape"/>
<feColorMatrix in="SourceAlpha" type="matrix" values="0 0 0 0 0 0 0 0 0 0 0 0 0 0 0 0 0 0 127 0" result="hardAlpha"/>
<feOffset dy="1"/>
<feGaussianBlur stdDeviation="0.5"/>
<feComposite in2="hardAlpha" operator="arithmetic" k2="-1" k3="1"/>
<feColorMatrix type="matrix" values="0 0 0 0 0.955704 0 0 0 0 0.953955 0 0 0 0 1 0 0 0 1 0"/>
<feBlend mode="normal" in2="shape" result="effect2_innerShadow_1512_3363"/>
</filter>
<filter id="filter2_di_1512_3363" x="17" y="2.33606" width="158" height="171.331" filterUnits="userSpaceOnUse" color-interpolation-filters="sRGB">
<feFlood flood-opacity="0" result="BackgroundImageFix"/>
<feColorMatrix in="SourceAlpha" type="matrix" values="0 0 0 0 0 0 0 0 0 0 0 0 0 0 0 0 0 0 127 0" result="hardAlpha"/>
<feOffset dy="8"/>
<feGaussianBlur stdDeviation="8"/>
<feComposite in2="hardAlpha" operator="out"/>
<feColorMatrix type="matrix" values="0 0 0 0 0.145098 0 0 0 0 0.137255 0 0 0 0 0.462745 0 0 0 0.32 0"/>
<feBlend mode="normal" in2="BackgroundImageFix" result="effect1_dropShadow_1512_3363"/>
<feBlend mode="normal" in="SourceGraphic" in2="effect1_dropShadow_1512_3363" result="shape"/>
<feColorMatrix in="SourceAlpha" type="matrix" values="0 0 0 0 0 0 0 0 0 0 0 0 0 0 0 0 0 0 127 0" result="hardAlpha"/>
<feOffset dy="2"/>
<feGaussianBlur stdDeviation="3"/>
<feComposite in2="hardAlpha" operator="arithmetic" k2="-1" k3="1"/>
<feColorMatrix type="matrix" values="0 0 0 0 0.942112 0 0 0 0 0.939828 0 0 0 0 1 0 0 0 0.8 0"/>
<feBlend mode="normal" in2="shape" result="effect2_innerShadow_1512_3363"/>
</filter>
<clipPath id="clip0_1512_3363">
<rect width="160" height="160" fill="white" transform="translate(16)"/>
</clipPath>
</defs>
</svg>
