<svg width="32" height="32" viewBox="0 0 32 32" fill="none" xmlns="http://www.w3.org/2000/svg">
<g opacity="0.6" clip-path="url(#clip0_1512_3413)">
<path d="M6.66663 9.33333C6.66663 10.7478 7.22853 12.1044 8.22872 13.1046C9.22892 14.1048 10.5855 14.6667 12 14.6667C13.4144 14.6667 14.771 14.1048 15.7712 13.1046C16.7714 12.1044 17.3333 10.7478 17.3333 9.33333C17.3333 7.91885 16.7714 6.56229 15.7712 5.5621C14.771 4.5619 13.4144 4 12 4C10.5855 4 9.22892 4.5619 8.22872 5.5621C7.22853 6.56229 6.66663 7.91885 6.66663 9.33333Z" stroke="#B2AFFE" stroke-width="2" stroke-linecap="round" stroke-linejoin="round"/>
<path d="M4 28V25.3333C4 23.9188 4.5619 22.5623 5.5621 21.5621C6.56229 20.5619 7.91885 20 9.33333 20H14.6667C16.0812 20 17.4377 20.5619 18.4379 21.5621C19.4381 22.5623 20 23.9188 20 25.3333V28" stroke="#B2AFFE" stroke-width="2" stroke-linecap="round" stroke-linejoin="round"/>
<path d="M21.3334 4.17334C22.4806 4.46707 23.4974 5.13427 24.2236 6.06975C24.9497 7.00523 25.3438 8.15578 25.3438 9.34001C25.3438 10.5242 24.9497 11.6748 24.2236 12.6103C23.4974 13.5457 22.4806 14.2129 21.3334 14.5067" stroke="#B2AFFE" stroke-width="2" stroke-linecap="round" stroke-linejoin="round"/>
<path d="M28 28V25.3333C27.9932 24.1562 27.5972 23.0144 26.8737 22.0858C26.1502 21.1573 25.1398 20.4942 24 20.2" stroke="#B2AFFE" stroke-width="2" stroke-linecap="round" stroke-linejoin="round"/>
</g>
<defs>
<clipPath id="clip0_1512_3413">
<rect width="32" height="32" fill="white"/>
</clipPath>
</defs>
</svg>
