<svg width="32" height="32" viewBox="0 0 32 32" fill="none" xmlns="http://www.w3.org/2000/svg">
<path d="M10.6666 9.33333C10.6666 10.7478 11.2285 12.1044 12.2287 13.1046C13.2289 14.1048 14.5855 14.6667 16 14.6667C17.4144 14.6667 18.771 14.1048 19.7712 13.1046C20.7714 12.1044 21.3333 10.7478 21.3333 9.33333C21.3333 7.91885 20.7714 6.56229 19.7712 5.5621C18.771 4.5619 17.4144 4 16 4C14.5855 4 13.2289 4.5619 12.2287 5.5621C11.2285 6.56229 10.6666 7.91885 10.6666 9.33333Z" stroke="#B2AFFE" stroke-width="2" stroke-linecap="round" stroke-linejoin="round"/>
<path d="M8 28V25.3333C8 23.9188 8.5619 22.5623 9.5621 21.5621C10.5623 20.5619 11.9188 20 13.3333 20H14" stroke="#B2AFFE" stroke-width="2" stroke-linecap="round" stroke-linejoin="round"/>
<path d="M24 29.3333L28.4667 24.9547C28.7406 24.6889 28.9585 24.3709 29.1075 24.0195C29.2564 23.6681 29.3335 23.2904 29.3341 22.9087C29.3348 22.527 29.2589 22.1491 29.1111 21.7972C28.9632 21.4454 28.7464 21.1267 28.4733 20.86C27.9162 20.3151 27.1683 20.0093 26.389 20.0078C25.6097 20.0064 24.8606 20.3092 24.3013 20.852L24.0027 21.1453L23.7053 20.852C23.1482 20.3075 22.4006 20.002 21.6216 20.0005C20.8426 19.999 20.0938 20.3016 19.5347 20.844C19.2607 21.1097 19.0427 21.4276 18.8936 21.779C18.7445 22.1303 18.6673 22.508 18.6665 22.8896C18.6658 23.2713 18.7415 23.6493 18.8892 24.0012C19.037 24.3531 19.2537 24.6719 19.5267 24.9387L24 29.3333Z" stroke="#B2AFFE" stroke-width="2" stroke-linecap="round" stroke-linejoin="round"/>
</svg>
