<svg width="25" height="24" viewBox="0 0 25 24" fill="none" xmlns="http://www.w3.org/2000/svg">
<path d="M9.5 10C9.5 10.7956 9.81607 11.5587 10.3787 12.1213C10.9413 12.6839 11.7044 13 12.5 13C13.2956 13 14.0587 12.6839 14.6213 12.1213C15.1839 11.5587 15.5 10.7956 15.5 10C15.5 9.20435 15.1839 8.44129 14.6213 7.87868C14.0587 7.31607 13.2956 7 12.5 7C11.7044 7 10.9413 7.31607 10.3787 7.87868C9.81607 8.44129 9.5 9.20435 9.5 10Z" stroke="#B2AFFE" stroke-width="1.5" stroke-linecap="round" stroke-linejoin="round"/>
<path d="M6.5 21V20C6.5 18.9391 6.92143 17.9217 7.67157 17.1716C8.42172 16.4214 9.43913 16 10.5 16H14.5C15.5609 16 16.5783 16.4214 17.3284 17.1716C18.0786 17.9217 18.5 18.9391 18.5 20V21" stroke="#B2AFFE" stroke-width="1.5" stroke-linecap="round" stroke-linejoin="round"/>
<path d="M3.5 5C3.5 4.46957 3.71071 3.96086 4.08579 3.58579C4.46086 3.21071 4.96957 3 5.5 3H19.5C20.0304 3 20.5391 3.21071 20.9142 3.58579C21.2893 3.96086 21.5 4.46957 21.5 5V19C21.5 19.5304 21.2893 20.0391 20.9142 20.4142C20.5391 20.7893 20.0304 21 19.5 21H5.5C4.96957 21 4.46086 20.7893 4.08579 20.4142C3.71071 20.0391 3.5 19.5304 3.5 19V5Z" stroke="#B2AFFE" stroke-width="1.5" stroke-linecap="round" stroke-linejoin="round"/>
</svg>
