<svg width="96" height="97" viewBox="0 0 96 97" fill="none" xmlns="http://www.w3.org/2000/svg">
<g filter="url(#filter0_di_1321_1296)">
<rect x="8" y="7.33333" width="37" height="37" rx="18.5" fill="#B0BDFF" shape-rendering="crispEdges"/>
<path fill-rule="evenodd" clip-rule="evenodd" d="M32.8977 19.4359C33.1174 19.6556 33.1174 20.0118 32.8977 20.2314L20.8977 32.2314C20.6781 32.4511 20.3219 32.4511 20.1023 32.2314C19.8826 32.0118 19.8826 31.6556 20.1023 31.4359L32.1023 19.4359C32.3219 19.2163 32.6781 19.2163 32.8977 19.4359Z" fill="black"/>
<path fill-rule="evenodd" clip-rule="evenodd" d="M26.6875 19.8337C26.6875 19.523 26.9393 19.2712 27.25 19.2712H32.5C32.8107 19.2712 33.0625 19.523 33.0625 19.8337V25.0837C33.0625 25.3944 32.8107 25.6462 32.5 25.6462C32.1893 25.6462 31.9375 25.3944 31.9375 25.0837V20.3962H27.25C26.9393 20.3962 26.6875 20.1444 26.6875 19.8337Z" fill="black"/>
<path fill-rule="evenodd" clip-rule="evenodd" d="M21.9773 25.8113C22.1969 25.5916 22.5531 25.5916 22.7727 25.8113L26.5227 29.5613C26.7424 29.781 26.7424 30.1371 26.5227 30.3568C26.3031 30.5765 25.9469 30.5765 25.7273 30.3568L21.9773 26.6068C21.7576 26.3871 21.7576 26.031 21.9773 25.8113Z" fill="black"/>
</g>
<g filter="url(#filter1_di_1321_1296)">
<rect x="51" y="7.33333" width="37" height="37" rx="18.5" fill="#B0BDFF" shape-rendering="crispEdges"/>
<path fill-rule="evenodd" clip-rule="evenodd" d="M63.6873 31.8332C63.6873 31.5225 63.9391 31.2707 64.2498 31.2707L74.7498 31.2707C75.0604 31.2707 75.3123 31.5225 75.3123 31.8332C75.3123 32.1438 75.0604 32.3957 74.7498 32.3957L64.2498 32.3957C63.9391 32.3957 63.6873 32.1438 63.6873 31.8332Z" fill="black"/>
<path fill-rule="evenodd" clip-rule="evenodd" d="M69.5003 19.6398C68.3743 19.6398 67.286 20.0451 66.4343 20.7815C65.5826 21.518 65.0244 22.5364 64.8619 23.6505C64.6993 24.7647 64.9432 25.9001 65.549 26.8492C66.1548 27.7983 67.082 28.4977 68.161 28.8194C68.3994 28.8905 68.5628 29.1097 68.5628 29.3584L68.5628 29.5834C68.5628 29.8941 68.3109 30.1459 68.0003 30.1459L64.2503 30.1459C63.9396 30.1459 63.6878 29.8941 63.6878 29.5834C63.6878 29.2728 63.9396 29.0209 64.2503 29.0209L66.0717 29.0209C65.4928 28.5981 64.9926 28.0684 64.6007 27.4545C63.8495 26.2776 63.5471 24.8697 63.7487 23.4881C63.9502 22.1066 64.6423 20.8437 65.6984 19.9305C66.7546 19.0173 68.1041 18.5148 69.5003 18.5148C70.8964 18.5148 72.246 19.0173 73.3021 19.9305C74.3582 20.8437 75.0503 22.1066 75.2519 23.4881C75.4534 24.8697 75.151 26.2776 74.3998 27.4545C74.008 28.0684 73.5077 28.5981 72.9288 29.0209L74.7503 29.0209C75.0609 29.0209 75.3128 29.2728 75.3128 29.5834C75.3128 29.8941 75.0609 30.1459 74.7503 30.1459L71.0003 30.1459C70.6896 30.1459 70.4378 29.8941 70.4378 29.5834L70.4378 29.3584C70.4378 29.1097 70.6012 28.8905 70.8395 28.8194C71.9186 28.4977 72.8457 27.7983 73.4515 26.8492C74.0573 25.9001 74.3012 24.7647 74.1386 23.6505C73.9761 22.5364 73.4179 21.518 72.5662 20.7815C71.7145 20.0451 70.6262 19.6398 69.5003 19.6398Z" fill="black"/>
</g>
<g filter="url(#filter2_di_1321_1296)">
<rect x="8" y="50.3333" width="37" height="37" rx="18.5" fill="#B0BDFF" shape-rendering="crispEdges"/>
<path fill-rule="evenodd" clip-rule="evenodd" d="M21.6023 64.6856C21.8219 64.4659 22.1781 64.4659 22.3977 64.6856L24.25 66.5378L26.1023 64.6856C26.3219 64.4659 26.6781 64.4659 26.8977 64.6856L28.75 66.5378L30.6023 64.6856C30.8219 64.4659 31.1781 64.4659 31.3977 64.6856L33.6477 66.9356C33.8674 67.1553 33.8674 67.5114 33.6477 67.7311C33.4281 67.9507 33.0719 67.9507 32.8523 67.7311L31 65.8788L29.1477 67.7311C28.9281 67.9507 28.5719 67.9507 28.3523 67.7311L26.5 65.8788L24.6477 67.7311C24.4281 67.9507 24.0719 67.9507 23.8523 67.7311L22 65.8788L20.1477 67.7311C19.9281 67.9507 19.5719 67.9507 19.3523 67.7311C19.1326 67.5114 19.1326 67.1553 19.3523 66.9356L21.6023 64.6856Z" fill="black"/>
<path fill-rule="evenodd" clip-rule="evenodd" d="M21.6025 69.9354C21.8222 69.7157 22.1783 69.7157 22.398 69.9354L24.2502 71.7877L26.1025 69.9354C26.3222 69.7157 26.6783 69.7157 26.898 69.9354L28.7502 71.7877L30.6025 69.9354C30.8222 69.7157 31.1783 69.7157 31.398 69.9354L33.648 72.1854C33.8677 72.4051 33.8677 72.7612 33.648 72.9809C33.4283 73.2006 33.0722 73.2006 32.8525 72.9809L31.0002 71.1286L29.148 72.9809C28.9283 73.2006 28.5722 73.2006 28.3525 72.9809L26.5002 71.1286L24.648 72.9809C24.4283 73.2006 24.0722 73.2006 23.8525 72.9809L22.0002 71.1286L20.148 72.9809C19.9283 73.2006 19.5722 73.2006 19.3525 72.9809C19.1328 72.7612 19.1328 72.4051 19.3525 72.1854L21.6025 69.9354Z" fill="black"/>
</g>
<g filter="url(#filter3_di_1321_1296)">
<rect x="51" y="50.3333" width="37" height="37" rx="18.5" fill="#B0BDFF" shape-rendering="crispEdges"/>
<path fill-rule="evenodd" clip-rule="evenodd" d="M62.1875 62.8333C62.1875 62.5227 62.4393 62.2708 62.75 62.2708C63.297 62.2708 63.8216 62.4881 64.2084 62.8749C64.5952 63.2617 64.8125 63.7863 64.8125 64.3333V71.0833C64.8125 71.394 64.5607 71.6458 64.25 71.6458C63.9393 71.6458 63.6875 71.394 63.6875 71.0833V64.3333C63.6875 64.0847 63.5887 63.8462 63.4129 63.6704C63.2371 63.4946 62.9986 63.3958 62.75 63.3958C62.4393 63.3958 62.1875 63.144 62.1875 62.8333Z" fill="black"/>
<path fill-rule="evenodd" clip-rule="evenodd" d="M65.7495 63.3958C65.5009 63.3958 65.2624 63.4946 65.0866 63.6704C64.9108 63.8462 64.812 64.0847 64.812 64.3333C64.812 64.644 64.5602 64.8958 64.2495 64.8958C63.9389 64.8958 63.687 64.644 63.687 64.3333C63.687 63.7863 63.9043 63.2617 64.2911 62.8749C64.6779 62.4881 65.2025 62.2708 65.7495 62.2708C66.2965 62.2708 66.8211 62.4881 67.2079 62.8749C67.5947 63.2617 67.812 63.7863 67.812 64.3333V71.0833C67.812 71.394 67.5602 71.6458 67.2495 71.6458C66.9389 71.6458 66.687 71.394 66.687 71.0833V64.3333C66.687 64.0847 66.5882 63.8462 66.4124 63.6704C66.2366 63.4946 65.9982 63.3958 65.7495 63.3958Z" fill="black"/>
<path fill-rule="evenodd" clip-rule="evenodd" d="M68.75 63.3958C68.5014 63.3958 68.2629 63.4946 68.0871 63.6704C67.9113 63.8462 67.8125 64.0847 67.8125 64.3333C67.8125 64.644 67.5607 64.8958 67.25 64.8958C66.9393 64.8958 66.6875 64.644 66.6875 64.3333C66.6875 63.7863 66.9048 63.2617 67.2916 62.8749C67.6784 62.4881 68.203 62.2708 68.75 62.2708C69.297 62.2708 69.8216 62.4881 70.2084 62.8749C70.5952 63.2617 70.8125 63.7863 70.8125 64.3333V71.8333C70.8125 72.6059 71.2417 73.4038 72.1146 74.0273C72.9899 74.6524 74.2065 75.0208 75.5 75.0208C75.8107 75.0208 76.0625 75.2727 76.0625 75.5833C76.0625 75.894 75.8107 76.1458 75.5 76.1458C74.0087 76.1458 72.5546 75.724 71.4607 74.9427C70.3645 74.1597 69.6875 73.0498 69.6875 71.8333V64.3333C69.6875 64.0847 69.5887 63.8462 69.4129 63.6704C69.2371 63.4946 68.9986 63.3958 68.75 63.3958Z" fill="black"/>
<path fill-rule="evenodd" clip-rule="evenodd" d="M70.5113 68.3446C71.0387 67.8171 71.7541 67.5208 72.5 67.5208C73.2459 67.5208 73.9613 67.8171 74.4887 68.3446C75.0162 68.872 75.3125 69.5874 75.3125 70.3333V71.8333C75.3125 73.0498 74.6355 74.1597 73.5393 74.9427C72.4454 75.724 70.9913 76.1458 69.5 76.1458C69.1893 76.1458 68.9375 75.894 68.9375 75.5833C68.9375 75.2727 69.1893 75.0208 69.5 75.0208C70.7935 75.0208 72.0101 74.6524 72.8854 74.0273C73.7583 73.4038 74.1875 72.6059 74.1875 71.8333V70.3333C74.1875 69.8858 74.0097 69.4566 73.6932 69.1401C73.3768 68.8236 72.9476 68.6458 72.5 68.6458C72.0524 68.6458 71.6232 68.8236 71.3068 69.1401C70.9903 69.4566 70.8125 69.8858 70.8125 70.3333C70.8125 70.644 70.5607 70.8958 70.25 70.8958C69.9393 70.8958 69.6875 70.644 69.6875 70.3333C69.6875 69.5874 69.9838 68.872 70.5113 68.3446Z" fill="black"/>
</g>
<defs>
<filter id="filter0_di_1321_1296" x="0" y="0.333328" width="53" height="53" filterUnits="userSpaceOnUse" color-interpolation-filters="sRGB">
<feFlood flood-opacity="0" result="BackgroundImageFix"/>
<feColorMatrix in="SourceAlpha" type="matrix" values="0 0 0 0 0 0 0 0 0 0 0 0 0 0 0 0 0 0 127 0" result="hardAlpha"/>
<feOffset dy="1"/>
<feGaussianBlur stdDeviation="4"/>
<feComposite in2="hardAlpha" operator="out"/>
<feColorMatrix type="matrix" values="0 0 0 0 0.698039 0 0 0 0 0.686275 0 0 0 0 0.996078 0 0 0 0.6 0"/>
<feBlend mode="normal" in2="BackgroundImageFix" result="effect1_dropShadow_1321_1296"/>
<feBlend mode="normal" in="SourceGraphic" in2="effect1_dropShadow_1321_1296" result="shape"/>
<feColorMatrix in="SourceAlpha" type="matrix" values="0 0 0 0 0 0 0 0 0 0 0 0 0 0 0 0 0 0 127 0" result="hardAlpha"/>
<feOffset dy="2"/>
<feGaussianBlur stdDeviation="2"/>
<feComposite in2="hardAlpha" operator="arithmetic" k2="-1" k3="1"/>
<feColorMatrix type="matrix" values="0 0 0 0 0.955484 0 0 0 0 0.953727 0 0 0 0 1 0 0 0 1 0"/>
<feBlend mode="normal" in2="shape" result="effect2_innerShadow_1321_1296"/>
</filter>
<filter id="filter1_di_1321_1296" x="43" y="0.333328" width="53" height="53" filterUnits="userSpaceOnUse" color-interpolation-filters="sRGB">
<feFlood flood-opacity="0" result="BackgroundImageFix"/>
<feColorMatrix in="SourceAlpha" type="matrix" values="0 0 0 0 0 0 0 0 0 0 0 0 0 0 0 0 0 0 127 0" result="hardAlpha"/>
<feOffset dy="1"/>
<feGaussianBlur stdDeviation="4"/>
<feComposite in2="hardAlpha" operator="out"/>
<feColorMatrix type="matrix" values="0 0 0 0 0.698039 0 0 0 0 0.686275 0 0 0 0 0.996078 0 0 0 0.6 0"/>
<feBlend mode="normal" in2="BackgroundImageFix" result="effect1_dropShadow_1321_1296"/>
<feBlend mode="normal" in="SourceGraphic" in2="effect1_dropShadow_1321_1296" result="shape"/>
<feColorMatrix in="SourceAlpha" type="matrix" values="0 0 0 0 0 0 0 0 0 0 0 0 0 0 0 0 0 0 127 0" result="hardAlpha"/>
<feOffset dy="2"/>
<feGaussianBlur stdDeviation="2"/>
<feComposite in2="hardAlpha" operator="arithmetic" k2="-1" k3="1"/>
<feColorMatrix type="matrix" values="0 0 0 0 0.955484 0 0 0 0 0.953727 0 0 0 0 1 0 0 0 1 0"/>
<feBlend mode="normal" in2="shape" result="effect2_innerShadow_1321_1296"/>
</filter>
<filter id="filter2_di_1321_1296" x="0" y="43.3333" width="53" height="53" filterUnits="userSpaceOnUse" color-interpolation-filters="sRGB">
<feFlood flood-opacity="0" result="BackgroundImageFix"/>
<feColorMatrix in="SourceAlpha" type="matrix" values="0 0 0 0 0 0 0 0 0 0 0 0 0 0 0 0 0 0 127 0" result="hardAlpha"/>
<feOffset dy="1"/>
<feGaussianBlur stdDeviation="4"/>
<feComposite in2="hardAlpha" operator="out"/>
<feColorMatrix type="matrix" values="0 0 0 0 0.698039 0 0 0 0 0.686275 0 0 0 0 0.996078 0 0 0 0.6 0"/>
<feBlend mode="normal" in2="BackgroundImageFix" result="effect1_dropShadow_1321_1296"/>
<feBlend mode="normal" in="SourceGraphic" in2="effect1_dropShadow_1321_1296" result="shape"/>
<feColorMatrix in="SourceAlpha" type="matrix" values="0 0 0 0 0 0 0 0 0 0 0 0 0 0 0 0 0 0 127 0" result="hardAlpha"/>
<feOffset dy="2"/>
<feGaussianBlur stdDeviation="2"/>
<feComposite in2="hardAlpha" operator="arithmetic" k2="-1" k3="1"/>
<feColorMatrix type="matrix" values="0 0 0 0 0.955484 0 0 0 0 0.953727 0 0 0 0 1 0 0 0 1 0"/>
<feBlend mode="normal" in2="shape" result="effect2_innerShadow_1321_1296"/>
</filter>
<filter id="filter3_di_1321_1296" x="43" y="43.3333" width="53" height="53" filterUnits="userSpaceOnUse" color-interpolation-filters="sRGB">
<feFlood flood-opacity="0" result="BackgroundImageFix"/>
<feColorMatrix in="SourceAlpha" type="matrix" values="0 0 0 0 0 0 0 0 0 0 0 0 0 0 0 0 0 0 127 0" result="hardAlpha"/>
<feOffset dy="1"/>
<feGaussianBlur stdDeviation="4"/>
<feComposite in2="hardAlpha" operator="out"/>
<feColorMatrix type="matrix" values="0 0 0 0 0.698039 0 0 0 0 0.686275 0 0 0 0 0.996078 0 0 0 0.6 0"/>
<feBlend mode="normal" in2="BackgroundImageFix" result="effect1_dropShadow_1321_1296"/>
<feBlend mode="normal" in="SourceGraphic" in2="effect1_dropShadow_1321_1296" result="shape"/>
<feColorMatrix in="SourceAlpha" type="matrix" values="0 0 0 0 0 0 0 0 0 0 0 0 0 0 0 0 0 0 127 0" result="hardAlpha"/>
<feOffset dy="2"/>
<feGaussianBlur stdDeviation="2"/>
<feComposite in2="hardAlpha" operator="arithmetic" k2="-1" k3="1"/>
<feColorMatrix type="matrix" values="0 0 0 0 0.955484 0 0 0 0 0.953727 0 0 0 0 1 0 0 0 1 0"/>
<feBlend mode="normal" in2="shape" result="effect2_innerShadow_1321_1296"/>
</filter>
</defs>
</svg>
