<svg width="361" height="361" viewBox="0 0 361 361" fill="none" xmlns="http://www.w3.org/2000/svg">
<path d="M57.4196 119.956C57.4604 119.979 57.5071 119.985 57.548 119.985C57.653 119.985 57.758 119.927 57.8105 119.822C58.0672 119.297 58.3298 118.777 58.5982 118.258C58.6741 118.112 58.6157 117.937 58.4698 117.867C58.324 117.797 58.1489 117.85 58.0789 117.996C57.8105 118.515 57.548 119.04 57.2854 119.565C57.2154 119.711 57.2737 119.886 57.4196 119.956Z" fill="#FC0160"/>
<path d="M51.2698 134.508C51.3048 134.519 51.3339 134.525 51.3689 134.525C51.4915 134.525 51.6023 134.449 51.6432 134.333C51.8416 133.784 52.0399 133.236 52.2442 132.687C52.3025 132.536 52.2208 132.366 52.075 132.314C51.9232 132.261 51.754 132.337 51.7015 132.483C51.4973 133.032 51.2931 133.586 51.0947 134.14C51.0422 134.292 51.1181 134.461 51.2698 134.514V134.508Z" fill="#FC0160"/>
<path d="M53.1311 129.577C53.1661 129.589 53.2011 129.601 53.242 129.601C53.3587 129.601 53.4695 129.531 53.5104 129.42C53.7263 128.877 53.948 128.335 54.1755 127.798C54.2397 127.652 54.1697 127.477 54.018 127.419C53.8721 127.354 53.6971 127.424 53.6387 127.576C53.4112 128.119 53.1895 128.661 52.9677 129.204C52.9094 129.356 52.9794 129.525 53.1311 129.583V129.577Z" fill="#FC0160"/>
<path d="M49.5953 139.508C49.5953 139.508 49.6536 139.52 49.6828 139.52C49.8053 139.52 49.922 139.438 49.9628 139.316C50.1379 138.755 50.3188 138.201 50.4996 137.647C50.5522 137.495 50.4646 137.332 50.3129 137.279C50.1612 137.227 49.992 137.314 49.9453 137.466C49.7645 138.026 49.5836 138.58 49.4027 139.146C49.356 139.298 49.4377 139.461 49.5953 139.514V139.508Z" fill="#FC0160"/>
<path d="M44.5591 196.297C44.4949 195.72 44.4307 195.142 44.3724 194.559C44.3549 194.395 44.209 194.279 44.0515 194.296C43.8939 194.314 43.7772 194.454 43.7889 194.617C43.8472 195.201 43.9114 195.784 43.9756 196.362C43.9931 196.508 44.1215 196.618 44.2673 196.618C44.279 196.618 44.2907 196.618 44.3023 196.618C44.4599 196.601 44.5766 196.455 44.5591 196.297Z" fill="#FC0160"/>
<path d="M55.1854 124.723C55.2262 124.74 55.2671 124.746 55.3021 124.746C55.4129 124.746 55.518 124.682 55.5705 124.571C55.8097 124.04 56.0489 123.509 56.2998 122.978C56.3698 122.832 56.2998 122.657 56.1598 122.593C56.0139 122.523 55.8389 122.593 55.7747 122.733C55.5296 123.264 55.2846 123.801 55.0454 124.332C54.9812 124.478 55.0454 124.653 55.1912 124.717L55.1854 124.723Z" fill="#FC0160"/>
<path d="M48.1244 144.549C48.1244 144.549 48.1769 144.561 48.2002 144.561C48.3286 144.561 48.4453 144.473 48.4803 144.345C48.632 143.785 48.7895 143.225 48.9529 142.665C48.9996 142.507 48.9062 142.35 48.7545 142.303C48.597 142.256 48.4394 142.35 48.3928 142.501C48.2294 143.061 48.0719 143.627 47.9202 144.193C47.8793 144.351 47.9668 144.508 48.1244 144.549Z" fill="#FC0160"/>
<path d="M44.8927 159.965C44.8927 159.965 44.9219 159.965 44.9394 159.965C45.0794 159.965 45.2078 159.86 45.2253 159.72C45.3128 159.142 45.4062 158.57 45.4995 157.993C45.5228 157.835 45.4178 157.683 45.2603 157.66C45.0969 157.631 44.951 157.742 44.9219 157.899C44.8285 158.477 44.7352 159.055 44.6476 159.632C44.6243 159.79 44.7352 159.941 44.8927 159.965Z" fill="#FC0160"/>
<path d="M45.7734 154.789C45.7734 154.789 45.8084 154.789 45.8259 154.789C45.9601 154.789 46.0826 154.69 46.1118 154.55C46.2227 153.978 46.3335 153.406 46.4502 152.835C46.4852 152.677 46.3802 152.525 46.2227 152.49C46.071 152.461 45.9076 152.56 45.8784 152.718C45.7617 153.29 45.645 153.862 45.5342 154.439C45.505 154.597 45.61 154.748 45.7676 154.783L45.7734 154.789Z" fill="#FC0160"/>
<path d="M44.2097 165.175C44.2097 165.175 44.233 165.175 44.2447 165.175C44.3905 165.175 44.5189 165.064 44.5364 164.918C44.6006 164.341 44.6706 163.763 44.7465 163.185C44.764 163.028 44.6531 162.882 44.4956 162.859C44.338 162.841 44.1922 162.952 44.1688 163.11C44.0988 163.687 44.023 164.271 43.9588 164.854C43.9413 165.012 44.058 165.158 44.2155 165.175H44.2097Z" fill="#FC0160"/>
<path d="M46.8469 149.643C46.8469 149.643 46.8936 149.649 46.9111 149.649C47.0453 149.649 47.162 149.556 47.197 149.421C47.3312 148.855 47.4654 148.289 47.6054 147.723C47.6463 147.566 47.5471 147.408 47.3896 147.373C47.232 147.332 47.0745 147.432 47.0336 147.589C46.8936 148.155 46.7594 148.727 46.6252 149.299C46.5902 149.456 46.6894 149.614 46.8411 149.649L46.8469 149.643Z" fill="#FC0160"/>
<path d="M43.451 175.648C43.451 175.648 43.4568 175.648 43.4627 175.648C43.6202 175.648 43.7486 175.526 43.7544 175.368C43.7777 174.785 43.8011 174.201 43.8302 173.624C43.8361 173.46 43.7136 173.326 43.556 173.32C43.381 173.315 43.2584 173.437 43.2526 173.6C43.2234 174.184 43.2001 174.767 43.1768 175.351C43.1768 175.514 43.2993 175.648 43.4568 175.654L43.451 175.648Z" fill="#FC0160"/>
<path d="M43.7311 170.403C43.7311 170.403 43.7486 170.403 43.7544 170.403C43.9061 170.403 44.0345 170.286 44.0462 170.135C44.087 169.551 44.1395 168.974 44.1862 168.39C44.1979 168.233 44.0812 168.087 43.9237 168.075C43.7544 168.063 43.6202 168.18 43.6086 168.338C43.5561 168.921 43.5094 169.504 43.4685 170.088C43.4569 170.251 43.5794 170.391 43.7369 170.403H43.7311Z" fill="#FC0160"/>
<path d="M60.2729 245.916C59.9928 245.408 59.7186 244.895 59.4502 244.381C59.3744 244.236 59.1993 244.183 59.0534 244.259C58.9134 244.335 58.8551 244.51 58.9309 244.656C59.2051 245.169 59.4794 245.683 59.7594 246.196C59.812 246.295 59.9111 246.348 60.0162 246.348C60.0628 246.348 60.1095 246.336 60.1562 246.313C60.2962 246.237 60.3488 246.056 60.2729 245.916Z" fill="#FC0160"/>
<path d="M43.4799 186.151C43.6433 186.145 43.7658 186.011 43.76 185.848C43.7366 185.27 43.7191 184.686 43.7016 184.109C43.7016 183.945 43.5908 183.829 43.4041 183.823C43.2407 183.823 43.1182 183.963 43.1182 184.12C43.1357 184.704 43.1532 185.287 43.1765 185.871C43.1823 186.028 43.3107 186.151 43.4682 186.151H43.4799Z" fill="#FC0160"/>
<path d="M57.0986 239.714C57.0286 239.568 56.8535 239.509 56.7077 239.579C56.5618 239.649 56.5035 239.825 56.5735 239.97C56.8244 240.496 57.0811 241.021 57.3437 241.54C57.3962 241.645 57.4954 241.703 57.6062 241.703C57.6529 241.703 57.6937 241.692 57.7346 241.674C57.8805 241.604 57.9388 241.429 57.8688 241.283C57.6121 240.764 57.3553 240.245 57.1044 239.72L57.0986 239.714Z" fill="#FC0160"/>
<path d="M44.0583 191.081C44.0117 190.504 43.9708 189.92 43.9358 189.337C43.9241 189.173 43.8016 189.045 43.6266 189.062C43.4632 189.074 43.3407 189.208 43.3523 189.372C43.3873 189.955 43.4282 190.539 43.4749 191.122C43.4865 191.274 43.6149 191.39 43.7666 191.39C43.7724 191.39 43.7841 191.39 43.7899 191.39C43.9533 191.379 44.07 191.239 44.0583 191.075V191.081Z" fill="#FC0160"/>
<path d="M48.0892 215.173C48.0484 215.015 47.8908 214.922 47.7333 214.963C47.5758 215.004 47.4824 215.161 47.5233 215.319C47.6691 215.885 47.8208 216.451 47.9784 217.017C48.0134 217.145 48.1301 217.232 48.2584 217.232C48.2818 217.232 48.3109 217.232 48.3343 217.221C48.4918 217.18 48.5793 217.017 48.5385 216.859C48.3868 216.299 48.2351 215.733 48.0834 215.173H48.0892Z" fill="#FC0160"/>
<path d="M54.923 234.964C54.8588 234.818 54.6838 234.748 54.5379 234.812C54.392 234.877 54.322 235.046 54.3862 235.198C54.6196 235.734 54.853 236.265 55.0922 236.796C55.1389 236.907 55.2497 236.965 55.3606 236.965C55.4014 236.965 55.4423 236.96 55.4831 236.942C55.629 236.878 55.6932 236.703 55.629 236.557C55.3898 236.026 55.1564 235.495 54.923 234.964Z" fill="#FC0160"/>
<path d="M46.864 210.079C46.829 209.922 46.6773 209.822 46.5139 209.857C46.3564 209.892 46.2572 210.05 46.2922 210.207C46.4147 210.779 46.5489 211.351 46.6831 211.917C46.7123 212.051 46.8348 212.145 46.969 212.145C46.9924 212.145 47.0157 212.145 47.0332 212.139C47.1907 212.104 47.2899 211.946 47.2491 211.789C47.1149 211.223 46.9865 210.657 46.864 210.085V210.079Z" fill="#FC0160"/>
<path d="M45.4931 204.705C45.3356 204.734 45.2306 204.886 45.2597 205.044C45.3648 205.621 45.4698 206.193 45.5807 206.771C45.6098 206.911 45.7324 207.01 45.8666 207.01C45.8841 207.01 45.9016 207.01 45.9249 207.01C46.0824 206.981 46.1875 206.829 46.1583 206.666C46.0474 206.094 45.9424 205.522 45.8374 204.95C45.8082 204.793 45.6565 204.688 45.499 204.717L45.4931 204.705Z" fill="#FC0160"/>
<path d="M52.9324 230.127C52.874 229.976 52.7048 229.9 52.5531 229.958C52.4014 230.016 52.3256 230.186 52.3839 230.337C52.594 230.886 52.8099 231.428 53.0316 231.971C53.0783 232.082 53.1891 232.152 53.3 232.152C53.335 232.152 53.3758 232.146 53.4108 232.129C53.5625 232.07 53.6326 231.895 53.5742 231.749C53.3583 231.212 53.1424 230.67 52.9324 230.127Z" fill="#FC0160"/>
<path d="M49.5083 220.22C49.4616 220.068 49.2982 219.981 49.1465 220.027C48.9948 220.074 48.9073 220.237 48.954 220.389C49.1232 220.949 49.2982 221.509 49.4733 222.064C49.5141 222.186 49.625 222.268 49.7533 222.268C49.7825 222.268 49.8117 222.268 49.8409 222.256C49.9926 222.21 50.0801 222.046 50.0334 221.889C49.8584 221.334 49.6833 220.774 49.5141 220.22H49.5083Z" fill="#FC0160"/>
<path d="M51.1239 225.209C51.0714 225.057 50.9081 224.975 50.7505 225.028C50.5988 225.08 50.5171 225.244 50.5696 225.401C50.7622 225.955 50.9547 226.504 51.1531 227.058C51.194 227.175 51.3107 227.251 51.4273 227.251C51.4624 227.251 51.4915 227.251 51.5265 227.233C51.6782 227.181 51.7541 227.011 51.7016 226.86C51.5032 226.311 51.3107 225.763 51.1181 225.214L51.1239 225.209Z" fill="#FC0160"/>
<path d="M44.6707 199.518C44.5131 199.542 44.4023 199.687 44.4198 199.845C44.5015 200.428 44.589 201.006 44.6765 201.584C44.6999 201.73 44.8224 201.829 44.9624 201.829C44.9799 201.829 44.9916 201.829 45.0091 201.829C45.1666 201.805 45.2775 201.654 45.2542 201.496C45.1666 200.919 45.0791 200.347 44.9974 199.769C44.9741 199.612 44.8224 199.501 44.6707 199.518Z" fill="#FC0160"/>
<path d="M297.302 252.392C297.349 252.422 297.402 252.433 297.454 252.433C297.553 252.433 297.647 252.381 297.705 252.293C298.014 251.791 298.312 251.295 298.615 250.788C298.697 250.648 298.65 250.473 298.516 250.385C298.376 250.304 298.201 250.344 298.113 250.484C297.816 250.986 297.512 251.482 297.209 251.984C297.127 252.124 297.168 252.299 297.302 252.387V252.392Z" fill="#FC0160"/>
<path d="M314.13 211.462C313.972 211.427 313.815 211.526 313.78 211.678C313.646 212.244 313.512 212.81 313.372 213.376C313.331 213.533 313.43 213.691 313.587 213.732C313.611 213.732 313.634 213.737 313.657 213.737C313.786 213.737 313.908 213.65 313.943 213.516C314.083 212.95 314.218 212.378 314.352 211.806C314.387 211.649 314.293 211.491 314.136 211.456L314.13 211.462Z" fill="#FC0160"/>
<path d="M312.845 216.556C312.694 216.515 312.53 216.602 312.49 216.76C312.338 217.32 312.18 217.88 312.017 218.44C311.97 218.598 312.064 218.755 312.215 218.802C312.244 218.808 312.268 218.814 312.297 218.814C312.425 218.814 312.542 218.732 312.577 218.604C312.74 218.044 312.898 217.478 313.05 216.912C313.091 216.754 313.003 216.596 312.845 216.556Z" fill="#FC0160"/>
<path d="M311.37 221.597C311.218 221.55 311.055 221.632 311.002 221.789C310.827 222.349 310.646 222.904 310.466 223.458C310.413 223.61 310.501 223.773 310.652 223.826C310.681 223.837 310.716 223.843 310.746 223.843C310.868 223.843 310.985 223.767 311.02 223.645C311.207 223.085 311.387 222.53 311.562 221.964C311.609 221.813 311.527 221.649 311.37 221.597Z" fill="#FC0160"/>
<path d="M309.696 226.597C309.544 226.545 309.375 226.621 309.322 226.772C309.124 227.321 308.925 227.869 308.715 228.418C308.657 228.569 308.739 228.739 308.885 228.791C308.92 228.803 308.955 228.809 308.984 228.809C309.1 228.809 309.211 228.739 309.258 228.616C309.462 228.068 309.666 227.513 309.865 226.965C309.917 226.813 309.841 226.644 309.69 226.591L309.696 226.597Z" fill="#FC0160"/>
<path d="M316.095 201.146C315.944 201.123 315.786 201.234 315.763 201.391C315.675 201.969 315.582 202.541 315.489 203.118C315.465 203.276 315.57 203.428 315.728 203.457C315.745 203.457 315.763 203.457 315.774 203.457C315.915 203.457 316.037 203.358 316.06 203.212C316.154 202.634 316.247 202.056 316.335 201.479C316.358 201.321 316.247 201.17 316.09 201.146H316.095Z" fill="#FC0160"/>
<path d="M317.263 190.708C317.111 190.696 316.965 190.819 316.948 190.976C316.907 191.56 316.854 192.137 316.807 192.715C316.796 192.878 316.912 193.018 317.07 193.03C317.076 193.03 317.088 193.03 317.093 193.03C317.245 193.03 317.368 192.913 317.385 192.762C317.438 192.178 317.484 191.595 317.531 191.011C317.543 190.848 317.42 190.714 317.263 190.696V190.708Z" fill="#FC0160"/>
<path d="M317.548 185.462C317.403 185.462 317.251 185.585 317.245 185.742C317.222 186.326 317.198 186.909 317.169 187.487C317.163 187.65 317.286 187.785 317.443 187.79H317.455C317.607 187.79 317.741 187.668 317.747 187.516C317.776 186.933 317.799 186.349 317.823 185.766C317.823 185.602 317.7 185.468 317.543 185.462H317.548Z" fill="#FC0160"/>
<path d="M307.828 231.528C307.676 231.469 307.507 231.539 307.449 231.691C307.227 232.234 307.005 232.776 306.784 233.313C306.719 233.459 306.789 233.634 306.941 233.692C306.976 233.71 307.017 233.716 307.052 233.716C307.169 233.716 307.274 233.646 307.32 233.535C307.548 232.992 307.77 232.449 307.991 231.907C308.05 231.755 307.98 231.586 307.828 231.528Z" fill="#FC0160"/>
<path d="M316.779 195.936C316.622 195.918 316.476 196.035 316.458 196.192C316.394 196.77 316.324 197.348 316.248 197.925C316.225 198.083 316.341 198.229 316.499 198.252C316.511 198.252 316.522 198.252 316.534 198.252C316.68 198.252 316.802 198.147 316.826 197.995C316.902 197.418 316.972 196.834 317.036 196.251C317.053 196.093 316.937 195.947 316.779 195.93V195.936Z" fill="#FC0160"/>
<path d="M300.674 114.991C300.954 115.498 301.229 116.012 301.497 116.525C301.55 116.624 301.649 116.683 301.754 116.683C301.8 116.683 301.847 116.671 301.888 116.648C302.028 116.572 302.086 116.397 302.011 116.251C301.736 115.738 301.462 115.224 301.182 114.711C301.106 114.571 300.925 114.518 300.785 114.594C300.645 114.67 300.593 114.851 300.669 114.991H300.674Z" fill="#FC0160"/>
<path d="M305.775 236.376C305.629 236.312 305.454 236.376 305.39 236.522C305.15 237.053 304.905 237.584 304.66 238.115C304.59 238.261 304.66 238.436 304.8 238.5C304.841 238.518 304.882 238.529 304.923 238.529C305.034 238.529 305.139 238.465 305.185 238.36C305.43 237.829 305.676 237.292 305.915 236.761C305.979 236.615 305.915 236.44 305.769 236.376H305.775Z" fill="#FC0160"/>
<path d="M303.533 241.143C303.387 241.073 303.212 241.131 303.142 241.277C302.88 241.802 302.617 242.322 302.355 242.841C302.279 242.987 302.337 243.162 302.483 243.232C302.524 243.255 302.57 243.261 302.617 243.261C302.722 243.261 302.827 243.203 302.88 243.104C303.148 242.584 303.411 242.059 303.673 241.534C303.743 241.388 303.685 241.213 303.539 241.143H303.533Z" fill="#FC0160"/>
<path d="M301.112 245.817C300.972 245.741 300.791 245.793 300.715 245.933C300.435 246.447 300.155 246.955 299.869 247.468C299.787 247.608 299.84 247.789 299.98 247.865C300.026 247.888 300.073 247.9 300.126 247.9C300.225 247.9 300.324 247.847 300.382 247.754C300.668 247.24 300.954 246.733 301.234 246.214C301.31 246.073 301.257 245.893 301.117 245.817H301.112Z" fill="#FC0160"/>
<path d="M315.209 206.321C315.051 206.292 314.9 206.392 314.865 206.555C314.754 207.127 314.643 207.698 314.526 208.27C314.491 208.428 314.596 208.585 314.754 208.615C314.771 208.615 314.795 208.62 314.812 208.62C314.946 208.62 315.069 208.527 315.098 208.387C315.215 207.815 315.331 207.243 315.442 206.666C315.472 206.508 315.372 206.356 315.209 206.321Z" fill="#FC0160"/>
<path d="M303.86 121.187C303.913 121.292 304.012 121.351 304.123 121.351C304.164 121.351 304.21 121.339 304.251 121.321C304.397 121.251 304.455 121.076 304.385 120.93C304.134 120.405 303.878 119.88 303.615 119.361C303.545 119.215 303.37 119.157 303.224 119.233C303.078 119.308 303.02 119.478 303.096 119.623C303.353 120.143 303.609 120.662 303.86 121.187Z" fill="#FC0160"/>
<path d="M316.936 169.814C316.983 170.391 317.024 170.975 317.059 171.558C317.071 171.71 317.199 171.833 317.351 171.833C317.356 171.833 317.362 171.833 317.368 171.833C317.531 171.821 317.648 171.681 317.642 171.523C317.607 170.94 317.566 170.356 317.52 169.773C317.508 169.609 317.368 169.493 317.205 169.504C317.047 169.516 316.925 169.656 316.936 169.82V169.814Z" fill="#FC0160"/>
<path d="M296.252 107.476C296.305 107.563 296.404 107.61 296.497 107.61C296.55 107.61 296.602 107.598 296.655 107.563C296.789 107.476 296.83 107.295 296.748 107.16C296.439 106.665 296.124 106.174 295.803 105.684C295.715 105.55 295.535 105.509 295.4 105.597C295.266 105.684 295.225 105.865 295.313 105.999C295.628 106.489 295.943 106.974 296.252 107.47V107.476Z" fill="#FC0160"/>
<path d="M317.239 175.047C317.263 175.625 317.28 176.209 317.298 176.792C317.298 176.95 317.432 177.078 317.59 177.078H317.595C317.759 177.078 317.881 176.938 317.881 176.78C317.864 176.197 317.846 175.613 317.823 175.03C317.817 174.872 317.7 174.744 317.52 174.75C317.356 174.756 317.234 174.89 317.239 175.053V175.047Z" fill="#FC0160"/>
<path d="M309.841 135.692C309.882 135.815 309.999 135.891 310.115 135.891C310.145 135.891 310.18 135.891 310.209 135.873C310.361 135.821 310.442 135.651 310.39 135.5C310.197 134.945 310.005 134.397 309.806 133.843C309.754 133.691 309.585 133.615 309.433 133.668C309.281 133.72 309.205 133.889 309.258 134.041C309.456 134.589 309.649 135.138 309.841 135.686V135.692Z" fill="#FC0160"/>
<path d="M311.457 140.675C311.498 140.803 311.608 140.879 311.737 140.879C311.766 140.879 311.795 140.879 311.824 140.868C311.976 140.821 312.063 140.658 312.017 140.506C311.848 139.946 311.673 139.386 311.498 138.831C311.451 138.68 311.282 138.592 311.13 138.639C310.978 138.685 310.891 138.849 310.937 139.006C311.112 139.561 311.287 140.115 311.457 140.675Z" fill="#FC0160"/>
<path d="M308.027 130.774C308.073 130.89 308.184 130.96 308.301 130.96C308.336 130.96 308.371 130.954 308.406 130.943C308.557 130.884 308.627 130.715 308.569 130.564C308.359 130.021 308.137 129.472 307.921 128.936C307.863 128.784 307.688 128.714 307.542 128.772C307.391 128.831 307.321 129 307.379 129.152C307.601 129.688 307.811 130.231 308.027 130.774Z" fill="#FC0160"/>
<path d="M316.429 164.597C316.499 165.175 316.557 165.753 316.621 166.336C316.639 166.488 316.761 166.599 316.913 166.599C316.925 166.599 316.936 166.599 316.942 166.599C317.106 166.581 317.216 166.441 317.205 166.278C317.146 165.694 317.082 165.111 317.012 164.533C316.995 164.376 316.849 164.253 316.691 164.277C316.534 164.294 316.417 164.44 316.435 164.597H316.429Z" fill="#FC0160"/>
<path d="M306.038 125.937C306.084 126.047 306.195 126.112 306.306 126.112C306.347 126.112 306.382 126.106 306.423 126.088C306.568 126.024 306.638 125.855 306.574 125.703C306.341 125.166 306.108 124.635 305.868 124.104C305.798 123.959 305.629 123.894 305.483 123.959C305.337 124.023 305.273 124.198 305.337 124.344C305.577 124.875 305.81 125.406 306.043 125.937H306.038Z" fill="#FC0160"/>
<path d="M312.887 145.722C312.922 145.851 313.039 145.938 313.167 145.938C313.19 145.938 313.214 145.938 313.243 145.926C313.4 145.886 313.494 145.728 313.453 145.57C313.307 145.004 313.155 144.439 312.998 143.878C312.957 143.721 312.794 143.633 312.636 143.674C312.479 143.715 312.391 143.878 312.432 144.03C312.589 144.59 312.735 145.156 312.887 145.716V145.722Z" fill="#FC0160"/>
<path d="M315.437 156.195C315.437 156.195 315.472 156.195 315.489 156.195C315.647 156.166 315.752 156.015 315.723 155.857C315.618 155.279 315.513 154.708 315.402 154.13C315.373 153.972 315.215 153.867 315.058 153.897C314.9 153.926 314.795 154.077 314.824 154.241C314.935 154.813 315.046 155.384 315.145 155.956C315.168 156.096 315.291 156.195 315.431 156.195H315.437Z" fill="#FC0160"/>
<path d="M316.271 161.383C316.271 161.383 316.3 161.383 316.312 161.383C316.47 161.359 316.581 161.213 316.557 161.05C316.476 160.472 316.388 159.889 316.3 159.311C316.277 159.154 316.131 159.043 315.968 159.066C315.81 159.089 315.699 159.241 315.723 159.399C315.81 159.976 315.898 160.548 315.98 161.126C316.003 161.272 316.125 161.377 316.265 161.377L316.271 161.383Z" fill="#FC0160"/>
<path d="M314.118 150.816C314.147 150.95 314.27 151.043 314.404 151.043C314.427 151.043 314.445 151.043 314.468 151.038C314.626 151.003 314.725 150.845 314.69 150.687C314.561 150.116 314.433 149.544 314.299 148.978C314.264 148.82 314.106 148.721 313.949 148.762C313.791 148.797 313.692 148.955 313.733 149.112C313.867 149.678 313.995 150.244 314.124 150.816H314.118Z" fill="#FC0160"/>
<path d="M308.132 52.8684C274.039 18.7761 228.715 0 180.503 0C132.291 0 86.9607 18.7761 52.8684 52.8684C18.7761 86.9607 0 132.285 0 180.503C0 228.721 18.7761 274.045 52.8684 308.137C86.9607 342.23 132.291 361.006 180.503 361.006C228.715 361.006 274.045 342.23 308.137 308.137C342.23 274.045 361.006 228.715 361.006 180.503C361.006 132.291 342.23 86.9607 308.137 52.8684H308.132ZM90.3506 25.5269L111.268 61.7605C110.912 61.9706 110.55 62.1806 110.195 62.3907C110.054 62.4723 110.008 62.6532 110.095 62.7933C110.148 62.8866 110.247 62.9333 110.346 62.9333C110.399 62.9333 110.451 62.9216 110.498 62.8924C110.854 62.6824 111.21 62.4723 111.566 62.2623L118.357 74.0251C100.054 84.7493 84.7551 100.054 74.0309 118.351L25.5327 90.3506C41.1756 63.5576 63.5693 41.1698 90.3565 25.5269H90.3506ZM178.321 181.086L73.9376 241.353C63.7385 223.563 57.8746 202.996 57.7696 181.086H178.321ZM57.7696 179.919C57.8746 158.01 63.7385 137.443 73.9376 119.653L178.321 179.919H57.7754H57.7696ZM178.904 182.096L118.643 286.473C100.433 275.801 85.1986 260.573 74.5269 242.357L178.904 182.096ZM74.5269 118.643C85.1986 100.433 100.427 85.1986 118.643 74.5269L178.904 178.898L74.5269 118.637V118.643ZM24.9259 91.3542L73.43 119.355C63.1842 137.227 57.2853 157.899 57.1861 179.914H43.6554C43.6554 179.564 43.6554 179.208 43.6612 178.858C43.6612 178.694 43.5328 178.566 43.3753 178.56C43.2119 178.56 43.0836 178.688 43.0777 178.846C43.0777 179.202 43.0777 179.552 43.0719 179.908H1.17278C1.2778 147.7 9.90735 117.465 24.9318 91.3484L24.9259 91.3542ZM1.17278 181.086H57.1861C57.2911 203.101 63.1842 223.767 73.43 241.645L24.9259 269.646C9.90736 243.53 1.2778 213.288 1.17278 181.086ZM25.5269 270.649L61.7605 249.732C61.9589 250.076 62.1631 250.42 62.3615 250.759C62.414 250.852 62.5132 250.899 62.6124 250.899C62.6649 250.899 62.7174 250.887 62.7641 250.858C62.9041 250.776 62.9508 250.595 62.8633 250.455C62.6591 250.117 62.4607 249.773 62.2623 249.434L74.0193 242.643C84.7435 260.946 100.048 276.245 118.346 286.969L90.3448 335.467C63.5518 319.824 41.164 297.431 25.5211 270.643L25.5269 270.649ZM179.919 317.339C179.552 317.339 179.178 317.339 178.811 317.333C178.653 317.333 178.519 317.461 178.519 317.619C178.519 317.782 178.647 317.911 178.805 317.916C179.178 317.916 179.552 317.916 179.919 317.922V359.827C147.712 359.722 117.476 351.093 91.36 336.068L119.361 287.564C137.233 297.81 157.905 303.709 179.919 303.808V317.339ZM179.919 303.225C158.01 303.12 137.443 297.256 119.653 287.057L179.919 182.673V303.225ZM179.919 178.321L119.653 73.9376C137.443 63.7385 158.01 57.8746 179.919 57.7696V178.321ZM179.919 57.1861C157.905 57.2911 137.238 63.1842 119.361 73.43L91.36 24.9259C117.476 9.90736 147.712 1.2778 179.919 1.17278V57.1861ZM359.827 179.914H303.814C303.709 157.899 297.816 137.233 287.57 119.355L336.074 91.3542C351.098 117.47 359.728 147.706 359.833 179.914H359.827ZM182.679 181.081H303.23C303.125 202.99 297.261 223.557 287.062 241.347L182.679 181.081ZM286.473 242.351C275.801 260.561 260.573 275.796 242.357 286.467L182.096 182.09L286.473 242.351ZM182.096 178.904L242.357 74.5269C260.567 85.1986 275.801 100.427 286.473 118.643L182.096 178.904ZM182.679 179.914L287.062 119.647C297.261 137.437 303.125 158.004 303.23 179.914H182.679ZM335.479 90.3506L299.245 111.268C299.024 110.895 298.808 110.521 298.586 110.148C298.504 110.008 298.323 109.967 298.183 110.049C298.043 110.13 298.003 110.311 298.084 110.451C298.306 110.819 298.522 111.192 298.738 111.566L286.975 118.357C276.251 100.054 260.946 84.7551 242.648 74.0309L270.649 25.5327C297.442 41.1756 319.83 63.5693 335.473 90.3565L335.479 90.3506ZM181.086 43.6612C181.419 43.6612 181.752 43.6612 182.084 43.6612C182.242 43.6612 182.376 43.5328 182.376 43.3753C182.376 43.2119 182.247 43.0836 182.09 43.0777C181.757 43.0777 181.419 43.0777 181.086 43.0777V1.17278C213.294 1.2778 243.53 9.90735 269.646 24.9318L241.645 73.4358C223.773 63.19 203.101 57.2911 181.086 57.1919V43.6612ZM181.086 57.7754C202.996 57.8804 223.563 63.7443 241.353 73.9434L181.086 178.327V57.7754ZM181.086 182.679L241.353 287.062C223.563 297.261 202.996 303.125 181.086 303.23V182.679ZM181.086 359.827V303.814C203.101 303.709 223.767 297.816 241.645 287.57L269.652 336.074C243.535 351.098 213.3 359.728 181.092 359.833L181.086 359.827ZM270.649 335.473L249.732 299.239C250.059 299.047 250.385 298.86 250.712 298.662C250.852 298.58 250.899 298.399 250.811 298.259C250.73 298.119 250.549 298.073 250.409 298.16C250.088 298.353 249.761 298.539 249.434 298.732L242.643 286.969C260.946 276.245 276.245 260.94 286.969 242.643L335.467 270.643C319.824 297.437 297.431 319.824 270.643 335.467L270.649 335.473ZM336.068 269.64L287.564 241.639C297.81 223.767 303.709 203.095 303.808 181.081H317.339C317.339 181.471 317.339 181.857 317.333 182.247C317.333 182.411 317.461 182.539 317.619 182.545C317.776 182.545 317.911 182.417 317.911 182.259C317.911 181.868 317.911 181.477 317.916 181.086H359.821C359.716 213.294 351.087 243.53 336.062 269.646L336.068 269.64Z" fill="#FC0160"/>
<path d="M59.835 115.282C59.8817 115.306 59.9284 115.317 59.9751 115.317C60.0801 115.317 60.1793 115.265 60.2318 115.166C60.5119 114.652 60.7919 114.145 61.0778 113.631C61.1537 113.491 61.107 113.31 60.967 113.234C60.8269 113.153 60.6519 113.205 60.5702 113.345C60.2843 113.859 59.9984 114.372 59.7183 114.886C59.6425 115.026 59.695 115.207 59.835 115.282Z" fill="#FC0160"/>
<path d="M206.601 314.859C206.029 314.97 205.458 315.075 204.886 315.18C204.728 315.209 204.623 315.361 204.652 315.518C204.676 315.658 204.798 315.758 204.938 315.758C204.956 315.758 204.973 315.758 204.991 315.758C205.568 315.653 206.14 315.547 206.718 315.437C206.875 315.407 206.98 315.256 206.951 315.092C206.922 314.935 206.765 314.83 206.607 314.859H206.601Z" fill="#FC0160"/>
<path d="M223.487 49.9277C222.927 49.741 222.372 49.566 221.806 49.3851C221.655 49.3384 221.491 49.4201 221.439 49.5776C221.392 49.7293 221.474 49.8927 221.631 49.9452C222.192 50.1202 222.746 50.3011 223.3 50.482C223.329 50.4937 223.358 50.4995 223.393 50.4995C223.516 50.4995 223.633 50.4237 223.668 50.3011C223.72 50.1494 223.633 49.9802 223.481 49.9335L223.487 49.9277Z" fill="#FC0160"/>
<path d="M211.73 313.762C211.164 313.896 210.598 314.025 210.027 314.147C209.869 314.182 209.77 314.34 209.805 314.497C209.834 314.631 209.957 314.725 210.091 314.725C210.114 314.725 210.132 314.725 210.155 314.719C210.727 314.596 211.299 314.462 211.865 314.334C212.022 314.299 212.121 314.141 212.08 313.984C212.045 313.826 211.894 313.733 211.73 313.768V313.762Z" fill="#FC0160"/>
<path d="M238.214 55.7449C237.683 55.4999 237.146 55.2548 236.609 55.0156C236.463 54.9514 236.288 55.0156 236.224 55.1614C236.16 55.3073 236.224 55.4824 236.37 55.5465C236.901 55.7858 237.438 56.025 237.963 56.2759C238.004 56.2934 238.045 56.305 238.085 56.305C238.196 56.305 238.301 56.2409 238.348 56.1358C238.418 55.99 238.348 55.8149 238.208 55.7508L238.214 55.7449Z" fill="#FC0160"/>
<path d="M242.824 58.604C242.929 58.604 243.034 58.5456 243.086 58.4464C243.162 58.3006 243.104 58.1255 242.958 58.0555C242.438 57.7871 241.913 57.5245 241.388 57.2678C241.242 57.1978 241.067 57.2561 240.997 57.402C240.927 57.5479 240.986 57.7229 241.131 57.7929C241.657 58.0497 242.176 58.3122 242.695 58.5806C242.736 58.604 242.783 58.6098 242.829 58.6098L242.824 58.604Z" fill="#FC0160"/>
<path d="M216.812 312.473C216.252 312.624 215.686 312.776 215.126 312.928C214.968 312.969 214.875 313.126 214.916 313.284C214.951 313.418 215.068 313.5 215.196 313.5C215.219 313.5 215.243 313.5 215.272 313.488C215.838 313.342 216.404 313.19 216.97 313.033C217.127 312.992 217.215 312.829 217.174 312.671C217.133 312.513 216.975 312.426 216.812 312.467V312.473Z" fill="#FC0160"/>
<path d="M233.383 53.6153C232.84 53.3877 232.298 53.166 231.755 52.9501C231.604 52.8918 231.434 52.9618 231.376 53.1135C231.318 53.2652 231.388 53.4344 231.539 53.4927C232.082 53.7086 232.625 53.9303 233.161 54.1579C233.196 54.1754 233.237 54.1812 233.272 54.1812C233.389 54.1812 233.494 54.1112 233.541 54.0004C233.605 53.8545 233.535 53.6794 233.383 53.6211V53.6153Z" fill="#FC0160"/>
<path d="M221.836 310.991C221.281 311.166 220.727 311.341 220.167 311.51C220.015 311.557 219.928 311.72 219.974 311.872C220.015 312 220.126 312.082 220.255 312.082C220.284 312.082 220.313 312.082 220.336 312.07C220.896 311.901 221.457 311.726 222.011 311.551C222.163 311.504 222.25 311.341 222.203 311.183C222.157 311.031 221.993 310.944 221.836 310.991Z" fill="#FC0160"/>
<path d="M226.801 309.31C226.253 309.509 225.704 309.701 225.15 309.894C224.998 309.946 224.917 310.115 224.969 310.267C225.01 310.39 225.127 310.465 225.243 310.465C225.272 310.465 225.307 310.465 225.337 310.448C225.891 310.255 226.439 310.063 226.994 309.864C227.145 309.812 227.221 309.643 227.169 309.491C227.116 309.339 226.947 309.264 226.795 309.316L226.801 309.31Z" fill="#FC0160"/>
<path d="M245.787 60.2085C246.301 60.4885 246.808 60.7686 247.322 61.0545C247.368 61.0778 247.415 61.0895 247.462 61.0895C247.561 61.0895 247.66 61.037 247.718 60.9378C247.794 60.7978 247.748 60.6169 247.608 60.541C247.094 60.2551 246.587 59.9692 246.067 59.6892C245.927 59.6133 245.746 59.6658 245.67 59.8059C245.595 59.9459 245.647 60.1268 245.787 60.2026V60.2085Z" fill="#FC0160"/>
<path d="M173.542 317.753C174.125 317.782 174.709 317.806 175.292 317.829H175.304C175.462 317.829 175.59 317.706 175.596 317.549C175.596 317.385 175.473 317.251 175.316 317.245C174.732 317.222 174.149 317.199 173.571 317.17C173.39 317.152 173.274 317.286 173.268 317.444C173.262 317.607 173.384 317.741 173.542 317.747V317.753Z" fill="#FC0160"/>
<path d="M147.537 313.949C148.103 314.089 148.674 314.223 149.246 314.357C149.27 314.357 149.293 314.363 149.31 314.363C149.445 314.363 149.561 314.27 149.596 314.136C149.631 313.978 149.532 313.821 149.38 313.786C148.814 313.651 148.248 313.517 147.683 313.377C147.519 313.336 147.367 313.435 147.327 313.593C147.286 313.751 147.385 313.908 147.542 313.949H147.537Z" fill="#FC0160"/>
<path d="M185.801 317.245H185.789C185.212 317.269 184.628 317.286 184.051 317.298C183.887 317.298 183.765 317.438 183.765 317.595C183.765 317.753 183.899 317.881 184.056 317.881H184.062C184.646 317.864 185.229 317.846 185.813 317.829C185.976 317.823 186.099 317.689 186.093 317.525C186.087 317.368 185.958 317.245 185.801 317.245Z" fill="#FC0160"/>
<path d="M191.023 316.948C190.445 316.994 189.861 317.029 189.278 317.07C189.115 317.082 188.992 317.216 189.004 317.38C189.015 317.537 189.144 317.654 189.295 317.654C189.295 317.654 189.307 317.654 189.313 317.654C189.896 317.619 190.48 317.578 191.063 317.531C191.227 317.52 191.343 317.38 191.332 317.216C191.32 317.053 191.163 316.924 191.017 316.948H191.023Z" fill="#FC0160"/>
<path d="M152.671 315.11C153.243 315.227 153.814 315.343 154.392 315.454C154.41 315.454 154.427 315.454 154.45 315.454C154.585 315.454 154.707 315.355 154.736 315.215C154.766 315.057 154.666 314.906 154.503 314.871C153.931 314.76 153.359 314.649 152.788 314.532C152.63 314.497 152.472 314.602 152.443 314.76C152.408 314.917 152.513 315.075 152.671 315.104V315.11Z" fill="#FC0160"/>
<path d="M163.058 316.831C163.635 316.907 164.219 316.977 164.802 317.041C164.814 317.041 164.826 317.041 164.837 317.041C164.983 317.041 165.111 316.93 165.129 316.784C165.146 316.627 165.03 316.481 164.872 316.464C164.295 316.399 163.717 316.329 163.139 316.253C162.982 316.23 162.836 316.347 162.813 316.504C162.789 316.662 162.906 316.808 163.063 316.831H163.058Z" fill="#FC0160"/>
<path d="M157.847 316.067C158.425 316.16 159.002 316.253 159.58 316.341C159.597 316.341 159.609 316.341 159.627 316.341C159.767 316.341 159.889 316.236 159.912 316.096C159.936 315.938 159.825 315.787 159.667 315.763C159.09 315.676 158.518 315.583 157.94 315.489C157.783 315.46 157.631 315.571 157.602 315.728C157.579 315.886 157.684 316.038 157.841 316.067H157.847Z" fill="#FC0160"/>
<path d="M168.292 317.391C168.875 317.444 169.459 317.49 170.042 317.537C170.048 317.537 170.06 317.537 170.065 317.537C170.217 317.537 170.346 317.42 170.357 317.269C170.369 317.105 170.246 316.971 170.089 316.954C169.505 316.913 168.928 316.86 168.35 316.814C168.204 316.802 168.047 316.919 168.035 317.076C168.023 317.239 168.14 317.38 168.298 317.391H168.292Z" fill="#FC0160"/>
<path d="M201.438 315.752C200.86 315.839 200.288 315.927 199.711 316.008C199.553 316.032 199.442 316.178 199.46 316.335C199.483 316.481 199.606 316.586 199.746 316.586C199.757 316.586 199.775 316.586 199.787 316.586C200.364 316.504 200.948 316.417 201.525 316.329C201.683 316.306 201.794 316.154 201.77 315.997C201.747 315.839 201.601 315.728 201.438 315.752Z" fill="#FC0160"/>
<path d="M196.245 316.446C195.668 316.51 195.09 316.574 194.507 316.633C194.349 316.65 194.232 316.79 194.244 316.954C194.261 317.105 194.384 317.216 194.536 317.216C194.547 317.216 194.553 317.216 194.565 317.216C195.148 317.158 195.732 317.094 196.309 317.03C196.467 317.012 196.584 316.866 196.566 316.709C196.549 316.545 196.397 316.434 196.245 316.452V316.446Z" fill="#FC0160"/>
<path d="M228.471 51.6781C227.922 51.4739 227.368 51.2697 226.814 51.0713C226.662 51.0188 226.499 51.0946 226.44 51.2463C226.388 51.398 226.464 51.5672 226.615 51.6197C227.164 51.8181 227.712 52.0165 228.261 52.2207C228.296 52.2324 228.331 52.2382 228.36 52.2382C228.477 52.2382 228.588 52.1682 228.634 52.0457C228.693 51.894 228.611 51.7248 228.465 51.6723L228.471 51.6781Z" fill="#FC0160"/>
<path d="M175.088 43.7604C175.088 43.7604 175.094 43.7604 175.1 43.7604C175.677 43.7371 176.261 43.7196 176.844 43.7021C177.007 43.7021 177.13 43.562 177.13 43.4045C177.13 43.247 176.996 43.1186 176.838 43.1186H176.832C176.249 43.1361 175.666 43.1536 175.082 43.1769C174.919 43.1828 174.796 43.317 174.802 43.4803C174.808 43.6379 174.936 43.7604 175.094 43.7604H175.088Z" fill="#FC0160"/>
<path d="M149.101 47.2671C149.101 47.2671 149.147 47.2671 149.165 47.2613C149.731 47.1271 150.303 46.9987 150.869 46.8762C151.026 46.8412 151.125 46.6836 151.09 46.5261C151.055 46.3686 150.898 46.2694 150.74 46.3044C150.169 46.4328 149.597 46.5611 149.031 46.6953C148.873 46.7303 148.774 46.8879 148.815 47.0454C148.844 47.1796 148.967 47.273 149.101 47.273V47.2671Z" fill="#FC0160"/>
<path d="M169.843 44.0638C169.843 44.0638 169.861 44.0638 169.867 44.0638C170.444 44.0171 171.028 43.9763 171.611 43.9413C171.775 43.9296 171.891 43.7896 171.885 43.632C171.874 43.4687 171.74 43.352 171.576 43.3578C170.993 43.3928 170.409 43.4337 169.826 43.4803C169.662 43.492 169.546 43.632 169.557 43.7954C169.569 43.9471 169.697 44.0638 169.849 44.0638H169.843Z" fill="#FC0160"/>
<path d="M159.41 45.2657C159.41 45.2657 159.439 45.2657 159.457 45.2657C160.034 45.1782 160.606 45.0907 161.184 45.009C161.341 44.9857 161.452 44.8398 161.429 44.6823C161.406 44.5247 161.26 44.408 161.096 44.4314C160.519 44.5131 159.935 44.6006 159.363 44.6881C159.206 44.7114 159.095 44.8632 159.118 45.0207C159.142 45.1666 159.264 45.2657 159.404 45.2657H159.41Z" fill="#FC0160"/>
<path d="M164.615 44.5656C164.615 44.5656 164.638 44.5656 164.65 44.5656C165.227 44.5014 165.805 44.4372 166.389 44.3789C166.546 44.3614 166.663 44.2213 166.651 44.058C166.634 43.8946 166.488 43.7837 166.33 43.7954C165.747 43.8537 165.163 43.9179 164.586 43.9879C164.428 44.0054 164.311 44.1513 164.329 44.3089C164.346 44.4547 164.475 44.5656 164.621 44.5656H164.615Z" fill="#FC0160"/>
<path d="M154.235 46.1702C154.235 46.1702 154.27 46.1702 154.293 46.1702C154.865 46.0593 155.437 45.9543 156.009 45.8493C156.166 45.8201 156.271 45.6684 156.242 45.5108C156.213 45.3533 156.061 45.2483 155.904 45.2775C155.326 45.3825 154.754 45.4875 154.177 45.5984C154.019 45.6275 153.914 45.7851 153.943 45.9426C153.973 46.0826 154.095 46.176 154.229 46.176L154.235 46.1702Z" fill="#FC0160"/>
<path d="M218.446 48.3757C217.886 48.2123 217.32 48.0547 216.754 47.903C216.596 47.8622 216.439 47.9556 216.398 48.1073C216.357 48.2648 216.444 48.4223 216.602 48.4632C217.162 48.6149 217.728 48.7724 218.282 48.9358C218.311 48.9416 218.335 48.9475 218.364 48.9475C218.492 48.9475 218.609 48.8658 218.644 48.7374C218.691 48.5799 218.597 48.4223 218.446 48.3757Z" fill="#FC0160"/>
<path d="M197.838 44.1572C197.26 44.0872 196.677 44.0171 196.093 43.9471C195.941 43.9355 195.79 44.0463 195.772 44.2039C195.755 44.3614 195.871 44.5073 196.029 44.5248C196.607 44.5889 197.184 44.659 197.762 44.729C197.774 44.729 197.785 44.729 197.797 44.729C197.943 44.729 198.065 44.624 198.089 44.4723C198.106 44.3147 197.995 44.1689 197.838 44.1455V44.1572Z" fill="#FC0160"/>
<path d="M192.604 43.597C192.021 43.5445 191.437 43.4979 190.854 43.457C190.696 43.4453 190.551 43.5679 190.539 43.7254C190.527 43.8888 190.65 44.0288 190.807 44.0405C191.391 44.0813 191.968 44.128 192.552 44.1805C192.558 44.1805 192.569 44.1805 192.575 44.1805C192.727 44.1805 192.849 44.0638 192.867 43.9121C192.879 43.7546 192.762 43.6087 192.604 43.597Z" fill="#FC0160"/>
<path d="M203.048 44.9156C202.47 44.8223 201.893 44.7289 201.315 44.6414C201.158 44.6181 201.006 44.7289 200.983 44.8865C200.959 45.044 201.07 45.1957 201.228 45.219C201.805 45.3066 202.377 45.3999 202.955 45.4933C202.972 45.4933 202.984 45.4933 203.001 45.4933C203.141 45.4933 203.264 45.3941 203.287 45.2482C203.311 45.0907 203.206 44.939 203.048 44.9156Z" fill="#FC0160"/>
<path d="M236.505 305.395C235.974 305.634 235.443 305.868 234.912 306.101C234.766 306.165 234.696 306.34 234.76 306.486C234.807 306.597 234.918 306.661 235.029 306.661C235.069 306.661 235.104 306.655 235.145 306.638C235.682 306.404 236.213 306.171 236.744 305.932C236.89 305.868 236.954 305.693 236.89 305.547C236.826 305.401 236.651 305.331 236.505 305.401V305.395Z" fill="#FC0160"/>
<path d="M187.353 43.2411C186.769 43.212 186.186 43.1886 185.602 43.1653C185.602 43.1653 185.596 43.1653 185.591 43.1653C185.433 43.1653 185.305 43.2878 185.299 43.4453C185.299 43.6087 185.421 43.7429 185.579 43.7488C186.162 43.7721 186.746 43.7954 187.323 43.8246H187.335C187.493 43.8246 187.621 43.7021 187.627 43.5445C187.633 43.3812 187.51 43.247 187.353 43.2411Z" fill="#FC0160"/>
<path d="M208.224 45.8726C207.652 45.7559 207.08 45.6392 206.502 45.5342C206.345 45.505 206.193 45.61 206.164 45.7676C206.135 45.9251 206.24 46.0768 206.397 46.1118C206.969 46.2227 207.541 46.3335 208.113 46.4502C208.13 46.4502 208.154 46.4561 208.171 46.4561C208.305 46.4561 208.428 46.3627 208.457 46.2227C208.486 46.0651 208.387 45.9076 208.23 45.8784L208.224 45.8726Z" fill="#FC0160"/>
<path d="M231.702 307.443C231.166 307.659 230.623 307.875 230.08 308.085C229.929 308.143 229.859 308.312 229.917 308.464C229.964 308.581 230.074 308.651 230.191 308.651C230.226 308.651 230.261 308.645 230.296 308.633C230.845 308.423 231.387 308.207 231.93 307.986C232.082 307.927 232.152 307.758 232.093 307.606C232.035 307.455 231.86 307.385 231.714 307.443H231.702Z" fill="#FC0160"/>
<path d="M213.358 47.0278C212.792 46.8878 212.22 46.7536 211.648 46.6194C211.491 46.5844 211.333 46.6836 211.298 46.8353C211.263 46.9928 211.362 47.1504 211.514 47.1854C212.08 47.3196 212.652 47.4538 213.212 47.588C213.235 47.5938 213.259 47.5938 213.282 47.5938C213.416 47.5938 213.533 47.5063 213.568 47.3721C213.609 47.2146 213.509 47.057 213.352 47.022L213.358 47.0278Z" fill="#FC0160"/>
<path d="M244.469 302.128C244.516 302.128 244.562 302.116 244.603 302.093C245.117 301.818 245.63 301.544 246.143 301.264C246.283 301.188 246.336 301.007 246.26 300.867C246.184 300.727 246.003 300.675 245.863 300.751C245.356 301.031 244.842 301.305 244.329 301.573C244.189 301.649 244.13 301.824 244.206 301.97C244.259 302.069 244.358 302.128 244.463 302.128H244.469Z" fill="#FC0160"/>
<path d="M133.994 51.7423C134.029 51.7423 134.058 51.7423 134.093 51.7248C134.642 51.5264 135.19 51.3339 135.739 51.1413C135.89 51.0888 135.972 50.9196 135.919 50.7679C135.867 50.6162 135.703 50.5345 135.546 50.587C134.992 50.7796 134.443 50.9721 133.889 51.1705C133.737 51.223 133.661 51.3922 133.714 51.5439C133.755 51.6606 133.871 51.7365 133.988 51.7365L133.994 51.7423Z" fill="#FC0160"/>
<path d="M129.094 53.621C129.129 53.621 129.169 53.6152 129.204 53.5977C129.741 53.3818 130.284 53.1659 130.826 52.9501C130.978 52.8917 131.048 52.7225 130.99 52.5708C130.931 52.4191 130.762 52.3432 130.611 52.4074C130.068 52.6175 129.519 52.8334 128.983 53.0551C128.831 53.1134 128.761 53.2885 128.819 53.4343C128.866 53.5452 128.977 53.6152 129.088 53.6152L129.094 53.621Z" fill="#FC0160"/>
<path d="M241.231 303.166C240.711 303.423 240.192 303.68 239.667 303.931C239.521 304.001 239.463 304.176 239.527 304.322C239.579 304.427 239.679 304.485 239.789 304.485C239.83 304.485 239.877 304.473 239.918 304.456C240.443 304.205 240.968 303.948 241.487 303.691C241.633 303.621 241.692 303.446 241.622 303.3C241.552 303.155 241.376 303.096 241.231 303.166Z" fill="#FC0160"/>
<path d="M124.28 55.6749C124.32 55.6749 124.361 55.6691 124.402 55.6516C124.933 55.4123 125.464 55.179 125.995 54.9456C126.141 54.8814 126.211 54.7122 126.147 54.5605C126.083 54.4146 125.907 54.3446 125.762 54.4088C125.225 54.6422 124.694 54.8756 124.163 55.1148C124.017 55.179 123.953 55.354 124.017 55.4999C124.064 55.6107 124.175 55.6691 124.285 55.6691L124.28 55.6749Z" fill="#FC0160"/>
<path d="M138.971 50.0561C138.971 50.0561 139.03 50.0561 139.059 50.0444C139.613 49.8694 140.167 49.6943 140.728 49.5251C140.879 49.4784 140.967 49.3151 140.92 49.1634C140.873 49.0117 140.716 48.9241 140.558 48.9708C139.998 49.14 139.438 49.3151 138.884 49.4901C138.732 49.5368 138.645 49.7002 138.691 49.8577C138.732 49.9802 138.843 50.0619 138.971 50.0619V50.0561Z" fill="#FC0160"/>
<path d="M144.007 48.5624C144.007 48.5624 144.059 48.5624 144.083 48.5507C144.643 48.3931 145.209 48.2473 145.769 48.0956C145.926 48.0547 146.02 47.8972 145.979 47.7397C145.938 47.5821 145.781 47.4888 145.623 47.5296C145.057 47.6755 144.491 47.8272 143.925 47.9847C143.768 48.0256 143.68 48.1889 143.721 48.3406C143.756 48.469 143.873 48.5565 144.001 48.5565L144.007 48.5624Z" fill="#FC0160"/>
<path d="M119.541 57.9154C119.588 57.9154 119.629 57.9038 119.669 57.8863C120.189 57.6295 120.708 57.3728 121.233 57.1219C121.379 57.0519 121.437 56.8769 121.367 56.731C121.297 56.5851 121.122 56.5268 120.976 56.5968C120.451 56.8477 119.926 57.1044 119.407 57.367C119.261 57.437 119.203 57.612 119.273 57.7579C119.325 57.8629 119.424 57.9213 119.535 57.9213L119.541 57.9154Z" fill="#FC0160"/>
<path d="M114.64 60.1851C114.693 60.2843 114.792 60.3368 114.897 60.3368C114.944 60.3368 114.99 60.3252 115.037 60.3018C115.545 60.0218 116.058 59.7475 116.572 59.4791C116.712 59.4033 116.77 59.2282 116.694 59.0824C116.618 58.9423 116.443 58.884 116.297 58.9598C115.784 59.2341 115.27 59.5083 114.757 59.7884C114.617 59.8642 114.564 60.0451 114.64 60.1851Z" fill="#FC0160"/>
<path d="M282.611 271.606C282.22 272.038 281.835 272.476 281.438 272.902C281.327 273.018 281.339 273.205 281.456 273.316C281.514 273.368 281.584 273.392 281.654 273.392C281.73 273.392 281.812 273.363 281.87 273.298C282.267 272.867 282.658 272.435 283.049 271.997C283.154 271.875 283.148 271.694 283.025 271.583C282.903 271.472 282.722 271.484 282.611 271.606Z" fill="#FC0160"/>
<path d="M69.0836 100.03C68.7393 100.503 68.4009 100.982 68.0625 101.46C67.9692 101.594 68.0042 101.775 68.1325 101.868C68.185 101.903 68.2434 101.921 68.3017 101.921C68.3951 101.921 68.4826 101.88 68.541 101.798C68.8794 101.32 69.2178 100.847 69.5562 100.375C69.6496 100.246 69.6204 100.06 69.492 99.9663C69.3637 99.8729 69.1769 99.9021 69.0836 100.03Z" fill="#FC0160"/>
<path d="M66.0783 104.36C65.7515 104.85 65.4306 105.334 65.1097 105.83C65.0222 105.964 65.063 106.145 65.1972 106.233C65.2439 106.262 65.3023 106.279 65.3548 106.279C65.4481 106.279 65.5415 106.233 65.5998 106.145C65.9149 105.655 66.2358 105.171 66.5626 104.681C66.6501 104.547 66.6151 104.366 66.4809 104.278C66.3467 104.191 66.1658 104.226 66.0783 104.36Z" fill="#FC0160"/>
<path d="M78.1034 89.5747C78.1851 89.5747 78.2609 89.5397 78.3193 89.4755C78.7043 89.0379 79.0953 88.6061 79.492 88.1802C79.6029 88.0635 79.5912 87.8768 79.4745 87.7659C79.3578 87.655 79.1711 87.6667 79.0603 87.7834C78.6635 88.2152 78.2726 88.6469 77.8875 89.0845C77.7825 89.2071 77.7883 89.3879 77.9108 89.4988C77.9692 89.5513 78.0334 89.5747 78.1034 89.5747Z" fill="#FC0160"/>
<path d="M92.0721 284.939C91.9496 284.834 91.7629 284.851 91.6578 284.974C91.5528 285.096 91.5703 285.283 91.6928 285.388C92.1421 285.767 92.5856 286.141 93.0407 286.514C93.0932 286.561 93.1632 286.578 93.2274 286.578C93.3091 286.578 93.3966 286.543 93.4549 286.473C93.5599 286.351 93.5424 286.164 93.4141 286.065C92.9648 285.691 92.5155 285.318 92.0721 284.944V284.939Z" fill="#FC0160"/>
<path d="M74.6779 93.5598C74.7595 93.5598 74.8471 93.5248 74.9054 93.4548C75.2788 93.0055 75.6523 92.5562 76.0257 92.1128C76.1307 91.9902 76.1132 91.8035 75.9907 91.7043C75.8681 91.5993 75.6873 91.6168 75.5764 91.7393C75.1971 92.1886 74.8237 92.6379 74.4503 93.0872C74.3453 93.2097 74.3628 93.3964 74.4911 93.4956C74.5437 93.5423 74.6137 93.5598 74.6779 93.5598Z" fill="#FC0160"/>
<path d="M63.6394 108.701C63.5052 108.619 63.3243 108.66 63.2368 108.8C62.9334 109.302 62.63 109.804 62.3265 110.305C62.2449 110.445 62.2915 110.62 62.4257 110.708C62.4724 110.737 62.5249 110.749 62.5774 110.749C62.6766 110.749 62.7758 110.696 62.8283 110.609C63.1259 110.107 63.4293 109.605 63.7327 109.109C63.8144 108.969 63.7736 108.794 63.6335 108.707L63.6394 108.701Z" fill="#FC0160"/>
<path d="M96.1383 288.253C96.0099 288.153 95.829 288.177 95.7298 288.299C95.6306 288.428 95.654 288.609 95.7765 288.708C96.2375 289.07 96.6984 289.425 97.1652 289.781C97.2177 289.822 97.2819 289.84 97.3402 289.84C97.4277 289.84 97.5153 289.799 97.5736 289.723C97.6728 289.595 97.6436 289.414 97.5211 289.315C97.0602 288.959 96.5992 288.603 96.1383 288.247V288.253Z" fill="#FC0160"/>
<path d="M100.327 291.409C100.199 291.316 100.018 291.345 99.919 291.474C99.8256 291.602 99.8548 291.789 99.9832 291.882C100.456 292.226 100.934 292.565 101.413 292.903C101.465 292.938 101.524 292.956 101.582 292.956C101.675 292.956 101.763 292.915 101.821 292.833C101.914 292.699 101.885 292.518 101.751 292.425C101.273 292.086 100.8 291.748 100.327 291.409Z" fill="#FC0160"/>
<path d="M110.556 298.143C110.055 297.845 109.559 297.542 109.057 297.238C108.917 297.151 108.742 297.197 108.654 297.332C108.573 297.472 108.613 297.647 108.748 297.734C109.249 298.043 109.745 298.341 110.253 298.644C110.3 298.674 110.352 298.685 110.399 298.685C110.498 298.685 110.597 298.633 110.65 298.545C110.731 298.405 110.685 298.23 110.551 298.143H110.556Z" fill="#FC0160"/>
<path d="M106.099 295.371C105.609 295.056 105.124 294.735 104.634 294.408C104.5 294.321 104.319 294.356 104.232 294.49C104.144 294.624 104.179 294.805 104.313 294.893C104.798 295.219 105.288 295.54 105.784 295.861C105.83 295.89 105.889 295.908 105.941 295.908C106.035 295.908 106.128 295.861 106.186 295.774C106.274 295.639 106.233 295.459 106.099 295.371Z" fill="#FC0160"/>
<path d="M72.2514 95.8236C71.8897 96.2845 71.5338 96.7455 71.1778 97.2123C71.0787 97.3406 71.1078 97.5215 71.2304 97.6207C71.2829 97.6615 71.3471 97.679 71.4054 97.679C71.4929 97.679 71.5804 97.6382 71.6388 97.5624C71.9947 97.1014 72.3506 96.6405 72.7065 96.1795C72.8057 96.0512 72.7824 95.8703 72.6599 95.7711C72.5315 95.6719 72.3506 95.6952 72.2514 95.8236Z" fill="#FC0160"/>
<path d="M272.785 79.4514C272.844 79.5039 272.914 79.5272 272.984 79.5272C273.065 79.5272 273.141 79.498 273.2 79.4339C273.31 79.3172 273.299 79.1305 273.182 79.0196C272.75 78.6228 272.318 78.2319 271.881 77.841C271.758 77.736 271.577 77.7418 271.467 77.8643C271.362 77.9868 271.367 78.1677 271.49 78.2786C271.928 78.6637 272.359 79.0546 272.785 79.4514Z" fill="#FC0160"/>
<path d="M105.895 65.7048C105.947 65.7048 106.006 65.6873 106.052 65.6581C106.537 65.343 107.027 65.028 107.523 64.7187C107.657 64.6312 107.698 64.4503 107.616 64.3161C107.529 64.1819 107.348 64.1411 107.213 64.2228C106.723 64.532 106.227 64.8471 105.737 65.168C105.603 65.2555 105.562 65.4364 105.65 65.5706C105.708 65.6581 105.801 65.7048 105.895 65.7048Z" fill="#FC0160"/>
<path d="M276.583 83.063C276.641 83.1214 276.711 83.1447 276.787 83.1447C276.863 83.1447 276.939 83.1155 276.997 83.0572C277.108 82.9405 277.108 82.7596 276.997 82.6429C276.583 82.2345 276.163 81.8261 275.743 81.4176C275.626 81.3068 275.445 81.3068 275.329 81.4235C275.218 81.5402 275.218 81.7269 275.334 81.8377C275.754 82.2403 276.169 82.6488 276.583 83.0572V83.063Z" fill="#FC0160"/>
<path d="M280.242 86.809C280.3 86.8673 280.376 86.9023 280.452 86.9023C280.522 86.9023 280.598 86.879 280.65 86.8206C280.767 86.7098 280.773 86.5231 280.662 86.4064C280.259 85.9804 279.857 85.5545 279.454 85.1344C279.343 85.0177 279.156 85.0177 279.04 85.1286C278.923 85.2394 278.917 85.4261 279.034 85.5428C279.436 85.9629 279.839 86.383 280.236 86.809H280.242Z" fill="#FC0160"/>
<path d="M101.553 68.6455C101.612 68.6455 101.67 68.628 101.723 68.593C102.195 68.2604 102.674 67.9278 103.158 67.5953C103.292 67.5019 103.327 67.321 103.234 67.1927C103.14 67.0585 102.96 67.0235 102.825 67.1168C102.341 67.4494 101.863 67.782 101.39 68.1145C101.256 68.2079 101.227 68.3888 101.32 68.523C101.378 68.6047 101.466 68.6455 101.559 68.6455H101.553Z" fill="#FC0160"/>
<path d="M85.3845 82.007C85.4546 82.007 85.5304 81.9778 85.5888 81.9253C86.0089 81.5227 86.429 81.1201 86.8549 80.7233C86.9716 80.6125 86.9774 80.4258 86.8666 80.3091C86.7557 80.1924 86.569 80.1865 86.4523 80.2974C86.0264 80.7 85.6004 81.1026 85.1803 81.5052C85.0636 81.616 85.0578 81.8028 85.1745 81.9194C85.2328 81.9778 85.3087 82.007 85.3845 82.007Z" fill="#FC0160"/>
<path d="M81.6685 85.7178C81.7443 85.7178 81.8202 85.6887 81.8785 85.6303C82.2811 85.2102 82.6895 84.7959 83.098 84.3817C83.2088 84.265 83.2088 84.0841 83.098 83.9674C82.9813 83.8566 82.8004 83.8566 82.6837 83.9674C82.2694 84.3817 81.8668 84.8018 81.4584 85.2219C81.3475 85.3386 81.3475 85.5253 81.4642 85.6362C81.5226 85.6887 81.5926 85.7178 81.6685 85.7178Z" fill="#FC0160"/>
<path d="M89.2362 78.4362C89.3062 78.4362 89.3762 78.4128 89.4288 78.3603C89.8605 77.9752 90.2981 77.5902 90.7416 77.2051C90.8641 77.1 90.8758 76.9133 90.7707 76.7908C90.6657 76.6683 90.479 76.6566 90.3623 76.7616C89.9189 77.1467 89.4813 77.5318 89.0495 77.9227C88.927 78.0278 88.9211 78.2145 89.0262 78.337C89.0845 78.4012 89.1662 78.4362 89.242 78.4362H89.2362Z" fill="#FC0160"/>
<path d="M93.2156 75.017C93.2797 75.017 93.3498 74.9936 93.4023 74.9528C93.8516 74.5852 94.3008 74.2118 94.7559 73.85C94.8785 73.7508 94.9018 73.5641 94.8026 73.4416C94.7034 73.3132 94.5167 73.2957 94.3942 73.3949C93.9391 73.7625 93.484 74.1301 93.0347 74.5035C92.9122 74.6085 92.8947 74.7894 92.9938 74.912C93.0522 74.982 93.1339 75.017 93.2214 75.017H93.2156Z" fill="#FC0160"/>
<path d="M97.3231 71.7495C97.3873 71.7495 97.4457 71.732 97.4982 71.6912C97.9591 71.3353 98.4259 70.9852 98.8927 70.6409C99.0211 70.5417 99.0502 70.3609 98.951 70.2325C98.8518 70.1041 98.671 70.075 98.5426 70.1742C98.0758 70.5242 97.6091 70.8743 97.1423 71.2302C97.0139 71.3294 96.9906 71.5103 97.0898 71.6387C97.1481 71.7145 97.2356 71.7554 97.3231 71.7554V71.7495Z" fill="#FC0160"/>
<path d="M283.761 90.6949C283.819 90.7591 283.901 90.7941 283.982 90.7941C284.052 90.7941 284.116 90.7708 284.175 90.7241C284.297 90.6191 284.309 90.4324 284.204 90.3098C283.819 89.8664 283.434 89.4288 283.043 88.997C282.938 88.8745 282.751 88.8686 282.629 88.9737C282.506 89.0787 282.5 89.2654 282.605 89.3879C282.996 89.8197 283.375 90.2573 283.761 90.6949Z" fill="#FC0160"/>
<path d="M279.045 275.451C278.642 275.871 278.234 276.286 277.825 276.7C277.714 276.817 277.714 276.997 277.825 277.114C277.884 277.173 277.954 277.196 278.03 277.196C278.105 277.196 278.181 277.167 278.24 277.108C278.654 276.694 279.056 276.274 279.465 275.854C279.576 275.737 279.576 275.55 279.459 275.44C279.342 275.329 279.161 275.329 279.045 275.445V275.451Z" fill="#FC0160"/>
<path d="M275.335 279.151C274.915 279.553 274.495 279.956 274.069 280.353C273.952 280.463 273.946 280.65 274.057 280.767C274.116 280.831 274.191 280.86 274.273 280.86C274.343 280.86 274.419 280.831 274.471 280.784C274.897 280.382 275.323 279.979 275.743 279.577C275.86 279.466 275.866 279.279 275.749 279.162C275.638 279.046 275.452 279.046 275.335 279.156V279.151Z" fill="#FC0160"/>
<path d="M271.49 282.716C271.058 283.101 270.62 283.486 270.177 283.871C270.054 283.976 270.043 284.163 270.148 284.285C270.206 284.349 270.288 284.384 270.369 284.384C270.439 284.384 270.504 284.361 270.562 284.314C271.005 283.929 271.443 283.544 271.881 283.153C272.003 283.048 272.009 282.861 271.904 282.739C271.799 282.616 271.612 282.611 271.49 282.716Z" fill="#FC0160"/>
<path d="M267.516 286.123C267.067 286.491 266.617 286.858 266.162 287.226C266.04 287.325 266.016 287.512 266.116 287.634C266.174 287.704 266.256 287.745 266.343 287.745C266.407 287.745 266.471 287.722 266.524 287.681C266.979 287.313 267.434 286.946 267.883 286.572C268.006 286.467 268.024 286.286 267.924 286.164C267.819 286.041 267.638 286.024 267.516 286.123Z" fill="#FC0160"/>
<path d="M286.03 267.627C285.657 268.076 285.283 268.525 284.91 268.969C284.805 269.091 284.822 269.278 284.945 269.377C284.997 269.424 285.067 269.447 285.132 269.447C285.213 269.447 285.295 269.412 285.353 269.342C285.732 268.899 286.106 268.45 286.479 267.995C286.584 267.872 286.567 267.685 286.438 267.586C286.316 267.487 286.129 267.499 286.03 267.627Z" fill="#FC0160"/>
<path d="M294.619 256.862C294.713 256.862 294.806 256.815 294.864 256.734C295.191 256.249 295.512 255.759 295.833 255.269C295.92 255.135 295.88 254.954 295.745 254.866C295.611 254.779 295.43 254.814 295.343 254.954C295.028 255.444 294.707 255.928 294.38 256.413C294.293 256.547 294.328 256.728 294.462 256.815C294.514 256.85 294.567 256.862 294.625 256.862H294.619Z" fill="#FC0160"/>
<path d="M263.414 289.379C262.954 289.729 262.487 290.079 262.02 290.429C261.892 290.522 261.862 290.709 261.962 290.838C262.02 290.913 262.107 290.954 262.195 290.954C262.253 290.954 262.318 290.937 262.37 290.896C262.837 290.546 263.304 290.196 263.77 289.84C263.899 289.741 263.922 289.56 263.823 289.431C263.724 289.303 263.543 289.28 263.414 289.379Z" fill="#FC0160"/>
<path d="M291.613 261.18C291.701 261.18 291.794 261.139 291.847 261.057C292.191 260.584 292.529 260.106 292.868 259.628C292.961 259.493 292.932 259.313 292.798 259.219C292.664 259.126 292.483 259.155 292.389 259.289C292.051 259.768 291.712 260.24 291.374 260.713C291.281 260.841 291.31 261.028 291.438 261.121C291.491 261.156 291.549 261.18 291.607 261.18H291.613Z" fill="#FC0160"/>
<path d="M288.452 265.381C288.539 265.381 288.621 265.34 288.679 265.27C289.041 264.809 289.397 264.348 289.753 263.881C289.852 263.753 289.829 263.572 289.7 263.473C289.572 263.374 289.391 263.397 289.292 263.525C288.936 263.986 288.58 264.447 288.224 264.908C288.125 265.036 288.148 265.217 288.271 265.316C288.323 265.357 288.387 265.381 288.452 265.381Z" fill="#FC0160"/>
<path d="M77.1701 270.223C77.0651 270.101 76.8784 270.089 76.7559 270.194C76.6334 270.299 76.6217 270.486 76.7267 270.609C77.1118 271.052 77.4969 271.49 77.8878 271.927C77.9462 271.991 78.0278 272.026 78.1037 272.026C78.1737 272.026 78.2437 272.003 78.2962 271.95C78.4188 271.845 78.4246 271.659 78.3196 271.536C77.9345 271.104 77.5494 270.667 77.1643 270.223H77.1701Z" fill="#FC0160"/>
<path d="M73.809 266.203C73.7098 266.075 73.5231 266.057 73.4005 266.157C73.278 266.256 73.2547 266.442 73.3539 266.565C73.7214 267.02 74.089 267.475 74.4625 267.925C74.5208 267.995 74.6025 268.03 74.69 268.03C74.7542 268.03 74.8184 268.006 74.8767 267.965C74.9993 267.86 75.0168 267.679 74.9176 267.557C74.55 267.108 74.1824 266.658 73.8148 266.203H73.809Z" fill="#FC0160"/>
<path d="M70.6061 262.061C70.507 261.932 70.3261 261.903 70.1977 262.002C70.0694 262.096 70.0402 262.282 70.1394 262.411C70.4895 262.877 70.8395 263.344 71.1955 263.811C71.2538 263.887 71.3413 263.928 71.4288 263.928C71.493 263.928 71.5514 263.91 71.6039 263.869C71.7322 263.77 71.7556 263.589 71.6564 263.461C71.3005 263 70.9562 262.533 70.6061 262.066V262.061Z" fill="#FC0160"/>
<path d="M64.6893 253.431C64.6018 253.291 64.4209 253.256 64.2867 253.338C64.1525 253.425 64.1117 253.606 64.1934 253.74C64.5026 254.236 64.8177 254.726 65.1386 255.216C65.1969 255.304 65.2903 255.351 65.3836 255.351C65.4362 255.351 65.4945 255.333 65.5412 255.304C65.6754 255.216 65.7162 255.036 65.6287 254.901C65.3136 254.417 64.9986 253.927 64.6893 253.431Z" fill="#FC0160"/>
<path d="M67.566 257.801C67.4726 257.667 67.2918 257.632 67.1576 257.725C67.0234 257.819 66.9884 258 67.0817 258.134C67.4143 258.612 67.7469 259.097 68.0795 259.569C68.1378 259.651 68.2253 259.692 68.3187 259.692C68.377 259.692 68.4354 259.674 68.4879 259.639C68.6221 259.546 68.6513 259.365 68.5579 259.231C68.2253 258.758 67.8927 258.28 67.5602 257.795L67.566 257.801Z" fill="#FC0160"/>
<path d="M254.855 295.4C254.37 295.715 253.88 296.03 253.384 296.34C253.25 296.427 253.209 296.608 253.291 296.742C253.344 296.83 253.443 296.876 253.536 296.876C253.589 296.876 253.641 296.865 253.694 296.83C254.19 296.52 254.68 296.205 255.17 295.884C255.304 295.797 255.345 295.616 255.257 295.482C255.17 295.348 254.989 295.313 254.855 295.394V295.4Z" fill="#FC0160"/>
<path d="M259.19 292.471C258.717 292.804 258.239 293.136 257.754 293.469C257.62 293.562 257.585 293.743 257.678 293.872C257.737 293.953 257.824 294 257.918 294C257.976 294 258.034 293.982 258.081 293.947C258.565 293.615 259.044 293.282 259.522 292.95C259.656 292.856 259.686 292.675 259.592 292.541C259.499 292.407 259.318 292.378 259.184 292.471H259.19Z" fill="#FC0160"/>
<path d="M88.1387 281.473C88.022 281.362 87.8353 281.374 87.7244 281.49C87.6135 281.607 87.6252 281.794 87.7419 281.905C88.1737 282.301 88.6054 282.692 89.043 283.083C89.1014 283.13 89.1656 283.159 89.2356 283.159C89.3173 283.159 89.3931 283.124 89.4515 283.06C89.5565 282.937 89.5507 282.756 89.4281 282.646C88.9905 282.255 88.5588 281.87 88.1328 281.473H88.1387Z" fill="#FC0160"/>
<path d="M80.6823 274.109C80.5715 273.993 80.3847 273.987 80.2681 274.098C80.1514 274.209 80.1455 274.389 80.2564 274.512C80.659 274.938 81.0616 275.364 81.4642 275.784C81.5225 275.842 81.5984 275.871 81.6742 275.871C81.7501 275.871 81.8201 275.842 81.8784 275.79C81.9951 275.679 82.001 275.492 81.8843 275.375C81.4817 274.955 81.0791 274.535 80.6823 274.109Z" fill="#FC0160"/>
<path d="M84.3412 277.861C84.2245 277.75 84.0436 277.75 83.9269 277.861C83.816 277.978 83.816 278.159 83.9269 278.275C84.3412 278.69 84.7613 279.092 85.1814 279.501C85.2397 279.553 85.3097 279.582 85.3856 279.582C85.4614 279.582 85.5373 279.553 85.5956 279.495C85.7065 279.378 85.7065 279.191 85.5898 279.081C85.1697 278.678 84.7554 278.27 84.3412 277.861Z" fill="#FC0160"/>
<path d="M117.82 302.507C117.745 302.653 117.803 302.828 117.949 302.898C118.468 303.166 118.993 303.429 119.518 303.691C119.559 303.715 119.606 303.72 119.647 303.72C119.752 303.72 119.857 303.662 119.909 303.557C119.979 303.411 119.921 303.236 119.775 303.166C119.25 302.909 118.731 302.647 118.211 302.378C118.071 302.308 117.89 302.361 117.82 302.507Z" fill="#FC0160"/>
<path d="M287.121 94.715C287.179 94.7851 287.261 94.8259 287.349 94.8259C287.413 94.8259 287.477 94.8026 287.529 94.7617C287.652 94.6625 287.675 94.4758 287.576 94.3533C287.209 93.8982 286.841 93.4431 286.468 92.9938C286.363 92.8713 286.182 92.8538 286.059 92.953C285.937 93.058 285.919 93.2389 286.018 93.3614C286.392 93.8107 286.759 94.2599 287.121 94.715Z" fill="#FC0160"/>
<path d="M132.43 309.287C132.979 309.491 133.533 309.695 134.082 309.894C134.117 309.905 134.146 309.911 134.181 309.911C134.303 309.911 134.414 309.835 134.455 309.719C134.508 309.567 134.432 309.398 134.28 309.345C133.732 309.147 133.183 308.949 132.635 308.744C132.483 308.686 132.314 308.768 132.261 308.914C132.203 309.065 132.285 309.234 132.43 309.287Z" fill="#FC0160"/>
<path d="M127.518 307.344C128.061 307.571 128.604 307.793 129.146 308.015C129.181 308.027 129.216 308.038 129.257 308.038C129.374 308.038 129.485 307.968 129.525 307.857C129.584 307.706 129.514 307.536 129.362 307.478C128.819 307.262 128.277 307.041 127.74 306.813C127.588 306.749 127.419 306.819 127.361 306.97C127.297 307.116 127.367 307.291 127.518 307.35V307.344Z" fill="#FC0160"/>
<path d="M137.413 311.037C137.967 311.224 138.527 311.399 139.088 311.58C139.117 311.592 139.146 311.592 139.175 311.592C139.298 311.592 139.414 311.51 139.455 311.387C139.502 311.236 139.42 311.072 139.263 311.02C138.702 310.845 138.148 310.664 137.594 310.483C137.442 310.43 137.279 310.512 137.226 310.67C137.174 310.821 137.261 310.985 137.413 311.037Z" fill="#FC0160"/>
<path d="M122.687 305.214C123.218 305.459 123.755 305.704 124.286 305.943C124.327 305.961 124.367 305.967 124.408 305.967C124.519 305.967 124.624 305.903 124.677 305.792C124.741 305.646 124.677 305.471 124.531 305.407C124 305.167 123.463 304.922 122.938 304.677C122.792 304.607 122.617 304.677 122.553 304.817C122.483 304.963 122.553 305.138 122.693 305.203L122.687 305.214Z" fill="#FC0160"/>
<path d="M142.449 312.595C143.009 312.759 143.575 312.916 144.141 313.068C144.164 313.074 144.193 313.079 144.217 313.079C144.345 313.079 144.462 312.992 144.497 312.864C144.538 312.706 144.45 312.548 144.293 312.508C143.732 312.356 143.172 312.198 142.612 312.035C142.455 311.988 142.297 312.082 142.25 312.233C142.204 312.391 142.297 312.548 142.449 312.595Z" fill="#FC0160"/>
<path d="M115.119 300.745C114.606 300.465 114.098 300.185 113.585 299.899C113.445 299.817 113.264 299.87 113.188 300.01C113.106 300.15 113.159 300.331 113.299 300.406C113.812 300.692 114.32 300.978 114.839 301.258C114.886 301.282 114.933 301.293 114.979 301.293C115.084 301.293 115.184 301.241 115.236 301.142C115.312 301.002 115.259 300.821 115.119 300.745Z" fill="#FC0160"/>
<path d="M264.779 72.6773C264.832 72.7181 264.896 72.7415 264.96 72.7415C265.048 72.7415 265.129 72.7006 265.188 72.6306C265.287 72.5023 265.263 72.3214 265.135 72.2222C264.674 71.8604 264.213 71.5045 263.746 71.1486C263.618 71.0494 263.437 71.0727 263.338 71.2011C263.239 71.3295 263.268 71.5103 263.391 71.6095C263.851 71.9655 264.312 72.3214 264.773 72.6773H264.779Z" fill="#FC0160"/>
<path d="M254.813 65.5706C255.304 65.8856 255.788 66.2066 256.278 66.5333C256.331 66.5683 256.383 66.58 256.441 66.58C256.535 66.58 256.628 66.5333 256.686 66.4516C256.774 66.3174 256.739 66.1365 256.605 66.049C256.115 65.7223 255.63 65.4014 255.134 65.0863C255 64.9988 254.819 65.0396 254.732 65.1738C254.644 65.308 254.685 65.4889 254.819 65.5764L254.813 65.5706Z" fill="#FC0160"/>
<path d="M260.585 69.5265C260.637 69.5615 260.695 69.579 260.754 69.579C260.841 69.579 260.935 69.5382 260.993 69.4565C261.086 69.3282 261.057 69.1414 260.929 69.0481C260.456 68.7038 259.978 68.3654 259.499 68.027C259.365 67.9337 259.184 67.9628 259.091 68.097C258.997 68.2312 259.032 68.4121 259.161 68.5055C259.639 68.8439 260.112 69.1823 260.585 69.5207V69.5265Z" fill="#FC0160"/>
<path d="M250.351 62.8049C250.852 63.1025 251.354 63.4059 251.85 63.7093C251.897 63.7385 251.949 63.7502 252.002 63.7502C252.101 63.7502 252.194 63.7035 252.253 63.6101C252.334 63.4701 252.293 63.2951 252.153 63.2075C251.652 62.9041 251.15 62.6007 250.648 62.2973C250.508 62.2156 250.333 62.2623 250.245 62.3965C250.164 62.5365 250.21 62.7116 250.345 62.7933L250.351 62.8049Z" fill="#FC0160"/>
<path d="M290.329 98.8518C290.388 98.9276 290.475 98.9685 290.563 98.9685C290.621 98.9685 290.685 98.951 290.738 98.9101C290.866 98.811 290.895 98.6301 290.796 98.5017C290.446 98.0349 290.096 97.5682 289.74 97.1014C289.641 96.973 289.46 96.9497 289.332 97.0489C289.203 97.1481 289.18 97.3289 289.279 97.4573C289.635 97.9182 289.985 98.385 290.329 98.8518Z" fill="#FC0160"/>
<path d="M268.847 75.9914C268.899 76.0381 268.969 76.0614 269.034 76.0614C269.115 76.0614 269.197 76.0264 269.255 75.9564C269.36 75.8339 269.343 75.6472 269.22 75.548C268.777 75.1687 268.328 74.7953 267.872 74.4219C267.75 74.3227 267.563 74.3344 267.464 74.4627C267.359 74.5853 267.376 74.772 267.505 74.8712C267.954 75.2446 268.403 75.618 268.847 75.9914Z" fill="#FC0160"/>
<path d="M293.375 103.111C293.434 103.193 293.521 103.24 293.615 103.24C293.673 103.24 293.731 103.222 293.778 103.187C293.912 103.094 293.947 102.913 293.854 102.784C293.521 102.3 293.189 101.822 292.85 101.349C292.757 101.215 292.576 101.186 292.442 101.279C292.308 101.372 292.278 101.553 292.372 101.688C292.704 102.16 293.037 102.639 293.369 103.117L293.375 103.111Z" fill="#FC0160"/>
<g style="mix-blend-mode:screen">
<ellipse cx="181" cy="180" rx="49" ry="12" fill="url(#paint0_radial_864_3958)"/>
</g>
<g style="mix-blend-mode:screen">
<ellipse cx="181" cy="180" rx="49" ry="12" transform="rotate(90 181 180)" fill="url(#paint1_radial_864_3958)"/>
</g>
<g opacity="0.9">
<g style="mix-blend-mode:screen">
<ellipse cx="119.22" cy="287.22" rx="11" ry="3" transform="rotate(33.0719 119.22 287.22)" fill="url(#paint2_radial_864_3958)"/>
</g>
<g style="mix-blend-mode:screen">
<ellipse cx="119.22" cy="287.22" rx="11" ry="3" transform="rotate(123.072 119.22 287.22)" fill="url(#paint3_radial_864_3958)"/>
</g>
</g>
<g opacity="0.9">
<g style="mix-blend-mode:screen">
<ellipse cx="180.556" cy="303.556" rx="11" ry="3" transform="rotate(45.2361 180.556 303.556)" fill="url(#paint4_radial_864_3958)"/>
</g>
<g style="mix-blend-mode:screen">
<ellipse cx="180.556" cy="303.556" rx="11" ry="3" transform="rotate(135.236 180.556 303.556)" fill="url(#paint5_radial_864_3958)"/>
</g>
</g>
<g opacity="0.9">
<g style="mix-blend-mode:screen">
<ellipse cx="180.556" cy="57.5562" rx="11" ry="3" transform="rotate(45.2361 180.556 57.5562)" fill="url(#paint6_radial_864_3958)"/>
</g>
<g style="mix-blend-mode:screen">
<ellipse cx="180.556" cy="57.5562" rx="11" ry="3" transform="rotate(135.236 180.556 57.5562)" fill="url(#paint7_radial_864_3958)"/>
</g>
</g>
<g opacity="0.9">
<g style="mix-blend-mode:screen">
<ellipse cx="241.56" cy="286.56" rx="11" ry="3" transform="rotate(-2.99455 241.56 286.56)" fill="url(#paint8_radial_864_3958)"/>
</g>
<g style="mix-blend-mode:screen">
<ellipse cx="241.559" cy="286.56" rx="11" ry="3" transform="rotate(87.0054 241.559 286.56)" fill="url(#paint9_radial_864_3958)"/>
</g>
</g>
<defs>
<radialGradient id="paint0_radial_864_3958" cx="0" cy="0" r="1" gradientUnits="userSpaceOnUse" gradientTransform="translate(181 180) rotate(-90) scale(12 44.9916)">
<stop stop-color="#FC0160"/>
<stop offset="1" stop-color="#FC0160" stop-opacity="0"/>
</radialGradient>
<radialGradient id="paint1_radial_864_3958" cx="0" cy="0" r="1" gradientUnits="userSpaceOnUse" gradientTransform="translate(181 180) rotate(-90) scale(12 44.9916)">
<stop stop-color="#FC0160"/>
<stop offset="1" stop-color="#FC0160" stop-opacity="0"/>
</radialGradient>
<radialGradient id="paint2_radial_864_3958" cx="0" cy="0" r="1" gradientUnits="userSpaceOnUse" gradientTransform="translate(119.22 287.22) rotate(-90) scale(3 10.1001)">
<stop stop-color="#FC0160"/>
<stop offset="1" stop-color="#FC0160" stop-opacity="0"/>
</radialGradient>
<radialGradient id="paint3_radial_864_3958" cx="0" cy="0" r="1" gradientUnits="userSpaceOnUse" gradientTransform="translate(119.22 287.22) rotate(-90) scale(3 10.1001)">
<stop stop-color="#FC0160"/>
<stop offset="1" stop-color="#FC0160" stop-opacity="0"/>
</radialGradient>
<radialGradient id="paint4_radial_864_3958" cx="0" cy="0" r="1" gradientUnits="userSpaceOnUse" gradientTransform="translate(180.556 303.556) rotate(-90) scale(3 10.1001)">
<stop stop-color="#FC0160"/>
<stop offset="1" stop-color="#FC0160" stop-opacity="0"/>
</radialGradient>
<radialGradient id="paint5_radial_864_3958" cx="0" cy="0" r="1" gradientUnits="userSpaceOnUse" gradientTransform="translate(180.556 303.556) rotate(-90) scale(3 10.1001)">
<stop stop-color="#FC0160"/>
<stop offset="1" stop-color="#FC0160" stop-opacity="0"/>
</radialGradient>
<radialGradient id="paint6_radial_864_3958" cx="0" cy="0" r="1" gradientUnits="userSpaceOnUse" gradientTransform="translate(180.556 57.5562) rotate(-90) scale(3 10.1001)">
<stop stop-color="#FC0160"/>
<stop offset="1" stop-color="#FC0160" stop-opacity="0"/>
</radialGradient>
<radialGradient id="paint7_radial_864_3958" cx="0" cy="0" r="1" gradientUnits="userSpaceOnUse" gradientTransform="translate(180.556 57.5562) rotate(-90) scale(3 10.1001)">
<stop stop-color="#FC0160"/>
<stop offset="1" stop-color="#FC0160" stop-opacity="0"/>
</radialGradient>
<radialGradient id="paint8_radial_864_3958" cx="0" cy="0" r="1" gradientUnits="userSpaceOnUse" gradientTransform="translate(241.56 286.56) rotate(-90) scale(3 10.1001)">
<stop stop-color="#FC0160"/>
<stop offset="1" stop-color="#FC0160" stop-opacity="0"/>
</radialGradient>
<radialGradient id="paint9_radial_864_3958" cx="0" cy="0" r="1" gradientUnits="userSpaceOnUse" gradientTransform="translate(241.559 286.56) rotate(-90) scale(3 10.1001)">
<stop stop-color="#FC0160"/>
<stop offset="1" stop-color="#FC0160" stop-opacity="0"/>
</radialGradient>
</defs>
</svg>
