<svg width="105" height="91" viewBox="0 0 105 91" fill="none" xmlns="http://www.w3.org/2000/svg">
<g filter="url(#filter0_d_1323_3435)">
<path fill-rule="evenodd" clip-rule="evenodd" d="M13 37.3173C14.0173 46.217 15.7976 53.1438 17.479 55.7839C22.4525 59.2189 25.6598 62.4693 29.7997 67.3095C32.5973 69.3109 35.3949 70.4038 38.1925 71C47.8428 68.5728 60.1353 69.0696 71.2409 70.8581C73.657 70.4748 77.9241 68.1896 87.2353 60.6951C89.6796 55.7413 91.6153 50.1772 93 43.9886C91.248 36.6644 89.934 29.9222 89.3264 22.0302C87.645 18.652 82.2194 12.3782 78.8425 10.973C64.9675 11.484 57.5214 11.2427 45.017 9.0142C42.2617 9.51099 36.6524 11.7253 35.4656 12.0801C34.4341 12.3924 32.894 13.826 31.6507 15.359C29.6302 15.2738 27.4966 15.288 25.9707 15.657C23.5828 17.6016 18.5811 24.2303 15.3878 29.2692C14.2999 31.8526 13.3956 34.9043 13 37.3457L13 37.3173Z" fill="url(#paint0_radial_1323_3435)"/>
<path fill-rule="evenodd" clip-rule="evenodd" d="M18.2702 54.2225C16.7725 47.381 17.3377 37.9418 19.3582 33.4991C17.6485 35.0888 15.0346 36.6218 13 37.3173C14.0173 46.217 15.7976 53.1438 17.479 55.7839C17.6344 55.2303 17.917 54.7051 18.2702 54.2225Z" fill="url(#paint1_radial_1323_3435)"/>
<path fill-rule="evenodd" clip-rule="evenodd" d="M19.3586 33.4991C22.7355 27.1685 26.6776 20.8663 31.637 15.3448C29.6165 15.2596 27.483 15.2738 25.957 15.6429C23.5692 17.5875 18.5674 24.2161 15.3742 29.255C14.2862 31.8384 13.3819 34.8901 12.9863 37.3315C15.0209 36.6218 17.6349 35.103 19.3445 33.5133L19.3586 33.4991Z" fill="url(#paint2_radial_1323_3435)"/>
<path fill-rule="evenodd" clip-rule="evenodd" d="M44.8336 11.9666C42.2904 13.1731 34.7877 14.706 31.651 15.3448C26.6775 20.8663 22.7496 27.1543 19.3727 33.4991C17.3522 37.9418 16.787 47.3809 18.2847 54.2225C22.1703 57.984 30.7185 61.277 32.6966 62.9661C33.5019 63.6474 36.4408 66.9972 37.882 69.2541C55.0774 63.2642 63.9364 66.0604 71.2413 70.8581C73.6574 70.4748 78.9135 65.9185 84.1837 60.2266C85.3705 55.4716 87.3063 49.581 90.2169 43.7756C86.8824 38.3109 84.8901 31.1003 86.077 21.8883C82.3469 18.3681 80.0862 14.0957 78.8287 10.9588C70.2381 13.6415 57.875 15.0751 56.1371 14.3938C53.9753 12.6337 47.716 11.5407 44.8054 11.9666L44.8336 11.9666Z" fill="url(#paint3_radial_1323_3435)"/>
<path fill-rule="evenodd" clip-rule="evenodd" d="M38.2073 71C47.8576 68.5728 60.1501 69.0696 71.2557 70.8581C63.9509 66.0604 55.0918 63.2642 37.8965 69.2541C38.0802 69.8077 38.1932 70.3897 38.2215 71L38.2073 71Z" fill="url(#paint4_radial_1323_3435)"/>
<path fill-rule="evenodd" clip-rule="evenodd" d="M37.8817 69.2541C36.4405 66.9973 33.5016 63.6474 32.6963 62.9661C30.7182 61.277 22.17 57.9698 18.2844 54.2225C17.9312 54.7193 17.6486 55.2303 17.4932 55.7839C22.4667 59.2189 25.674 62.4693 29.8139 67.3095C32.6115 69.3109 35.4091 70.4038 38.2067 71C38.1784 70.4038 38.0654 69.8219 37.8817 69.2541Z" fill="url(#paint5_radial_1323_3435)"/>
<path fill-rule="evenodd" clip-rule="evenodd" d="M31.6514 15.3448C34.7881 14.6919 42.2907 13.1731 44.834 11.9666C44.6503 11.1007 44.6927 9.73811 45.0177 9.00001C42.2625 9.49681 36.6531 11.7111 35.4663 12.0659C34.4348 12.3782 32.8947 13.8118 31.6514 15.3448Z" fill="url(#paint6_radial_1323_3435)"/>
<path fill-rule="evenodd" clip-rule="evenodd" d="M44.8338 11.9666C47.7445 11.5549 54.0037 12.6337 56.1655 14.3938C57.9034 15.0893 70.2666 13.6557 78.8572 10.9588C64.9822 11.4698 57.5361 11.2285 45.0316 9C44.7067 9.7239 44.6502 11.0865 44.848 11.9666L44.8338 11.9666Z" fill="url(#paint7_radial_1323_3435)"/>
<path style="mix-blend-mode:multiply" fill-rule="evenodd" clip-rule="evenodd" d="M16.7872 33.9817C16.1231 34.6204 14.3993 36.1108 13.3255 35.685C13.1983 36.2527 13.0853 36.8063 13.0146 37.3173C15.0493 36.6076 17.6632 35.0888 19.3728 33.4991C22.7497 27.1685 26.6918 20.8663 31.6512 15.3448C29.6307 15.2596 27.4972 15.2738 25.9712 15.6429C25.8299 15.7564 25.6886 15.8842 25.5332 16.0261C26.1549 15.8842 26.8048 15.9835 27.1439 16.7784C28.4014 19.7166 19.1609 31.668 16.773 33.9817L16.7872 33.9817Z" fill="url(#paint8_radial_1323_3435)"/>
<path fill-rule="evenodd" clip-rule="evenodd" d="M67.6523 68.7715C58.4683 65.6914 53.6078 65.9327 44.7629 67.7637C42.5163 68.2321 38.871 68.7857 38.1786 70.6877C37.0342 68.4876 34.717 65.8475 31.8911 63.6758C28.3729 60.9931 23.5972 58.1685 19.5704 55.5994C18.4965 54.9038 18.2846 54.6058 17.5923 55.4716C17.7194 54.4212 17.6912 53.4277 17.5923 52.4341C16.7728 43.8608 16.1793 42.7537 18.7791 35.0462C17.677 41.4904 17.6629 46.8842 18.4683 54.038C23.2016 58.2253 27.9066 59.2189 32.753 62.4125C34.1942 63.3636 34.943 64.8397 37.1048 67.7495C38.4471 69.5238 38.5743 68.7005 40.9904 67.8773C50.6124 64.6552 57.3662 63.4061 67.6382 68.7715L67.6523 68.7715Z" fill="url(#paint9_radial_1323_3435)"/>
<g style="mix-blend-mode:screen" opacity="0.5">
<path fill-rule="evenodd" clip-rule="evenodd" d="M68.0337 60.2692C67.963 60.9506 68.2315 61.7454 68.7543 62.1854C69.8563 63.0939 71.2269 63.7468 72.6257 64.0591C74.0951 64.3855 75.4939 61.8448 75.5363 60.6383C75.5787 59.6731 75.1972 58.5234 74.4201 57.9556C73.1767 57.033 68.2173 58.3814 68.0195 60.2834L68.0337 60.2692Z" fill="#FB5487"/>
</g>
<path fill-rule="evenodd" clip-rule="evenodd" d="M67.5678 60.6809C67.4972 61.3622 67.7657 62.1571 68.2884 62.5971C69.3905 63.5055 70.7611 64.1584 72.1599 64.4707C73.6293 64.7972 75.0281 62.2564 75.0705 61.0499C75.1129 60.0847 74.7314 58.935 73.9543 58.3672C72.7109 57.4446 67.7515 58.793 67.5537 60.6951L67.5678 60.6809Z" fill="url(#paint10_radial_1323_3435)"/>
<g style="mix-blend-mode:screen" opacity="0.5">
<path fill-rule="evenodd" clip-rule="evenodd" d="M49.8075 19.4611C50.5139 19.8017 52.2377 20.0856 52.93 19.3617C53.693 18.5668 52.4355 16.4945 51.8845 15.8558C51.3899 15.2596 50.7259 14.7628 50.0053 14.5073C49.3553 14.2802 47.2783 14.777 47.2783 15.6145C47.2783 17.332 48.8608 19.0069 49.8075 19.4611Z" fill="#FB5487"/>
</g>
<path fill-rule="evenodd" clip-rule="evenodd" d="M49.6092 19.4753C50.3157 19.8159 52.0395 20.0998 52.7318 19.3759C53.4948 18.581 52.2373 16.5087 51.6862 15.87C51.1917 15.2738 50.5276 14.777 49.807 14.5215C49.1571 14.2944 47.0801 14.7912 47.0801 15.6287C47.0801 17.3462 48.6626 19.0211 49.6092 19.4753Z" fill="url(#paint11_radial_1323_3435)"/>
<g filter="url(#filter1_i_1323_3435)">
<path d="M43.4997 32.48V27.08H56.9397C59.8197 27.08 61.3397 28.76 61.3397 30.72C61.3397 31.96 60.6597 33.2 59.4597 34.48L55.3397 38.64H55.8597C59.2997 38.64 62.2597 41.72 62.2597 45.92C62.2597 50.88 58.2597 54.56 52.5397 54.56C48.0197 54.56 44.4597 52.6 42.5797 48.64L47.6197 45.96C48.4997 48.16 50.3797 49.28 52.6197 49.28C54.8197 49.28 56.5397 47.88 56.5397 45.84C56.5397 43.92 54.9797 42.72 52.7397 42.72H51.2997C49.4997 42.72 48.4197 41.52 48.3797 40.2C48.3797 39.24 48.8997 38.36 49.7397 37.48L54.4197 32.84C54.5397 32.76 54.6197 32.72 54.6197 32.56C54.6197 32.48 54.5397 32.48 54.4597 32.48H43.4997Z" fill="#22010D"/>
</g>
</g>
<defs>
<filter id="filter0_d_1323_3435" x="0.986328" y="5" width="104.014" height="86" filterUnits="userSpaceOnUse" color-interpolation-filters="sRGB">
<feFlood flood-opacity="0" result="BackgroundImageFix"/>
<feColorMatrix in="SourceAlpha" type="matrix" values="0 0 0 0 0 0 0 0 0 0 0 0 0 0 0 0 0 0 127 0" result="hardAlpha"/>
<feOffset dy="8"/>
<feGaussianBlur stdDeviation="6"/>
<feComposite in2="hardAlpha" operator="out"/>
<feColorMatrix type="matrix" values="0 0 0 0 0.273942 0 0 0 0 0 0 0 0 0 0.103683 0 0 0 1 0"/>
<feBlend mode="normal" in2="BackgroundImageFix" result="effect1_dropShadow_1323_3435"/>
<feBlend mode="normal" in="SourceGraphic" in2="effect1_dropShadow_1323_3435" result="shape"/>
</filter>
<filter id="filter1_i_1323_3435" x="42.5801" y="27.08" width="19.6797" height="27.48" filterUnits="userSpaceOnUse" color-interpolation-filters="sRGB">
<feFlood flood-opacity="0" result="BackgroundImageFix"/>
<feBlend mode="normal" in="SourceGraphic" in2="BackgroundImageFix" result="shape"/>
<feColorMatrix in="SourceAlpha" type="matrix" values="0 0 0 0 0 0 0 0 0 0 0 0 0 0 0 0 0 0 127 0" result="hardAlpha"/>
<feOffset dx="1" dy="1"/>
<feComposite in2="hardAlpha" operator="arithmetic" k2="-1" k3="1"/>
<feColorMatrix type="matrix" values="0 0 0 0 0.988235 0 0 0 0 0.533333 0 0 0 0 0.717647 0 0 0 1 0"/>
<feBlend mode="normal" in2="shape" result="effect1_innerShadow_1323_3435"/>
</filter>
<radialGradient id="paint0_radial_1323_3435" cx="0" cy="0" r="1" gradientUnits="userSpaceOnUse" gradientTransform="translate(53 40) rotate(-90) scale(35.8828 35.7188)">
<stop stop-color="#EB075A"/>
<stop offset="1" stop-color="#7F0334"/>
</radialGradient>
<radialGradient id="paint1_radial_1323_3435" cx="0" cy="0" r="1" gradientUnits="userSpaceOnUse" gradientTransform="translate(17.7333 55.3297) rotate(-90) scale(75.8819 75.5352)">
<stop stop-color="#EB075A"/>
<stop offset="1" stop-color="#7F0334"/>
</radialGradient>
<radialGradient id="paint2_radial_1323_3435" cx="0" cy="0" r="1" gradientUnits="userSpaceOnUse" gradientTransform="translate(11.8136 16.7216) rotate(-90) scale(33.484 33.331)">
<stop stop-color="#EB075A"/>
<stop offset="1" stop-color="#7F0334"/>
</radialGradient>
<radialGradient id="paint3_radial_1323_3435" cx="0" cy="0" r="1" gradientUnits="userSpaceOnUse" gradientTransform="translate(18.4825 60.6383) rotate(-90) scale(94.5472 94.1151)">
<stop stop-color="#FA1562"/>
<stop offset="1" stop-color="#C30550"/>
</radialGradient>
<radialGradient id="paint4_radial_1323_3435" cx="0" cy="0" r="1" gradientUnits="userSpaceOnUse" gradientTransform="translate(71.4253 71.8091) rotate(-90) scale(60.6799 60.4027)">
<stop stop-color="#FC69A0"/>
<stop offset="1" stop-color="#C30550"/>
</radialGradient>
<radialGradient id="paint5_radial_1323_3435" cx="0" cy="0" r="1" gradientUnits="userSpaceOnUse" gradientTransform="translate(16.5748 58.6511) rotate(-90) scale(42.4972 42.3031)">
<stop stop-color="#FDC4DE"/>
<stop offset="1" stop-color="#F9156D"/>
</radialGradient>
<radialGradient id="paint6_radial_1323_3435" cx="0" cy="0" r="1" gradientUnits="userSpaceOnUse" gradientTransform="translate(45.597 5.13921) rotate(-90) scale(26.3159 26.1957)">
<stop stop-color="#EB075A"/>
<stop offset="1" stop-color="#7F0334"/>
</radialGradient>
<radialGradient id="paint7_radial_1323_3435" cx="0" cy="0" r="1" gradientUnits="userSpaceOnUse" gradientTransform="translate(93.707 -36.9606) rotate(-90) scale(71.6094 71.2822)">
<stop stop-color="#EB075A"/>
<stop offset="1" stop-color="#7F0334"/>
</radialGradient>
<radialGradient id="paint8_radial_1323_3435" cx="0" cy="0" r="1" gradientUnits="userSpaceOnUse" gradientTransform="translate(16.0666 28.8718) rotate(-90) scale(37.217 37.047)">
<stop stop-color="white"/>
<stop offset="1" stop-color="#F9156D"/>
</radialGradient>
<radialGradient id="paint9_radial_1323_3435" cx="0" cy="0" r="1" gradientUnits="userSpaceOnUse" gradientTransform="translate(8.70495 66.5998) rotate(-90) scale(81.2615 80.8901)">
<stop stop-color="#FEF3FF"/>
<stop offset="1" stop-color="#F9156D"/>
</radialGradient>
<radialGradient id="paint10_radial_1323_3435" cx="0" cy="0" r="1" gradientUnits="userSpaceOnUse" gradientTransform="translate(78.0376 58.2679) rotate(-90) scale(13.6264 13.5641)">
<stop stop-color="#EB075A"/>
<stop offset="1" stop-color="#A90546"/>
</radialGradient>
<radialGradient id="paint11_radial_1323_3435" cx="0" cy="0" r="1" gradientUnits="userSpaceOnUse" gradientTransform="translate(53.0999 15.1777) rotate(-95.266) scale(6.52905 6.49972)">
<stop stop-color="#EB075A"/>
<stop offset="1" stop-color="#A90546"/>
</radialGradient>
</defs>
</svg>
