<svg width="28" height="28" viewBox="0 0 28 28" fill="none" xmlns="http://www.w3.org/2000/svg">
<g id="gender-female 1">
<g id="Group">
<path id="Union" fill-rule="evenodd" clip-rule="evenodd" d="M9.05025 5.55025C10.363 4.2375 12.1435 3.5 14 3.5C15.8565 3.5 17.637 4.2375 18.9497 5.55025C20.2625 6.86301 21 8.64348 21 10.5C21 12.3565 20.2625 14.137 18.9497 15.4497C17.9153 16.4842 16.5904 17.1615 15.1667 17.4021V19.8333H17.5C18.1443 19.8333 18.6667 20.3557 18.6667 21C18.6667 21.6443 18.1443 22.1667 17.5 22.1667H15.1667V24.5C15.1667 25.1443 14.6443 25.6667 14 25.6667C13.3557 25.6667 12.8333 25.1443 12.8333 24.5V22.1667H10.5C9.85567 22.1667 9.33333 21.6443 9.33333 21C9.33333 20.3557 9.85567 19.8333 10.5 19.8333H12.8333V17.4021C11.4096 17.1615 10.0847 16.4842 9.05025 15.4497C7.7375 14.137 7 12.3565 7 10.5C7 8.64348 7.7375 6.86301 9.05025 5.55025ZM17.2998 13.7998C16.4247 14.675 15.2377 15.1667 14 15.1667C12.7623 15.1667 11.5753 14.675 10.7002 13.7998C9.825 12.9247 9.33333 11.7377 9.33333 10.5C9.33333 9.26232 9.825 8.07534 10.7002 7.20017C11.5753 6.325 12.7623 5.83333 14 5.83333C15.2377 5.83333 16.4247 6.325 17.2998 7.20017C18.175 8.07534 18.6667 9.26232 18.6667 10.5C18.6667 11.7377 18.175 12.9247 17.2998 13.7998Z" fill="url(#paint0_linear_1512_3705)"/>
</g>
</g>
<defs>
<linearGradient id="paint0_linear_1512_3705" x1="6.53333" y1="6.16" x2="24.4552" y2="18.303" gradientUnits="userSpaceOnUse">
<stop stop-color="#B2AFFE"/>
<stop offset="1" stop-color="#252376"/>
</linearGradient>
</defs>
</svg>
