<svg width="28" height="28" viewBox="0 0 28 28" fill="none" xmlns="http://www.w3.org/2000/svg">
<g id="triangle-square-circle 1">
<g id="Group">
<path id="Vector (Stroke)" fill-rule="evenodd" clip-rule="evenodd" d="M14 2.33337C14.4186 2.33337 14.8052 2.55771 15.0129 2.92121L19.6796 11.0879C19.8859 11.449 19.8844 11.8926 19.6757 12.2523C19.4669 12.612 19.0825 12.8334 18.6666 12.8334H9.33329C8.91741 12.8334 8.53297 12.612 8.32423 12.2523C8.11549 11.8926 8.11401 11.449 8.32034 11.0879L12.987 2.92121C13.1947 2.55771 13.5813 2.33337 14 2.33337ZM11.3437 10.5H16.6562L14 5.85153L11.3437 10.5Z" fill="url(#paint0_linear_1512_3693)"/>
<path id="Vector (Stroke)_2" fill-rule="evenodd" clip-rule="evenodd" d="M16.5335 16.5336C17.4086 15.6584 18.5956 15.1667 19.8333 15.1667C21.071 15.1667 22.258 15.6584 23.1331 16.5336C24.0083 17.4088 24.5 18.5957 24.5 19.8334C24.5 21.0711 24.0083 22.2581 23.1331 23.1332C22.258 24.0084 21.071 24.5001 19.8333 24.5001C18.5956 24.5001 17.4086 24.0084 16.5335 23.1332C15.6583 22.2581 15.1666 21.0711 15.1666 19.8334C15.1666 18.5957 15.6583 17.4088 16.5335 16.5336ZM19.8333 17.5001C19.2145 17.5001 18.621 17.7459 18.1834 18.1835C17.7458 18.6211 17.5 19.2146 17.5 19.8334C17.5 20.4523 17.7458 21.0457 18.1834 21.4833C18.621 21.9209 19.2145 22.1667 19.8333 22.1667C20.4521 22.1667 21.0456 21.9209 21.4832 21.4833C21.9208 21.0457 22.1666 20.4523 22.1666 19.8334C22.1666 19.2146 21.9208 18.6211 21.4832 18.1835C21.0456 17.7459 20.4521 17.5001 19.8333 17.5001Z" fill="url(#paint1_linear_1512_3693)"/>
<path id="Vector (Stroke)_3" fill-rule="evenodd" clip-rule="evenodd" d="M4.18342 15.8502C4.621 15.4126 5.21449 15.1667 5.83333 15.1667H10.5C11.1188 15.1667 11.7123 15.4126 12.1499 15.8502C12.5875 16.2878 12.8333 16.8812 12.8333 17.5001V22.1667C12.8333 22.7856 12.5875 23.3791 12.1499 23.8167C11.7123 24.2543 11.1188 24.5001 10.5 24.5001H5.83333C5.2145 24.5001 4.621 24.2543 4.18342 23.8167C3.74583 23.3791 3.5 22.7856 3.5 22.1667V17.5001C3.5 16.8812 3.74583 16.2878 4.18342 15.8502ZM10.5 17.5001L5.83333 17.5001L5.83333 22.1667H10.5V17.5001Z" fill="url(#paint2_linear_1512_3693)"/>
</g>
</g>
<defs>
<linearGradient id="paint0_linear_1512_3693" x1="7.77774" y1="3.59337" x2="16.7792" y2="14.3231" gradientUnits="userSpaceOnUse">
<stop stop-color="#B2AFFE"/>
<stop offset="1" stop-color="#252376"/>
</linearGradient>
<linearGradient id="paint1_linear_1512_3693" x1="14.8555" y1="16.2867" x2="22.9605" y2="24.9817" gradientUnits="userSpaceOnUse">
<stop stop-color="#B2AFFE"/>
<stop offset="1" stop-color="#252376"/>
</linearGradient>
<linearGradient id="paint2_linear_1512_3693" x1="3.18889" y1="16.2867" x2="11.2939" y2="24.9817" gradientUnits="userSpaceOnUse">
<stop stop-color="#B2AFFE"/>
<stop offset="1" stop-color="#252376"/>
</linearGradient>
</defs>
</svg>
