<svg width="28" height="28" viewBox="0 0 28 28" fill="none" xmlns="http://www.w3.org/2000/svg">
<g id="zodiac-leo 1">
<g id="Group">
<path id="Union" fill-rule="evenodd" clip-rule="evenodd" d="M12.8333 2.33337C11.2862 2.33337 9.80249 2.94796 8.70852 4.04192C7.61456 5.13588 6.99998 6.61961 6.99998 8.16671C6.99998 10.0072 7.57263 11.5672 8.10267 13.0111L8.10271 13.0112C8.14787 13.1343 8.19272 13.2565 8.23689 13.3779C8.34375 13.6718 8.44891 13.9663 8.54931 14.2647C8.05614 14.0911 7.53276 14 6.99998 14C5.7623 14 4.57532 14.4917 3.70015 15.3669C2.82498 16.242 2.33331 17.429 2.33331 18.6667C2.33331 19.9044 2.82498 21.0914 3.70015 21.9665C4.57532 22.8417 5.7623 23.3334 6.99998 23.3334C8.23766 23.3334 9.42464 22.8417 10.2998 21.9665C11.1741 21.0923 11.6656 19.9068 11.6666 18.6705L11.6666 18.6667C11.6666 16.649 11.2625 15.0318 10.7989 13.6338C11.4437 13.8738 12.132 14 12.8333 14C13.6876 14 14.5226 13.8126 15.2833 13.4606C15.2644 13.5173 15.2455 13.5741 15.2265 13.6311L15.2138 13.6694C14.6337 15.4094 14 17.3104 14 19.8334C14 21.3805 14.6146 22.8642 15.7085 23.9582C16.8025 25.0521 18.2862 25.6667 19.8333 25.6667C21.3804 25.6667 22.8641 25.0521 23.9581 23.9582C25.0521 22.8642 25.6666 21.3805 25.6666 19.8334C25.6666 19.189 25.1443 18.6667 24.5 18.6667C23.8556 18.6667 23.3333 19.189 23.3333 19.8334C23.3333 20.7616 22.9646 21.6519 22.3082 22.3083C21.6518 22.9646 20.7616 23.3334 19.8333 23.3334C18.9051 23.3334 18.0148 22.9646 17.3584 22.3083C16.7024 21.6522 16.3337 20.7625 16.3333 19.8347C16.3333 19.8342 16.3333 19.8338 16.3333 19.8334C16.3333 17.7082 16.8569 16.1185 17.4401 14.369L17.4529 14.3307C18.0329 12.5907 18.6666 10.6897 18.6666 8.16671C18.6666 6.61961 18.0521 5.13588 16.9581 4.04192C15.8641 2.94796 14.3804 2.33337 12.8333 2.33337ZM16.3333 8.16671C16.3333 7.23845 15.9646 6.34821 15.3082 5.69183C14.6518 5.03546 13.7616 4.66671 12.8333 4.66671C11.9051 4.66671 11.0148 5.03546 10.3584 5.69183C9.70206 6.34821 9.33331 7.23845 9.33331 8.16671L9.33332 8.17215C9.33476 9.09844 9.70334 9.98649 10.3584 10.6416C11.0148 11.298 11.9051 11.6667 12.8333 11.6667C13.7616 11.6667 14.6518 11.298 15.3082 10.6416C15.9646 9.9852 16.3333 9.09496 16.3333 8.16671ZM8.6499 17.0168C9.08663 17.4535 9.33235 18.0456 9.33331 18.6631L9.33331 18.6667C9.33331 19.2855 9.08748 19.879 8.6499 20.3166C8.21231 20.7542 7.61882 21 6.99998 21C6.38114 21 5.78765 20.7542 5.35006 20.3166C4.91248 19.879 4.66665 19.2855 4.66665 18.6667C4.66665 18.0479 4.91248 17.4544 5.35006 17.0168C5.78765 16.5792 6.38114 16.3334 6.99998 16.3334C7.61882 16.3334 8.21231 16.5792 8.6499 17.0168Z" fill="url(#paint0_linear_1512_3683)"/>
</g>
</g>
<defs>
<linearGradient id="paint0_linear_1512_3683" x1="1.55554" y1="5.13337" x2="21.818" y2="26.8709" gradientUnits="userSpaceOnUse">
<stop stop-color="#B2AFFE"/>
<stop offset="1" stop-color="#252376"/>
</linearGradient>
</defs>
</svg>
