<svg width="28" height="28" viewBox="0 0 28 28" fill="none" xmlns="http://www.w3.org/2000/svg">
<g id="zodiac-cancer 1">
<g id="Group">
<path id="Union" fill-rule="evenodd" clip-rule="evenodd" d="M19.5117 7.53815C17.7945 7.04574 15.8962 6.84932 14.0096 6.97531C12.1223 7.10136 10.3386 7.54387 8.83451 8.24222C8.13966 8.56483 7.52371 8.93289 6.99234 9.33335L6.99993 9.33335C8.2376 9.33335 9.42459 9.82501 10.2998 10.7002C11.1749 11.5754 11.6666 12.7623 11.6666 14C11.6666 15.2377 11.1749 16.4247 10.2998 17.2998C9.42459 18.175 8.2376 18.6667 6.99993 18.6667C5.76225 18.6667 4.57527 18.175 3.7001 17.2998C2.84321 16.443 2.35397 15.2871 2.3339 14.0775C2.1422 12.467 2.5972 10.885 3.5818 9.49933C4.57341 8.10382 6.06361 6.95616 7.85192 6.12587C9.64379 5.29393 11.7122 4.79021 13.8542 4.64717C15.9969 4.50406 18.1662 4.72496 20.1549 5.29521C20.7742 5.47282 21.1324 6.1189 20.9548 6.73827C20.7772 7.35764 20.1311 7.71576 19.5117 7.53815ZM4.66664 13.9852C4.66679 13.9957 4.66679 14.0063 4.66666 14.0168C4.67106 14.6296 4.91639 15.2163 5.35001 15.6499C5.7876 16.0875 6.38109 16.3333 6.99993 16.3333C7.61877 16.3333 8.21226 16.0875 8.64984 15.6499C9.08743 15.2123 9.33326 14.6189 9.33326 14C9.33326 13.3812 9.08743 12.7877 8.64984 12.3501C8.21226 11.9125 7.61877 11.6667 6.99993 11.6667C6.38109 11.6667 5.7876 11.9125 5.35001 12.3501C4.91593 12.7842 4.67054 13.3717 4.66664 13.9852ZM20.9999 9.33335C19.7623 9.33335 18.5753 9.82501 17.7001 10.7002C16.8249 11.5754 16.3333 12.7623 16.3333 14C16.3333 15.2377 16.8249 16.4247 17.7001 17.2998C18.5753 18.175 19.7623 18.6667 20.9999 18.6667C21.0025 18.6667 21.005 18.6667 21.0076 18.6667C20.4762 19.0671 19.8603 19.4352 19.1654 19.7578C17.6613 20.4562 15.8776 20.8987 13.9903 21.0247C12.1037 21.1507 10.2054 20.9543 8.4882 20.4619C7.86883 20.2843 7.22275 20.6424 7.04514 21.2618C6.86754 21.8811 7.22566 22.5272 7.84503 22.7048C9.83369 23.2751 12.003 23.496 14.1457 23.3529C16.2877 23.2098 18.3561 22.7061 20.148 21.8742C21.9363 21.0439 23.4265 19.8962 24.4181 18.5007C25.4028 17.1149 25.8578 15.5327 25.6659 13.9221C25.6458 12.7126 25.1565 11.557 24.2998 10.7002C23.4246 9.82501 22.2376 9.33335 20.9999 9.33335ZM23.3332 13.9859C23.3331 13.9946 23.3331 14.0034 23.3332 14.0122C23.33 14.6266 23.0846 15.2152 22.6498 15.6499C22.2123 16.0875 21.6188 16.3333 20.9999 16.3333C20.3811 16.3333 19.7876 16.0875 19.35 15.6499C18.9124 15.2123 18.6666 14.6189 18.6666 14C18.6666 13.3812 18.9124 12.7877 19.35 12.3501C19.7876 11.9125 20.3811 11.6667 20.9999 11.6667C21.6188 11.6667 22.2123 11.9125 22.6498 12.3501C23.0841 12.7843 23.3295 13.3721 23.3332 13.9859Z" fill="url(#paint0_linear_1512_3669)"/>
</g>
</g>
<defs>
<linearGradient id="paint0_linear_1512_3669" x1="1.51029" y1="6.8597" x2="17.2015" y2="27.839" gradientUnits="userSpaceOnUse">
<stop stop-color="#B2AFFE"/>
<stop offset="1" stop-color="#252376"/>
</linearGradient>
</defs>
</svg>
