<svg width="581" height="577" viewBox="0 0 581 577" fill="none" xmlns="http://www.w3.org/2000/svg">
<g filter="url(#filter0_dddddd_6_99)">
<path d="M290.008 97.0438C295.557 97.0438 300.056 92.5451 300.056 86.9957C300.056 81.4463 295.557 76.9476 290.008 76.9476C284.458 76.9476 279.959 81.4463 279.959 86.9957C279.959 92.5451 284.458 97.0438 290.008 97.0438Z" fill="#FC0160"/>
<path d="M290.007 74.7584C293.62 74.7584 296.549 71.8295 296.549 68.2165C296.549 64.6034 293.62 61.6745 290.007 61.6745C286.394 61.6745 283.465 64.6034 283.465 68.2165C283.465 71.8295 286.394 74.7584 290.007 74.7584Z" fill="#FC0160"/>
<path d="M290.007 59.759C291.679 59.759 293.034 58.4036 293.034 56.7317C293.034 55.0598 291.679 53.7044 290.007 53.7044C288.335 53.7044 286.98 55.0598 286.98 56.7317C286.98 58.4036 288.335 59.759 290.007 59.759Z" fill="#FC0160"/>
<path d="M328.122 74.8354C322.982 58.69 307.863 47 290.007 47C272.152 47 257.041 58.69 251.893 74.8354C250.73 78.4784 250.08 82.3437 250.012 86.3544C249.764 101.773 258.187 115.224 270.766 122.108C276.47 125.23 283.021 127 290.016 127C296.985 127 303.536 125.221 309.24 122.083C321.623 115.284 330.012 102.123 330.012 87.0043C330.012 82.7627 329.353 78.675 328.13 74.8439L328.122 74.8354ZM325.018 87.0385C325.018 90.0486 324.205 92.9989 322.649 95.573C320.613 98.9252 318.082 101.944 315.149 104.518C307.205 111.487 294.685 109.093 290.153 99.5409C290.127 99.4896 290.101 99.4297 290.076 99.3784C290.05 99.3271 289.982 99.3271 289.956 99.3784C285.826 108.879 273.725 111.847 265.738 105.253C262.488 102.568 259.684 99.3527 257.477 95.7354C255.878 93.1187 255.006 90.1171 255.006 87.047V87.0043C254.997 67.6692 270.672 51.9941 290.007 51.9941C309.343 51.9941 325.018 67.6692 325.018 87.0043V87.047V87.0385Z" fill="#FC0160"/>
</g>
<path opacity="0.8" d="M385.023 172.698H373.092C370.897 172.698 370.102 171.585 370.102 169.771V154.309C370.102 152.495 370.897 151.382 373.092 151.382H384.8V154.341H373.347V160.545H384.164V163.504H373.347V169.739H385.023V172.698Z" fill="#FC0160"/>
<path opacity="0.8" d="M341.009 172.73H337.701L340.691 153.832C340.978 151.986 342.314 151 344.032 151C345.559 151 346.864 151.732 347.341 153.418L351.445 168.276C351.509 168.562 351.572 168.658 351.731 168.658C351.922 168.658 351.954 168.562 352.049 168.276L356.122 153.482C356.567 151.795 357.935 151.032 359.462 151.032C361.149 151.032 362.453 152.05 362.739 153.927L365.444 172.698H362.167L359.812 154.945C359.749 154.5 359.622 154.213 359.272 154.213C358.985 154.213 358.794 154.436 358.699 154.85L354.308 170.121C353.958 171.394 352.94 172.03 351.731 172.03C350.586 172.03 349.504 171.394 349.154 170.185L344.796 154.818C344.668 154.372 344.509 154.182 344.223 154.182C343.936 154.182 343.714 154.404 343.65 154.913L341.009 172.73Z" fill="#FC0160"/>
<path opacity="0.8" d="M315.161 172.698L320.983 153.959C321.619 151.954 323.178 151 324.96 151C326.773 151 328.332 151.954 328.969 153.959L334.791 172.698H331.482L329.923 167.48L319.997 167.512L318.438 172.698H315.161ZM323.783 154.913L320.887 164.553H329.064L326.201 154.913C325.978 154.245 325.596 153.927 324.992 153.927C324.355 153.927 323.974 154.245 323.783 154.913Z" fill="#FC0160"/>
<path opacity="0.8" d="M302.64 151.382V169.708H313.234V172.698H302.385C300.222 172.698 299.395 171.585 299.395 169.771V151.382H302.64Z" fill="#FC0160"/>
<path opacity="0.8" d="M283.681 172.698H280.436V154.309C280.436 152.495 281.231 151.382 283.427 151.382H295.135V154.372H283.681V161.595H294.403V164.585H283.681V172.698Z" fill="#FC0160"/>
<path opacity="0.8" d="M256.687 172.698L262.509 153.959C263.146 151.954 264.705 151 266.486 151C268.3 151 269.859 151.954 270.495 153.959L276.317 172.698H273.008L271.449 167.48L261.523 167.512L259.964 172.698H256.687ZM265.309 154.913L262.414 164.553H270.59L267.727 154.913C267.504 154.245 267.122 153.927 266.518 153.927C265.882 153.927 265.5 154.245 265.309 154.913Z" fill="#FC0160"/>
<path opacity="0.8" d="M237.725 172.698H234.639V154.054C234.639 152.114 235.912 151 237.534 151C238.839 151 239.73 151.509 240.334 152.623L249.306 169.389C249.402 169.676 249.465 169.803 249.656 169.803C249.783 169.803 249.815 169.739 249.815 169.548V151.382H252.901V170.057C252.901 171.998 251.533 173.08 250.07 173.08C248.861 173.08 247.811 172.571 247.206 171.426L238.266 154.627C238.202 154.372 238.139 154.245 237.98 154.245C237.789 154.245 237.725 154.372 237.725 154.627V172.698Z" fill="#FC0160"/>
<path opacity="0.8" d="M220.265 172.985C214.252 172.985 211.484 169.358 211.484 163.44V151.382H214.73V163.344C214.73 167.576 216.511 169.93 220.265 169.93C224.02 169.93 225.801 167.576 225.801 163.344V151.382H229.047V163.44C229.047 169.358 226.247 172.985 220.265 172.985Z" fill="#FC0160"/>
<path opacity="0.8" d="M198.245 151.382V169.708H208.84V172.698H197.991C195.827 172.698 195 171.585 195 169.771V151.382H198.245Z" fill="#FC0160"/>
<defs>
<filter id="filter0_dddddd_6_99" x="0.00634766" y="-183.4" width="580.005" height="760.4" filterUnits="userSpaceOnUse" color-interpolation-filters="sRGB">
<feFlood flood-opacity="0" result="BackgroundImageFix"/>
<feColorMatrix in="SourceAlpha" type="matrix" values="0 0 0 0 0 0 0 0 0 0 0 0 0 0 0 0 0 0 127 0" result="hardAlpha"/>
<feOffset/>
<feGaussianBlur stdDeviation="4.8"/>
<feColorMatrix type="matrix" values="0 0 0 0 0.988235 0 0 0 0 0.00784314 0 0 0 0 0.376471 0 0 0 1 0"/>
<feBlend mode="normal" in2="BackgroundImageFix" result="effect1_dropShadow_6_99"/>
<feColorMatrix in="SourceAlpha" type="matrix" values="0 0 0 0 0 0 0 0 0 0 0 0 0 0 0 0 0 0 127 0" result="hardAlpha"/>
<feOffset/>
<feGaussianBlur stdDeviation="9.6"/>
<feColorMatrix type="matrix" values="0 0 0 0 0.988235 0 0 0 0 0.00784314 0 0 0 0 0.376471 0 0 0 1 0"/>
<feBlend mode="normal" in2="effect1_dropShadow_6_99" result="effect2_dropShadow_6_99"/>
<feColorMatrix in="SourceAlpha" type="matrix" values="0 0 0 0 0 0 0 0 0 0 0 0 0 0 0 0 0 0 127 0" result="hardAlpha"/>
<feOffset/>
<feGaussianBlur stdDeviation="33.6"/>
<feColorMatrix type="matrix" values="0 0 0 0 0.988235 0 0 0 0 0.00784314 0 0 0 0 0.376471 0 0 0 1 0"/>
<feBlend mode="normal" in2="effect2_dropShadow_6_99" result="effect3_dropShadow_6_99"/>
<feColorMatrix in="SourceAlpha" type="matrix" values="0 0 0 0 0 0 0 0 0 0 0 0 0 0 0 0 0 0 127 0" result="hardAlpha"/>
<feOffset/>
<feGaussianBlur stdDeviation="67.2"/>
<feColorMatrix type="matrix" values="0 0 0 0 0.988235 0 0 0 0 0.00784314 0 0 0 0 0.376471 0 0 0 1 0"/>
<feBlend mode="normal" in2="effect3_dropShadow_6_99" result="effect4_dropShadow_6_99"/>
<feColorMatrix in="SourceAlpha" type="matrix" values="0 0 0 0 0 0 0 0 0 0 0 0 0 0 0 0 0 0 127 0" result="hardAlpha"/>
<feOffset/>
<feGaussianBlur stdDeviation="115.2"/>
<feColorMatrix type="matrix" values="0 0 0 0 0.988235 0 0 0 0 0.00784314 0 0 0 0 0.376471 0 0 0 1 0"/>
<feBlend mode="normal" in2="effect4_dropShadow_6_99" result="effect5_dropShadow_6_99"/>
<feColorMatrix in="SourceAlpha" type="matrix" values="0 0 0 0 0 0 0 0 0 0 0 0 0 0 0 0 0 0 127 0" result="hardAlpha"/>
<feOffset dy="200"/>
<feGaussianBlur stdDeviation="125"/>
<feColorMatrix type="matrix" values="0 0 0 0 0.988235 0 0 0 0 0.00784314 0 0 0 0 0.376471 0 0 0 1 0"/>
<feBlend mode="normal" in2="effect5_dropShadow_6_99" result="effect6_dropShadow_6_99"/>
<feBlend mode="normal" in="SourceGraphic" in2="effect6_dropShadow_6_99" result="shape"/>
</filter>
</defs>
</svg>
