<svg width="18" height="18" viewBox="0 0 18 18" fill="none" xmlns="http://www.w3.org/2000/svg">
<path d="M13.1665 1.78333C14.4234 2.50905 15.469 3.55044 16.1997 4.80442C16.9304 6.05839 17.321 7.48148 17.3327 8.93278C17.3444 10.3841 16.9769 11.8133 16.2665 13.0789C15.5561 14.3445 14.5275 15.4027 13.2825 16.1486C12.0375 16.8945 10.6193 17.3024 9.16825 17.3317C7.7172 17.3611 6.28363 17.011 5.00947 16.316C3.7353 15.6211 2.66473 14.6054 1.90373 13.3696C1.14272 12.1338 0.717678 10.7206 0.670671 9.27L0.666504 9L0.670671 8.73C0.71734 7.29082 1.13613 5.8883 1.8862 4.65916C2.63628 3.43002 3.69205 2.41621 4.95058 1.71657C6.20911 1.01693 7.62746 0.65533 9.06734 0.667031C10.5072 0.678732 11.9195 1.06333 13.1665 1.78333ZM5.6665 3.22667C4.39564 3.96048 3.40242 5.09313 2.84086 6.44894C2.27931 7.80476 2.18081 9.30798 2.56063 10.7255C2.94045 12.143 3.77738 13.3956 4.94161 14.2889C6.10585 15.1823 7.53233 15.6666 8.99984 15.6667L9.1665 15.6625C10.0206 15.6198 10.8257 15.2503 11.4151 14.6307C12.0045 14.011 12.3332 13.1885 12.3332 12.3333C12.3332 11.4781 12.0045 10.6556 11.4151 10.036C10.8257 9.41632 10.0206 9.04691 9.1665 9.00416L8.99984 9C8.13021 9.00001 7.29501 8.66017 6.67244 8.053C6.04987 7.44582 5.68924 6.61938 5.66749 5.75002C5.64575 4.88067 5.96461 4.03723 6.55603 3.39969C7.14746 2.76214 7.96463 2.38097 8.83317 2.3375L8.99984 2.33333C7.82955 2.33319 6.67987 2.6413 5.6665 3.22667ZM8.99984 4.41667C8.66832 4.41667 8.35038 4.54836 8.11595 4.78278C7.88153 5.0172 7.74984 5.33514 7.74984 5.66667C7.74984 5.99819 7.88153 6.31613 8.11595 6.55055C8.35038 6.78497 8.66832 6.91667 8.99984 6.91667C9.33136 6.91667 9.6493 6.78497 9.88372 6.55055C10.1181 6.31613 10.2498 5.99819 10.2498 5.66667C10.2498 5.33514 10.1181 5.0172 9.88372 4.78278C9.6493 4.54836 9.33136 4.41667 8.99984 4.41667Z" fill="#B2AFFE"/>
</svg>
