<svg width="21" height="20" viewBox="0 0 21 20" fill="none" xmlns="http://www.w3.org/2000/svg">
<g clip-path="url(#clip0_1311_1431)">
<path d="M14.4165 2.78333C15.6833 3.51474 16.7353 4.56673 17.4667 5.83357C18.1981 7.1004 18.5832 8.53745 18.5832 10.0003C18.5832 11.4631 18.1981 12.9001 17.4667 14.1669C16.7353 15.4338 15.6833 16.4858 14.4164 17.2171C13.1496 17.9485 11.7125 18.3336 10.2497 18.3335C8.78689 18.3335 7.34985 17.9484 6.08303 17.217C4.81621 16.4856 3.76425 15.4336 3.03287 14.1667C2.30149 12.8999 1.91647 11.4628 1.9165 10L1.92067 9.73C1.96734 8.29082 2.38613 6.8883 3.1362 5.65916C3.88628 4.43002 4.94205 3.41621 6.20058 2.71657C7.45911 2.01693 8.87746 1.65533 10.3173 1.66703C11.7572 1.67873 13.1695 2.06333 14.4165 2.78333ZM10.2498 15C10.0288 15 9.81686 15.0878 9.66058 15.2441C9.5043 15.4004 9.4165 15.6123 9.4165 15.8333C9.4165 16.0543 9.5043 16.2663 9.66058 16.4226C9.81686 16.5789 10.0288 16.6667 10.2498 16.6667C10.4708 16.6667 10.6828 16.5789 10.8391 16.4226C10.9954 16.2663 11.0832 16.0543 11.0832 15.8333C11.0832 15.6123 10.9954 15.4004 10.8391 15.2441C10.6828 15.0878 10.4708 15 10.2498 15ZM13.3198 5.87583L8.31984 7.5425C8.19697 7.5834 8.08533 7.65236 7.99376 7.74393C7.9022 7.83549 7.83323 7.94713 7.79234 8.07L6.11984 13.0917L6.10067 13.1633L6.0865 13.2575L6.08317 13.3142V13.3508L6.09067 13.4433L6.10067 13.5017L6.134 13.6217L6.1715 13.705L6.2165 13.7842L6.26984 13.8592L6.32734 13.9217L6.39734 13.9833L6.479 14.0417L6.56234 14.0867L6.62734 14.1142L6.71484 14.1417L6.80567 14.1583L6.8415 14.1625L6.89817 14.1658H6.93484L7.02734 14.1583L7.08567 14.1483L7.10234 14.1433L7.11817 14.1417L7.17984 14.1233L12.1798 12.4567C12.3027 12.4158 12.4143 12.3468 12.5059 12.2552C12.5975 12.1637 12.6664 12.052 12.7073 11.9292L14.374 6.92917C14.423 6.78234 14.4301 6.62477 14.3945 6.47413C14.359 6.32349 14.2822 6.18572 14.1727 6.07628C14.0633 5.96683 13.9255 5.89003 13.7749 5.85448C13.6242 5.81893 13.4667 5.82687 13.3198 5.87583ZM12.2657 7.98333L11.2573 11.0075L8.23317 12.0158L9.2415 8.99167L12.2657 7.98333ZM4.4165 9.16667C4.19549 9.16667 3.98353 9.25446 3.82725 9.41074C3.67097 9.56702 3.58317 9.77899 3.58317 10C3.58317 10.221 3.67097 10.433 3.82725 10.5893C3.98353 10.7455 4.19549 10.8333 4.4165 10.8333C4.63752 10.8333 4.84948 10.7455 5.00576 10.5893C5.16204 10.433 5.24984 10.221 5.24984 10C5.24984 9.77899 5.16204 9.56702 5.00576 9.41074C4.84948 9.25446 4.63752 9.16667 4.4165 9.16667ZM16.0832 9.16667C15.8622 9.16667 15.6502 9.25446 15.4939 9.41074C15.3376 9.56702 15.2498 9.77899 15.2498 10C15.2498 10.221 15.3376 10.433 15.4939 10.5893C15.6502 10.7455 15.8622 10.8333 16.0832 10.8333C16.3042 10.8333 16.5161 10.7455 16.6724 10.5893C16.8287 10.433 16.9165 10.221 16.9165 10C16.9165 9.77899 16.8287 9.56702 16.6724 9.41074C16.5161 9.25446 16.3042 9.16667 16.0832 9.16667ZM10.2498 3.33333C10.0288 3.33333 9.81686 3.42113 9.66058 3.57741C9.5043 3.73369 9.4165 3.94565 9.4165 4.16667C9.4165 4.38768 9.5043 4.59964 9.66058 4.75592C9.81686 4.9122 10.0288 5 10.2498 5C10.4708 5 10.6828 4.9122 10.8391 4.75592C10.9954 4.59964 11.0832 4.38768 11.0832 4.16667C11.0832 3.94565 10.9954 3.73369 10.8391 3.57741C10.6828 3.42113 10.4708 3.33333 10.2498 3.33333Z" fill="#B2AFFE"/>
</g>
<defs>
<clipPath id="clip0_1311_1431">
<rect width="20" height="20" fill="white" transform="translate(0.25)"/>
</clipPath>
</defs>
</svg>
