<svg width="21" height="20" viewBox="0 0 21 20" fill="none" xmlns="http://www.w3.org/2000/svg">
<path d="M10.7501 5C11.739 5 12.7057 5.29324 13.5279 5.84265C14.3502 6.39206 14.991 7.17295 15.3695 8.08658C15.7479 9.00021 15.8469 10.0055 15.654 10.9754C15.4611 11.9454 14.9849 12.8363 14.2856 13.5355C13.5863 14.2348 12.6954 14.711 11.7255 14.9039C10.7556 15.0969 9.75028 14.9978 8.83665 14.6194C7.92302 14.241 7.14212 13.6001 6.59272 12.7778C6.04331 11.9556 5.75006 10.9889 5.75006 10L5.7534 9.8125C5.80191 8.51976 6.34958 7.29613 7.28134 6.39872C8.2131 5.5013 9.45641 4.99995 10.7501 5ZM10.7501 8.33333C10.3296 8.3332 9.92459 8.492 9.61627 8.77791C9.30796 9.06382 9.1191 9.4557 9.08756 9.875L9.0834 10C9.0834 10.3296 9.18115 10.6519 9.36428 10.9259C9.54742 11.2 9.80771 11.4137 10.1123 11.5398C10.4168 11.6659 10.7519 11.6989 11.0752 11.6346C11.3985 11.5703 11.6955 11.4116 11.9286 11.1785C12.1617 10.9454 12.3204 10.6484 12.3847 10.3251C12.449 10.0018 12.416 9.66674 12.2899 9.36219C12.1637 9.05765 11.9501 8.79735 11.676 8.61421C11.4019 8.43108 11.0797 8.33333 10.7501 8.33333ZM14.0001 15.925C14.2042 15.925 14.4012 16 14.5537 16.1356C14.7062 16.2712 14.8037 16.4581 14.8276 16.6608L14.8334 16.7667C14.8332 16.9791 14.7518 17.1834 14.606 17.3378C14.4602 17.4923 14.2609 17.5852 14.0489 17.5976C13.8369 17.6101 13.6281 17.5411 13.4652 17.4048C13.3023 17.2685 13.1977 17.0751 13.1726 16.8642L13.1667 16.7583C13.1667 16.5373 13.2545 16.3254 13.4108 16.1691C13.5671 16.0128 13.7791 15.925 14.0001 15.925ZM16.6167 13.8417C16.8208 13.8417 17.0178 13.9166 17.1704 14.0523C17.3229 14.1879 17.4204 14.3748 17.4442 14.5775L17.4501 14.6833C17.4498 14.8957 17.3685 15.1 17.2227 15.2545C17.0769 15.4089 16.8776 15.5019 16.6656 15.5143C16.4535 15.5268 16.2447 15.4578 16.0819 15.3214C15.919 15.1851 15.8143 14.9917 15.7892 14.7808L15.7834 14.675C15.7834 14.454 15.8712 14.242 16.0275 14.0857C16.1838 13.9295 16.3957 13.8417 16.6167 13.8417ZM18.0584 10.8333C18.2625 10.8334 18.4595 10.9083 18.612 11.0439C18.7646 11.1796 18.862 11.3665 18.8859 11.5692L18.8917 11.675C18.8915 11.8874 18.8102 12.0917 18.6644 12.2461C18.5185 12.4006 18.3193 12.4935 18.1072 12.506C17.8952 12.5184 17.6864 12.4494 17.5235 12.3131C17.3607 12.1768 17.256 11.9834 17.2309 11.7725L17.2251 11.6667C17.2251 11.4457 17.3129 11.2337 17.4691 11.0774C17.6254 10.9211 17.8374 10.8333 18.0584 10.8333ZM18.0584 7.5C18.2625 7.50002 18.4595 7.57496 18.612 7.71059C18.7646 7.84623 18.862 8.03312 18.8859 8.23583L18.8917 8.34166C18.8915 8.55406 18.8102 8.75836 18.6644 8.9128C18.5185 9.06725 18.3193 9.16019 18.1072 9.17264C17.8952 9.18509 17.6864 9.1161 17.5235 8.97978C17.3607 8.84345 17.256 8.65008 17.2309 8.43916L17.2251 8.33333C17.2251 8.11232 17.3129 7.90036 17.4691 7.74408C17.6254 7.58779 17.8374 7.5 18.0584 7.5ZM16.6167 4.49166C16.8377 4.49166 17.0497 4.57946 17.206 4.73574C17.3623 4.89202 17.4501 5.10398 17.4501 5.325C17.4506 5.43443 17.4296 5.5429 17.3882 5.64422C17.3469 5.74553 17.2859 5.8377 17.2089 5.91547C17.0534 6.07254 16.8419 6.16139 16.6209 6.1625C16.5115 6.16304 16.403 6.14203 16.3017 6.10066C16.2004 6.05928 16.1082 5.99836 16.0304 5.92137C15.8734 5.76587 15.7845 5.55434 15.7834 5.33333C15.7834 4.865 16.1567 4.49166 16.6167 4.49166ZM14.0001 2.40833C14.2211 2.40833 14.433 2.49613 14.5893 2.65241C14.7456 2.80869 14.8334 3.02065 14.8334 3.24166C14.8339 3.3511 14.8129 3.45957 14.7716 3.56088C14.7302 3.6622 14.6693 3.75437 14.5923 3.83214C14.5153 3.90991 14.4237 3.97175 14.3228 4.01414C14.2219 4.05652 14.1137 4.07862 14.0042 4.07916C13.8948 4.07971 13.7863 4.0587 13.685 4.01732C13.5837 3.97595 13.4915 3.91503 13.4138 3.83803C13.336 3.76104 13.2741 3.66948 13.2318 3.56858C13.1894 3.46769 13.1673 3.35943 13.1667 3.25C13.1667 2.78166 13.5401 2.40833 14.0001 2.40833ZM10.7501 1.66666C10.9711 1.66666 11.183 1.75446 11.3393 1.91074C11.4956 2.06702 11.5834 2.27898 11.5834 2.5C11.5839 2.60943 11.5629 2.7179 11.5216 2.81922C11.4802 2.92053 11.4193 3.0127 11.3423 3.09047C11.2653 3.16824 11.1737 3.23008 11.0728 3.27247C10.9719 3.31485 10.8637 3.33695 10.7542 3.3375C10.6448 3.33804 10.5363 3.31703 10.435 3.27566C10.3337 3.23428 10.2415 3.17336 10.1638 3.09637C10.086 3.01937 10.0241 2.92781 9.98176 2.82692C9.93937 2.72602 9.91728 2.61777 9.91673 2.50833C9.91673 2.04 10.2901 1.66666 10.7501 1.66666ZM7.50006 2.40833C7.72108 2.40833 7.93304 2.49613 8.08932 2.65241C8.2456 2.80869 8.3334 3.02065 8.3334 3.24166C8.3345 3.46268 8.24777 3.67508 8.09227 3.83214C7.93677 3.9892 7.72524 4.07806 7.50423 4.07916C7.28322 4.08027 7.07082 3.99353 6.91375 3.83803C6.75669 3.68253 6.66784 3.47101 6.66673 3.25C6.66673 2.78166 7.04006 2.40833 7.50006 2.40833ZM4.8834 4.49166C5.10441 4.49166 5.31637 4.57946 5.47265 4.73574C5.62893 4.89202 5.71673 5.10398 5.71673 5.325C5.71728 5.43443 5.69627 5.5429 5.65489 5.64422C5.61352 5.74553 5.5526 5.8377 5.4756 5.91547C5.3201 6.07254 5.10858 6.16139 4.88756 6.1625C4.77813 6.16304 4.66966 6.14203 4.56834 6.10066C4.46703 6.05928 4.37486 5.99836 4.29709 5.92137C4.14003 5.76587 4.05117 5.55434 4.05007 5.33333C4.05007 4.865 4.4234 4.49166 4.8834 4.49166ZM3.44173 7.5C3.64584 7.50002 3.84285 7.57496 3.99537 7.71059C4.1479 7.84623 4.24535 8.03312 4.26923 8.23583L4.27506 8.34166C4.27483 8.55406 4.1935 8.75836 4.04769 8.9128C3.90188 9.06725 3.7026 9.16019 3.49057 9.17264C3.27853 9.18509 3.06975 9.1161 2.90687 8.97978C2.74399 8.84345 2.63932 8.65008 2.61423 8.43916L2.6084 8.33333C2.6084 8.11232 2.6962 7.90036 2.85248 7.74408C3.00876 7.58779 3.22072 7.5 3.44173 7.5ZM3.44173 10.8333C3.64584 10.8334 3.84285 10.9083 3.99537 11.0439C4.1479 11.1796 4.24535 11.3665 4.26923 11.5692L4.27506 11.675C4.27483 11.8874 4.1935 12.0917 4.04769 12.2461C3.90188 12.4006 3.7026 12.4935 3.49057 12.506C3.27853 12.5184 3.06975 12.4494 2.90687 12.3131C2.74399 12.1768 2.63932 11.9834 2.61423 11.7725L2.6084 11.6667C2.6084 11.4457 2.6962 11.2337 2.85248 11.0774C3.00876 10.9211 3.22072 10.8333 3.44173 10.8333ZM4.8834 13.8417C5.08751 13.8417 5.28451 13.9166 5.43704 14.0523C5.58957 14.1879 5.68702 14.3748 5.7109 14.5775L5.71673 14.6833C5.7165 14.8957 5.63517 15.1 5.48936 15.2545C5.34355 15.4089 5.14427 15.5019 4.93224 15.5143C4.7202 15.5268 4.51142 15.4578 4.34854 15.3214C4.18566 15.1851 4.08098 14.9917 4.0559 14.7808L4.05007 14.675C4.05007 14.454 4.13786 14.242 4.29414 14.0857C4.45042 13.9295 4.66238 13.8417 4.8834 13.8417ZM7.50006 15.925C7.70418 15.925 7.90118 16 8.05371 16.1356C8.20624 16.2712 8.30368 16.4581 8.32756 16.6608L8.3334 16.7667C8.33316 16.9791 8.25183 17.1834 8.10602 17.3378C7.96022 17.4923 7.76094 17.5852 7.5489 17.5976C7.33687 17.6101 7.12808 17.5411 6.9652 17.4048C6.80233 17.2685 6.69765 17.0751 6.67256 16.8642L6.66673 16.7583C6.66673 16.5373 6.75453 16.3254 6.91081 16.1691C7.06709 16.0128 7.27905 15.925 7.50006 15.925ZM10.7501 16.6667C10.9542 16.6667 11.1512 16.7416 11.3037 16.8773C11.4562 17.0129 11.5537 17.1998 11.5776 17.4025L11.5834 17.5083C11.5832 17.7207 11.5018 17.925 11.356 18.0795C11.2102 18.2339 11.0109 18.3269 10.7989 18.3393C10.5869 18.3518 10.3781 18.2828 10.2152 18.1464C10.0523 18.0101 9.94765 17.8167 9.92256 17.6058L9.91673 17.5C9.91673 17.279 10.0045 17.067 10.1608 16.9107C10.3171 16.7545 10.5291 16.6667 10.7501 16.6667Z" fill="#B2AFFE"/>
</svg>
