<svg width="21" height="20" viewBox="0 0 21 20" fill="none" xmlns="http://www.w3.org/2000/svg">
<g clip-path="url(#clip0_1311_1473)">
<path d="M10.5002 1.66667C11.3243 1.66667 12.1298 1.91104 12.815 2.36888C13.5002 2.82672 14.0343 3.47747 14.3497 4.23882C14.665 5.00018 14.7475 5.83796 14.5868 6.64621C14.426 7.45447 14.0292 8.1969 13.4464 8.77962C12.8637 9.36233 12.1213 9.75917 11.313 9.91994C10.5048 10.0807 9.66701 9.9982 8.90565 9.68284C8.14429 9.36747 7.49355 8.83342 7.03571 8.14821C6.57787 7.46301 6.3335 6.65743 6.3335 5.83334L6.33766 5.6525C6.38426 4.5798 6.84317 3.56649 7.61868 2.82389C8.39419 2.08129 9.42644 1.66673 10.5002 1.66667Z" fill="#B2AFFE"/>
<path d="M12.1665 11.6667C13.2716 11.6667 14.3314 12.1057 15.1128 12.8871C15.8942 13.6685 16.3332 14.7283 16.3332 15.8333V16.6667C16.3332 17.1087 16.1576 17.5326 15.845 17.8452C15.5325 18.1577 15.1085 18.3333 14.6665 18.3333H6.33317C5.89114 18.3333 5.46722 18.1577 5.15466 17.8452C4.8421 17.5326 4.6665 17.1087 4.6665 16.6667V15.8333C4.6665 14.7283 5.10549 13.6685 5.88689 12.8871C6.66829 12.1057 7.7281 11.6667 8.83317 11.6667H12.1665Z" fill="#B2AFFE"/>
</g>
<defs>
<clipPath id="clip0_1311_1473">
<rect width="20" height="20" fill="white" transform="translate(0.5)"/>
</clipPath>
</defs>
</svg>
