<svg width="16" height="16" viewBox="0 0 16 16" fill="none" xmlns="http://www.w3.org/2000/svg">
<g id="calendar 1">
<path id="Union" fill-rule="evenodd" clip-rule="evenodd" d="M11.2914 1.62304C11.1694 1.51453 11.0117 1.45458 10.8485 1.45456C10.6716 1.45456 10.5021 1.5248 10.3771 1.64982C10.252 1.77485 10.1818 1.94442 10.1818 2.12123V2.78789H6.18179V2.12123L6.17713 2.04323C6.15706 1.8745 6.07332 1.7198 5.94301 1.61074C5.81271 1.50168 5.64568 1.44649 5.47606 1.45644C5.30643 1.4664 5.147 1.54076 5.03036 1.66431C4.91371 1.78787 4.84865 1.95131 4.84846 2.12123V2.78789H4.18179L4.06446 2.79123C3.5552 2.82115 3.07662 3.04455 2.72665 3.41572C2.37668 3.78688 2.18176 4.27775 2.18179 4.78789V12.7879L2.18513 12.9052C2.21505 13.4145 2.43846 13.8931 2.80962 14.243C3.18078 14.593 3.67165 14.7879 4.18179 14.7879H12.1818L12.2991 14.7846C12.8084 14.7546 13.287 14.5312 13.6369 14.1601C13.9869 13.7889 14.1818 13.298 14.1818 12.7879V4.78789L14.1785 4.67056C14.1485 4.1613 13.9251 3.68272 13.554 3.33275C13.1828 2.98278 12.6919 2.78786 12.1818 2.78789H11.5151V2.12123L11.5105 2.04323C11.4914 1.88106 11.4134 1.73154 11.2914 1.62304ZM3.51513 6.12123H12.8485V12.5379L12.8438 12.6446C12.8058 13.1012 12.5238 13.4546 12.1818 13.4546H4.18179L4.10379 13.4486C3.77246 13.3952 3.51513 13.0079 3.51513 12.5379V6.12123ZM8.62469 8.2897C8.50266 8.18119 8.34506 8.12124 8.18177 8.12122H7.5151L7.43711 8.12589C7.26837 8.14596 7.11367 8.2297 7.00461 8.36C6.89555 8.4903 6.84036 8.65733 6.85032 8.82696C6.86028 8.99659 6.93464 9.15601 7.05819 9.27266C7.18175 9.3893 7.34518 9.45437 7.5151 9.45456V10.7879L7.51977 10.8659C7.53984 11.0346 7.62358 11.1893 7.75388 11.2984C7.88419 11.4074 8.05121 11.4626 8.22084 11.4527C8.39047 11.4427 8.54989 11.3684 8.66654 11.2448C8.78319 11.1212 8.84825 10.9578 8.84844 10.7879V8.78789L8.84377 8.70989C8.82467 8.54772 8.74671 8.39821 8.62469 8.2897Z" fill="url(#paint0_linear_12_10298)"/>
</g>
<defs>
<linearGradient id="paint0_linear_12_10298" x1="1.78179" y1="3.05456" x2="13.3818" y2="14.2546" gradientUnits="userSpaceOnUse">
<stop stop-color="#B2AFFE"/>
<stop offset="1" stop-color="#252376"/>
</linearGradient>
</defs>
</svg>
