<svg width="20" height="20" viewBox="0 0 20 20" fill="none" xmlns="http://www.w3.org/2000/svg">
<g id="circle-check 1" clip-path="url(#clip0_68_203)">
<g id="Group">
<path id="Vector" d="M14.1667 2.78332C15.4236 3.50904 16.4691 4.55043 17.1999 5.80441C17.9306 7.05839 18.3212 8.48147 18.3329 9.93277C18.3446 11.3841 17.9771 12.8133 17.2667 14.0789C16.5563 15.3445 15.5277 16.4027 14.2827 17.1486C13.0377 17.8945 11.6195 18.3023 10.1684 18.3317C8.71738 18.3611 7.28381 18.011 6.00965 17.316C4.73549 16.6211 3.66491 15.6054 2.90391 14.3696C2.14291 13.1337 1.71786 11.7206 1.67085 10.27L1.66669 9.99999L1.67085 9.72999C1.71752 8.29082 2.13631 6.88829 2.88639 5.65915C3.63646 4.43001 4.69223 3.4162 5.95076 2.71656C7.2093 2.01692 8.62764 1.65532 10.0675 1.66702C11.5074 1.67872 12.9197 2.06332 14.1667 2.78332ZM13.0892 7.74416C12.9457 7.60068 12.7548 7.51449 12.5523 7.50175C12.3497 7.48902 12.1495 7.55062 11.9892 7.67499L11.9109 7.74416L9.16669 10.4875L8.08919 9.41082L8.01085 9.34166C7.85051 9.21737 7.65033 9.15584 7.44786 9.16862C7.24539 9.18139 7.05453 9.26759 6.91107 9.41104C6.76762 9.5545 6.68142 9.74536 6.66865 9.94783C6.65587 10.1503 6.7174 10.3505 6.84169 10.5108L6.91085 10.5892L8.57752 12.2558L8.65585 12.325C8.802 12.4384 8.98171 12.4999 9.16669 12.4999C9.35166 12.4999 9.53138 12.4384 9.67752 12.325L9.75585 12.2558L13.0892 8.92249L13.1584 8.84416C13.2827 8.68382 13.3443 8.48361 13.3316 8.28109C13.3189 8.07857 13.2327 7.88765 13.0892 7.74416Z" fill="#B2AFFE"/>
</g>
</g>
<defs>
<clipPath id="clip0_68_203">
<rect width="20" height="20" fill="white"/>
</clipPath>
</defs>
</svg>
