<svg width="21" height="20" viewBox="0 0 21 20" fill="none" xmlns="http://www.w3.org/2000/svg">
<g id="circle-plus 1" clip-path="url(#clip0_68_207)">
<g id="Group">
<path id="Vector" d="M10.4631 1.57824C11.5663 1.56426 12.6612 1.76946 13.6845 2.18194C14.7077 2.59443 15.6388 3.20598 16.4239 3.98113C17.2089 4.75627 17.8322 5.67958 18.2576 6.6975C18.683 7.71541 18.9021 8.80767 18.9021 9.9109C18.9021 11.0141 18.683 12.1064 18.2576 13.1243C17.8322 14.1422 17.2089 15.0655 16.4239 15.8407C15.6388 16.6158 14.7077 17.2274 13.6845 17.6399C12.6612 18.0523 11.5663 18.2575 10.4631 18.2436C8.27842 18.2056 6.19601 17.3111 4.66443 15.7526C3.13285 14.1942 2.27463 12.0965 2.27463 9.91149C2.27463 7.72644 3.13284 5.6288 4.66443 4.07036C6.19601 2.51193 8.27842 1.61739 10.4631 1.57942V1.57824ZM12.8202 8.73298C12.9765 8.5767 13.0642 8.36474 13.0642 8.14373C13.0642 7.92271 12.9765 7.71075 12.8202 7.55447C12.6639 7.39819 12.4519 7.31039 12.2309 7.31039C12.0099 7.31039 11.7979 7.39819 11.6417 7.55447L10.4631 8.73298L9.28464 7.55447C9.12836 7.39819 8.91639 7.31039 8.69538 7.31039C8.47437 7.31039 8.26241 7.39819 8.10612 7.55447C7.94985 7.71075 7.86205 7.92271 7.86205 8.14373C7.86205 8.36474 7.94985 8.5767 8.10613 8.73298L9.28464 9.91149L8.10613 11.09C7.94985 11.2463 7.86205 11.4582 7.86205 11.6793C7.86205 11.9003 7.94984 12.1122 8.10613 12.2685C8.26241 12.4248 8.47437 12.5126 8.69538 12.5126C8.91639 12.5126 9.12836 12.4248 9.28464 12.2685L10.4631 11.09L11.6417 12.2685C11.7979 12.4248 12.0099 12.5126 12.2309 12.5126C12.4519 12.5126 12.6639 12.4248 12.8202 12.2685C12.9765 12.1122 13.0642 11.9003 13.0642 11.6793C13.0642 11.4582 12.9765 11.2463 12.8202 11.09L11.6417 9.91149L12.8202 8.73298Z" fill="#B2AFFE"/>
</g>
</g>
<defs>
<clipPath id="clip0_68_207">
<rect width="20" height="20" fill="white" transform="translate(0.5)"/>
</clipPath>
</defs>
</svg>
