<svg width="28" height="38" viewBox="0 0 28 38" fill="none" xmlns="http://www.w3.org/2000/svg">
<g id="OBJECTS" clip-path="url(#clip0_720_1393)">
<path id="Vector" d="M6.36484 26.3926C6.36484 26.3926 6.19576 28.5563 5.58332 29.2825C4.97087 30.005 3.32141 30.0455 3.32141 30.0455C3.32141 30.0455 5.25643 30.4031 5.81251 30.768C6.3686 31.1329 6.5527 33.8274 6.5527 33.8274C6.5527 33.8274 6.7293 31.1882 7.27787 30.7274C7.82644 30.2667 9.49093 29.9017 9.49093 29.9017C9.49093 29.9017 7.64984 29.5221 7.16515 29.0761C6.68421 28.6337 6.36484 26.3926 6.36484 26.3926Z" fill="#B2AFFE"/>
<path id="Vector_2" d="M20.5676 26.3926C20.5676 26.3926 20.3985 28.5563 19.7861 29.2825C19.1736 30.005 17.5242 30.0455 17.5242 30.0455C17.5242 30.0455 19.4592 30.4031 20.0153 30.768C20.5714 31.1329 20.7555 33.8274 20.7555 33.8274C20.7555 33.8274 20.9321 31.1882 21.4806 30.7274C22.0292 30.263 23.6937 29.9017 23.6937 29.9017C23.6937 29.9017 21.8526 29.5221 21.3679 29.0761C20.8832 28.63 20.5676 26.3926 20.5676 26.3926Z" fill="#B2AFFE"/>
<path id="Vector_3" d="M6.5527 11.9905C6.5527 11.9905 6.7293 9.35128 7.27787 8.89052C7.82644 8.42607 9.49093 8.06483 9.49093 8.06483C9.49093 8.06483 7.64984 7.68516 7.16515 7.23914C6.68421 6.79681 6.36484 4.55566 6.36484 4.55566C6.36484 4.55566 6.19576 6.7194 5.58332 7.44557C4.97087 8.16804 3.32141 8.20859 3.32141 8.20859C3.32141 8.20859 5.25643 8.56614 5.81251 8.93106C6.3686 9.29599 6.5527 11.9905 6.5527 11.9905Z" fill="#B2AFFE"/>
<path id="Vector_4" d="M20.5676 4.55566C20.5676 4.55566 20.3985 6.7194 19.7861 7.44557C19.1736 8.16804 17.5242 8.20859 17.5242 8.20859C17.5242 8.20859 19.4592 8.56614 20.0153 8.93106C20.5714 9.29599 20.7555 11.9905 20.7555 11.9905C20.7555 11.9905 20.9321 9.35128 21.4806 8.89052C22.0292 8.42607 23.6937 8.06483 23.6937 8.06483C23.6937 8.06483 21.8526 7.68516 21.3679 7.23914C20.887 6.79681 20.5676 4.55566 20.5676 4.55566Z" fill="#B2AFFE"/>
<path id="Vector_5" d="M22.48 18.1028C22.6191 17.3435 20.8456 17.0412 18.3733 17.0597C17.6481 15.3899 16.0438 14.2029 14.1388 14.1182C14.0336 10.7159 13.8345 8.11719 13.5677 8.11719C13.5264 8.11719 13.3986 10.7343 13.2859 14.155C10.9977 14.4352 8.80341 16.0792 8.4164 18.3461C6.19583 18.9211 4.62527 19.6399 4.65157 20.4066C4.67411 21.1033 6.4626 21.365 8.89734 21.3171C9.32943 22.1723 9.99823 22.9095 10.8474 23.4182C11.5387 23.831 12.324 24.0485 13.113 24.1923C13.1243 27.4397 13.2446 29.8836 13.5677 29.8836C13.8908 29.8836 14.0824 27.4692 14.1689 24.2476C14.7926 24.1628 15.3637 23.8679 15.9874 23.5878C17.4452 22.9353 18.4034 21.5235 18.6927 20.0012C20.8155 19.4556 22.3523 18.7921 22.4763 18.1028H22.48ZM20.2858 18.4788C20.2219 18.7884 19.647 19.0907 18.7753 19.3672C18.7828 19.2603 18.7866 19.1571 18.7866 19.0502C18.7866 18.6336 18.7302 18.2282 18.6325 17.8374C19.6959 17.9185 20.3609 18.1213 20.2858 18.4751V18.4788ZM6.8496 19.9864C6.83457 19.6326 7.42447 19.2934 8.35628 18.9949C8.35628 19.0133 8.35628 19.0317 8.35628 19.0502C8.35628 19.5662 8.43895 20.0712 8.593 20.5541C7.54846 20.4877 6.86463 20.3108 6.8496 19.9864Z" fill="#B2AFFE"/>
<path id="Vector_6" d="M22.5514 0H4.59144C2.05525 0 0 2.0163 0 4.50441V33.4956C0 35.9837 2.05525 38 4.59144 38H22.5514C25.0876 38 27.1429 35.9837 27.1429 33.4956V4.50441C27.1429 2.0163 25.0876 0 22.5514 0ZM3.11857 1.55922C3.47552 1.55922 3.76859 1.84305 3.76859 2.19692C3.76859 2.55078 3.47928 2.83461 3.11857 2.83461C2.75787 2.83461 2.46856 2.55078 2.46856 2.19692C2.46856 1.84305 2.75787 1.55922 3.11857 1.55922ZM3.11857 36.4998C2.76163 36.4998 2.46856 36.2159 2.46856 35.8621C2.46856 35.5082 2.75787 35.2244 3.11857 35.2244C3.47928 35.2244 3.76859 35.5082 3.76859 35.8621C3.76859 36.2159 3.47928 36.4998 3.11857 36.4998ZM22.1231 35.2281H5.02353C3.61454 35.2281 2.46856 34.1075 2.46856 32.7215V5.27481C2.46856 3.89252 3.61078 2.76826 5.02353 2.76826H22.1193C23.5283 2.76826 24.6743 3.88884 24.6743 5.27481V32.7215C24.6743 34.1038 23.5321 35.2281 22.1193 35.2281H22.1231ZM24.6781 36.4998C24.3211 36.4998 24.028 36.2159 24.028 35.8621C24.028 35.5082 24.3174 35.2244 24.6781 35.2244C25.0388 35.2244 25.3281 35.5082 25.3281 35.8621C25.3281 36.2159 25.0388 36.4998 24.6781 36.4998ZM24.6781 2.83092C24.3211 2.83092 24.028 2.54709 24.028 2.19323C24.028 1.83936 24.3174 1.55553 24.6781 1.55553C25.0388 1.55553 25.3281 1.83936 25.3281 2.19323C25.3281 2.54709 25.0388 2.83092 24.6781 2.83092Z" fill="#B2AFFE"/>
</g>
<defs>
<clipPath id="clip0_720_1393">
<rect width="27.1429" height="38" fill="white"/>
</clipPath>
</defs>
</svg>
