<svg width="40" height="42" viewBox="0 0 40 42" fill="none" xmlns="http://www.w3.org/2000/svg">
<g id="OBJECTS" clip-path="url(#clip0_720_1329)">
<path id="Vector" d="M32.6114 23.5966C32.6114 19.899 30.9924 16.3187 28.2125 13.8674C25.6012 11.5683 21.2373 9.78606 17.7322 10.5725C15.932 10.9753 14.3035 11.8727 12.7322 12.8082C8.8868 15.0978 6.57446 19.103 6.57446 23.5935C6.57446 26.8154 7.80538 29.9454 9.95869 32.3206C9.30029 33.5384 7.76085 36.4273 7.73858 36.8396C7.70678 37.4548 8.3938 41.2888 8.3938 41.2888C8.3938 41.2888 30.4899 41.5964 30.7252 41.2888C30.9574 40.978 31.1133 36.6778 31.2309 36.2402C31.3264 35.8724 29.3989 33.0119 28.7596 32.0764C31.1451 29.9359 32.6145 27.0279 32.6145 23.5935L32.6114 23.5966ZM13.4638 13.9276C14.8664 13.0936 16.3232 12.2913 17.9326 11.9298C21.0624 11.2258 24.965 12.8177 27.2965 14.8727C29.7806 17.0608 31.2278 20.2605 31.2278 23.5649C31.2278 27.8207 28.7055 31.1821 24.9682 33.0468C23.7723 33.643 22.71 34.2328 21.4027 34.5436C17.9835 35.3618 14.5738 34.6134 11.9053 32.273C9.41161 30.0849 7.95805 26.8788 7.95805 23.5649C7.95805 19.5502 10.0255 15.9731 13.4606 13.9245L13.4638 13.9276ZM28.4765 39.7507C28.2793 39.9473 10.7666 39.6619 10.7666 39.6619C10.7666 39.6619 10.474 37.404 10.7666 37.2867C11.5108 36.9886 28.2761 37.1884 28.4765 37.2867C28.6769 37.385 28.6737 39.5509 28.4765 39.7476V39.7507Z" fill="#B2AFFE"/>
<path id="Vector_2" d="M17.1373 33.7162C23.9725 35.4413 29.9045 27.3992 29.9045 27.3992C29.9045 27.3992 27.4649 22.747 24.984 23.5018C22.5031 24.2565 23.1933 26.5271 19.5928 27.2216C15.9923 27.9161 11.8033 22.8168 9.71045 26.6032C9.71045 26.6032 11.269 32.2321 17.1373 33.7162Z" fill="#B2AFFE"/>
<path id="Vector_3" d="M29.6246 23.7844C30.1844 23.0867 29.8917 21.685 28.8421 21.666C28.5495 21.7263 28.4509 21.6755 28.1901 21.8404C26.4598 22.925 28.6258 25.0338 29.6246 23.7875V23.7844Z" fill="#B2AFFE"/>
<path id="Vector_4" d="M11.8352 23.9107C12.22 23.4318 12.0197 22.4678 11.2976 22.4551C11.0973 22.4963 11.0273 22.4614 10.8492 22.5756C9.6596 23.3208 11.1482 24.7701 11.8352 23.9138V23.9107Z" fill="#B2AFFE"/>
<path id="Vector_5" d="M24.6311 22.3541C25.8779 22.6173 26.9148 21.8974 27.3664 20.7907C28.1616 18.8467 26.1419 17.0772 23.8518 18.1554C22.3823 19.2273 22.7608 21.9577 24.6311 22.3541Z" fill="#B2AFFE"/>
<path id="Vector_6" d="M19.119 25.7212C19.5293 27.3322 22.5922 25.3882 20.8779 24.3861C19.771 23.7424 18.5401 24.5859 19.119 25.7212Z" fill="#B2AFFE"/>
<path id="Vector_7" d="M15.8238 22.7503C15.8238 21.8655 16.5426 21.1456 17.4332 21.1456C16.5458 21.1456 15.8238 20.429 15.8238 19.541C15.8238 20.4258 15.1049 21.1456 14.2144 21.1456C15.1018 21.1456 15.8238 21.8623 15.8238 22.7503Z" fill="#B2AFFE"/>
<path id="Vector_8" d="M12.2488 19.5437C12.2488 18.9761 12.71 18.5131 13.2825 18.5131C12.7132 18.5131 12.2488 18.0532 12.2488 17.4824C12.2488 18.0501 11.7876 18.5131 11.2151 18.5131C11.7844 18.5131 12.2488 18.9729 12.2488 19.5437Z" fill="#B2AFFE"/>
<path id="Vector_9" d="M19.8727 19.7759C19.8727 17.9937 21.3231 16.5476 23.1106 16.5476C21.3231 16.5476 19.8727 15.1016 19.8727 13.3193C19.8727 15.1016 18.4223 16.5476 16.6348 16.5476C18.4223 16.5476 19.8727 17.9937 19.8727 19.7759Z" fill="#B2AFFE"/>
<path id="Vector_10" d="M5.82072 25.5186L2.84362 25.8484C2.6814 25.8675 2.56054 26.0133 2.57962 26.1782C2.59552 26.3305 2.72593 26.4414 2.87542 26.4414C2.88496 26.4414 2.89769 26.4414 2.90723 26.4414L5.88433 26.1116C6.04654 26.0926 6.16741 25.9467 6.14832 25.7818C6.12924 25.6169 5.98293 25.4996 5.81754 25.5186H5.82072Z" fill="#B2AFFE"/>
<path id="Vector_11" d="M5.87776 19.6048L3.9789 19.4462C3.81351 19.4335 3.67038 19.554 3.65766 19.719C3.64493 19.8839 3.7658 20.0266 3.93119 20.0392L5.83005 20.1978C5.83005 20.1978 5.84595 20.1978 5.85549 20.1978C6.00817 20.1978 6.13857 20.0805 6.1513 19.9251C6.16402 19.7602 6.04315 19.6175 5.87776 19.6048Z" fill="#B2AFFE"/>
<path id="Vector_12" d="M3.1743 19.7151C3.1743 19.5502 3.04071 19.417 2.87532 19.417H0.298982C0.133588 19.417 0 19.5502 0 19.7151C0 19.88 0.133588 20.0132 0.298982 20.0132H2.8785C3.04389 20.0132 3.17748 19.88 3.17748 19.7151H3.1743Z" fill="#B2AFFE"/>
<path id="Vector_13" d="M2.71625 10.6398L8.80086 14.5277C8.85175 14.5594 8.90582 14.5753 8.96307 14.5753C9.06167 14.5753 9.15709 14.5277 9.21434 14.4389C9.3034 14.2994 9.26205 14.1155 9.12528 14.0267L3.04068 10.1388C2.90073 10.05 2.71625 10.0912 2.62719 10.2276C2.53813 10.3671 2.57948 10.551 2.71625 10.6398Z" fill="#B2AFFE"/>
<path id="Vector_14" d="M11.5679 11.9522C11.6284 12.0219 11.7111 12.0568 11.797 12.0568C11.8637 12.0568 11.9337 12.0346 11.9878 11.9871C12.115 11.8824 12.1309 11.6921 12.0228 11.5685L10.8618 10.1953C10.7569 10.0685 10.566 10.0526 10.442 10.1605C10.3148 10.2651 10.2989 10.4554 10.407 10.5791L11.5679 11.9522Z" fill="#B2AFFE"/>
<path id="Vector_15" d="M9.59597 9.82714C9.6564 9.89373 9.73592 9.92545 9.81861 9.92545C9.88859 9.92545 9.95856 9.90008 10.0158 9.84934C10.1399 9.74152 10.1494 9.55124 10.0413 9.43074L9.18566 8.47304C9.07434 8.34936 8.88668 8.33985 8.76581 8.44767C8.64177 8.55549 8.63223 8.74576 8.74037 8.86626L9.59597 9.82397V9.82714Z" fill="#B2AFFE"/>
<path id="Vector_16" d="M19.5929 8.96862C19.7583 8.96862 19.8919 8.83543 19.8919 8.67053V6.16528C19.8919 6.00038 19.7583 5.86719 19.5929 5.86719C19.4275 5.86719 19.2939 6.00038 19.2939 6.16528V8.67053C19.2939 8.83543 19.4275 8.96862 19.5929 8.96862Z" fill="#B2AFFE"/>
<path id="Vector_17" d="M19.5929 5.14369C19.7583 5.14369 19.8919 5.0105 19.8919 4.8456V0.298093C19.8919 0.13319 19.7583 0 19.5929 0C19.4275 0 19.2939 0.13319 19.2939 0.298093V4.84877C19.2939 5.01367 19.4275 5.14686 19.5929 5.14686V5.14369Z" fill="#B2AFFE"/>
<path id="Vector_18" d="M15.2291 9.74184C15.2768 9.85601 15.3881 9.92895 15.5058 9.92895C15.5439 9.92895 15.5821 9.9226 15.6171 9.90675C15.7698 9.84649 15.8429 9.67208 15.7825 9.51986L13.6801 4.34129C13.6196 4.18907 13.4447 4.11613 13.292 4.17639C13.1394 4.23664 13.0662 4.41106 13.1266 4.56327L15.2291 9.74184Z" fill="#B2AFFE"/>
<path id="Vector_19" d="M37.1534 25.8484L34.1763 25.5186C34.0141 25.4996 33.8646 25.6169 33.8455 25.7818C33.8265 25.9436 33.9441 26.0926 34.1095 26.1116L37.0866 26.4414C37.0866 26.4414 37.1089 26.4414 37.1184 26.4414C37.2679 26.4414 37.3983 26.3305 37.4142 26.1782C37.4333 26.0165 37.3156 25.8675 37.1502 25.8484H37.1534Z" fill="#B2AFFE"/>
<path id="Vector_20" d="M34.1444 20.1978C34.1444 20.1978 34.1603 20.1978 34.1698 20.1978L36.0687 20.0392C36.2341 20.0266 36.3549 19.8807 36.3422 19.719C36.3295 19.554 36.1832 19.4335 36.021 19.4462L34.1221 19.6048C33.9567 19.6175 33.8359 19.7633 33.8486 19.9251C33.8613 20.0805 33.9917 20.1978 34.1444 20.1978Z" fill="#B2AFFE"/>
<path id="Vector_21" d="M39.701 19.4209H37.1215C36.9561 19.4209 36.8225 19.5541 36.8225 19.719C36.8225 19.8839 36.9561 20.0171 37.1215 20.0171H39.701C39.8664 20.0171 40 19.8839 40 19.719C40 19.5541 39.8664 19.4209 39.701 19.4209Z" fill="#B2AFFE"/>
<path id="Vector_22" d="M30.7857 14.4387C30.843 14.5275 30.9384 14.5751 31.037 14.5751C31.091 14.5751 31.1483 14.5592 31.1992 14.5275L37.2838 10.6396C37.4237 10.5508 37.4619 10.3669 37.3729 10.2274C37.2838 10.0878 37.0993 10.0498 36.9594 10.1386L30.8748 14.0265C30.7348 14.1153 30.6966 14.2992 30.7857 14.4387Z" fill="#B2AFFE"/>
<path id="Vector_23" d="M28.203 12.0603C28.2889 12.0603 28.3716 12.0255 28.432 11.9557L29.5929 10.5826C29.6979 10.4557 29.682 10.2686 29.5579 10.164C29.4307 10.0593 29.2431 10.0752 29.1381 10.1988L27.9772 11.572C27.8722 11.6988 27.8881 11.8859 28.0121 11.9906C28.0694 12.0381 28.1362 12.0603 28.203 12.0603Z" fill="#B2AFFE"/>
<path id="Vector_24" d="M30.1813 9.9255C30.264 9.9255 30.3467 9.89062 30.4039 9.8272L31.2595 8.86949C31.3708 8.74582 31.3581 8.55871 31.2341 8.45089C31.11 8.3399 30.9224 8.35259 30.8142 8.47626L29.9586 9.43397C29.8505 9.55764 29.86 9.74474 29.9841 9.85256C30.0413 9.9033 30.1113 9.92867 30.1813 9.92867V9.9255Z" fill="#B2AFFE"/>
<path id="Vector_25" d="M24.3829 9.90318C24.421 9.91904 24.456 9.92538 24.4942 9.92538C24.6119 9.92538 24.7232 9.85561 24.7709 9.73828L26.8733 4.55971C26.9337 4.40749 26.8606 4.23307 26.7079 4.17282C26.5553 4.1094 26.3803 4.18551 26.3199 4.33772L24.2175 9.51629C24.157 9.66851 24.2302 9.84293 24.3829 9.90318Z" fill="#B2AFFE"/>
</g>
<defs>
<clipPath id="clip0_720_1329">
<rect width="40" height="41.4286" fill="white"/>
</clipPath>
</defs>
</svg>
