<svg width="40" height="42" viewBox="0 0 40 42" fill="none" xmlns="http://www.w3.org/2000/svg">
<g id="OBJECTS" clip-path="url(#clip0_723_1436)">
<path id="Vector" d="M20.2691 6.06932C10.6027 7.19799 4.79022 14.2612 5.84868 22.8695C6.91167 31.4779 14.5426 33.995 14.5426 33.995C14.5426 33.995 13.6967 39.2443 15.393 39.6653C17.0892 40.0863 18.7855 38.6128 18.7855 38.6128C18.7855 38.6128 19.6313 41.1344 21.115 40.9238C22.6032 40.7133 23.2364 38.6128 23.2364 38.6128C23.2364 38.6128 25.1453 41.9988 26.629 40.9373C28.1126 39.8758 27.4793 33.7845 27.4793 33.7845C27.4793 33.7845 34.8976 31.0569 35.5354 22.238C36.1732 13.4191 31.0845 4.81076 20.2691 6.06932ZM27.5472 9.10151C27.5472 9.10151 31.0618 10.1361 30.311 11.3947C29.5646 12.6533 26.724 10.4362 27.5472 9.10151ZM17.5415 20.2897C17.1254 21.3019 16.361 22.2649 15.6056 23.0129C14.9768 23.6354 14.1716 23.9355 13.5384 24.5536C13.3801 24.7104 13.1268 24.7283 12.9458 24.5894L12.9051 24.5536L10.1911 21.1944C7.71683 18.8117 10.2544 15.681 12.7739 17.898L13.2217 17.9965L13.6198 17.7995C14.2485 17.253 14.7733 16.738 15.5558 16.8679C16.2433 16.9798 16.8269 17.1635 17.2521 17.7636C17.7632 18.4847 17.8763 19.4701 17.5415 20.2897ZM22.2368 29.6013C21.1874 29.8879 20.2917 28.5756 20.2917 28.5756C20.2917 28.5756 19.0207 29.9058 18.1974 29.5341C17.3742 29.1668 19.9932 24.7238 20.6581 24.7238C20.6581 24.7238 23.2817 29.3146 22.2368 29.6013ZM31.3513 20.2897C30.9352 21.3019 30.1662 22.2649 29.4153 23.0129C28.7866 23.6354 27.9814 23.9355 27.3482 24.5536C27.1853 24.7104 26.932 24.7283 26.7556 24.5894L26.7104 24.5536L24.0009 21.1944C21.5266 18.8117 24.0597 15.681 26.5837 17.898L27.0315 17.9965L27.4251 17.7995C28.0583 17.253 28.583 16.738 29.3656 16.8679C30.0531 16.9798 30.6321 17.1635 31.0573 17.7636C31.573 18.4847 31.6861 19.4701 31.3513 20.2897Z" fill="#B2AFFE"/>
<path id="Vector_2" d="M7.73041 35.602L7.05643 33.5283C6.38245 33.6045 6.38245 35.5259 6.38245 35.5259C6.38245 35.5259 4.21577 36.2649 4.13887 36.7083C4.0665 37.1517 6.38245 37.2279 6.38245 37.2279C6.38245 37.2279 6.45935 39.3732 7.05643 39.4494C7.65351 39.5255 7.87968 37.2279 7.87968 37.2279C7.87968 37.2279 9.8971 36.7083 9.8971 36.1932C9.8971 35.6782 7.73041 35.602 7.73041 35.602Z" fill="#B2AFFE"/>
<path id="Vector_3" d="M33.3778 8.92652C33.1788 9.3341 35.3862 10.0462 35.3862 10.0462C35.3862 10.0462 34.8524 12.1289 35.4043 12.3663C35.9561 12.6037 36.8201 10.4628 36.8201 10.4628C36.8201 10.4628 38.9053 10.5255 39.0501 10.0238C39.1948 9.52669 37.1367 8.85486 37.1367 8.85486L37.0734 6.67813C36.4085 6.56168 35.8656 8.41145 35.8656 8.41145C35.8656 8.41145 33.5768 8.52342 33.3778 8.92652Z" fill="#B2AFFE"/>
<path id="Vector_4" d="M38.2314 16.2578C38.5254 16.3026 38.7606 15.1023 38.7606 15.1023L40 14.9097C40.0181 14.529 38.9235 14.3588 38.9235 14.3588C38.9235 14.3588 38.6973 13.0823 38.4485 13.0017C38.2043 12.9211 37.9555 14.2065 37.9555 14.2065C37.9555 14.2065 36.7296 14.0587 36.6347 14.3857C36.5397 14.7126 37.8243 15.0396 37.8243 15.0396C37.8243 15.0396 37.9374 16.213 38.2359 16.2578H38.2314Z" fill="#B2AFFE"/>
<path id="Vector_5" d="M5.76273 30.3265C5.95271 30.3265 6.11102 30.1742 6.11102 29.9816C6.11102 29.789 5.95723 29.6367 5.76273 29.6367C5.56822 29.6367 5.41443 29.789 5.41443 29.9816C5.41443 30.1742 5.56822 30.3265 5.76273 30.3265Z" fill="#B2AFFE"/>
<path id="Vector_6" d="M1.78675 33.5334C2.46876 33.5334 3.02163 32.9859 3.02163 32.3106C3.02163 31.6353 2.46876 31.0879 1.78675 31.0879C1.10475 31.0879 0.55188 31.6353 0.55188 32.3106C0.55188 32.9859 1.10475 33.5334 1.78675 33.5334Z" fill="#B2AFFE"/>
<path id="Vector_7" d="M11.34 39.4541C10.9601 39.4541 10.6479 39.7587 10.6479 40.1394C10.6479 40.5201 10.9555 40.8246 11.34 40.8246C11.7245 40.8246 12.0321 40.5201 12.0321 40.1394C12.0321 39.7587 11.7245 39.4541 11.34 39.4541Z" fill="#B2AFFE"/>
<path id="Vector_8" d="M38.6882 18.1309C38.2766 18.1309 37.9419 18.4623 37.9419 18.8699C37.9419 19.2774 38.2766 19.6089 38.6882 19.6089C39.0999 19.6089 39.4346 19.2774 39.4346 18.8699C39.4346 18.4623 39.0999 18.1309 38.6882 18.1309Z" fill="#B2AFFE"/>
<path id="Vector_9" d="M36.5803 32.3105C36.033 32.3105 35.5942 32.7495 35.5942 33.2869C35.5942 33.8244 36.0375 34.2633 36.5803 34.2633C37.1231 34.2633 37.5664 33.8244 37.5664 33.2869C37.5664 32.7495 37.1231 32.3105 36.5803 32.3105Z" fill="#B2AFFE"/>
<path id="Vector_10" d="M28.0719 4.27732C28.3795 4.27732 28.6237 4.03098 28.6237 3.7309V0.546422C28.6237 0.241859 28.3749 0 28.0719 0C27.7688 0 27.52 0.246338 27.52 0.546422V3.7309C27.52 4.03546 27.7688 4.27732 28.0719 4.27732Z" fill="#B2AFFE"/>
<path id="Vector_11" d="M23.5847 3.71278C23.6571 3.94568 23.8787 4.09348 24.1139 4.09348C24.1682 4.09348 24.227 4.08453 24.2813 4.06661C24.5708 3.97703 24.7336 3.66799 24.6432 3.38134L23.743 0.568617C23.6525 0.281969 23.3404 0.12073 23.0464 0.210307C22.7569 0.299885 22.5941 0.608927 22.6846 0.895574L23.5847 3.7083V3.71278Z" fill="#B2AFFE"/>
<path id="Vector_12" d="M30.7181 6.03776C30.8312 6.03776 30.9488 6.00193 31.0483 5.93027L33.6945 3.98644C33.9388 3.80729 33.993 3.46242 33.8076 3.22056C33.6266 2.9787 33.2784 2.92495 33.0341 3.10411L30.3879 5.04793C30.1437 5.22709 30.0894 5.57196 30.2703 5.81382C30.3789 5.95714 30.5462 6.03776 30.7136 6.03776H30.7181Z" fill="#B2AFFE"/>
<path id="Vector_13" d="M0.551849 21.7902H3.61868C3.92627 21.7902 4.17053 21.5438 4.17053 21.2437C4.17053 20.9437 3.92175 20.6973 3.61868 20.6973H0.551849C0.248784 20.6928 0 20.9392 0 21.2437C0 21.5483 0.248784 21.7902 0.551849 21.7902Z" fill="#B2AFFE"/>
<path id="Vector_14" d="M0.79161 26.3985L4.37863 24.6966C4.65455 24.5667 4.77216 24.2397 4.63646 23.9665C4.50528 23.6933 4.17508 23.5769 3.89915 23.7112L0.312135 25.4132C0.0362106 25.5431 -0.0813965 25.87 0.054304 26.1432C0.149294 26.3403 0.348322 26.4523 0.551873 26.4523C0.633293 26.4523 0.714713 26.4344 0.79161 26.3985Z" fill="#B2AFFE"/>
</g>
<defs>
<clipPath id="clip0_723_1436">
<rect width="40" height="41.1429" fill="white"/>
</clipPath>
</defs>
</svg>
