<svg width="42" height="27" viewBox="0 0 42 27" fill="none" xmlns="http://www.w3.org/2000/svg">
<g id="OBJECTS" clip-path="url(#clip0_723_1489)">
<path id="Vector" d="M0.324018 1.09878C0.324018 1.09878 -0.406121 25.5787 0.324018 26.3125C1.05757 27.0463 16.428 27.0728 17.1581 26.3125C17.8917 25.5522 17.7859 1.39096 17.6802 0.474576C17.5778 -0.441804 1.16334 0.0794699 0.324018 1.09878ZM16.2028 23.404C16.2028 23.404 15.227 23.3575 14.5924 23.6895C13.9578 24.0215 13.8111 25.3994 13.8111 25.3994H4.38413C4.38413 25.3994 4.38413 24.3071 3.65058 23.4505C2.91703 22.5939 1.3544 23.9717 1.3544 23.9717L1.8423 4.10357C1.8423 4.10357 3.25822 4.53188 3.84506 4.10357C4.4319 3.67526 3.84506 2.05832 3.84506 2.05832L14.6402 1.7263C14.6402 1.7263 14.2001 2.67588 14.5412 3.29344C14.8824 3.911 16.3973 4.71781 16.3973 4.71781L16.2028 23.3973V23.404Z" fill="#B2AFFE"/>
<path id="Vector_2" d="M8.8776 7.5498C5.53739 7.5498 2.83179 10.1861 2.83179 13.4332C2.83179 16.6804 5.5408 19.3167 8.8776 19.3167C12.2144 19.3167 14.9234 16.6804 14.9234 13.4332C14.9234 10.1861 12.2144 7.5498 8.8776 7.5498ZM8.8776 18.2973C6.11741 18.2973 3.87923 16.1193 3.87923 13.4332C3.87923 10.7472 6.11741 8.56911 8.8776 8.56911C11.6378 8.56911 13.876 10.7472 13.876 13.4332C13.876 16.1193 11.6378 18.2973 8.8776 18.2973Z" fill="#B2AFFE"/>
<path id="Vector_3" d="M10.3687 10.1006C9.90809 9.91132 9.40996 9.80176 8.87771 9.80176C6.81012 9.80176 5.14172 11.4253 5.14172 13.4374C5.14172 15.4494 6.81012 17.0697 8.87771 17.0697C9.40996 17.0697 9.90809 16.9601 10.3687 16.7709C9.04489 16.2098 8.12369 14.9315 8.12369 13.4374C8.12369 11.9433 9.04489 10.6617 10.3687 10.1006Z" fill="#B2AFFE"/>
<path id="Vector_4" d="M11.6412 5.26245C11.6719 5.87005 11.7914 6.32492 11.9347 6.32492C12.078 6.32492 12.1974 5.87005 12.2281 5.26245C12.8524 5.23257 13.3199 5.11636 13.3199 4.97691C13.3199 4.83746 12.8524 4.72126 12.2281 4.69138C12.1974 4.08378 12.078 3.62891 11.9347 3.62891C11.7914 3.62891 11.6719 4.08378 11.6412 4.69138C11.0169 4.72126 10.5494 4.83746 10.5494 4.97691C10.5494 5.11636 11.0169 5.23257 11.6412 5.26245Z" fill="#B2AFFE"/>
<path id="Vector_5" d="M10.4812 22.249C10.4641 21.8805 10.3891 21.6016 10.3038 21.6016C10.2185 21.6016 10.1434 21.8771 10.1264 22.249C9.74766 22.2656 9.46106 22.3387 9.46106 22.4217C9.46106 22.5047 9.74424 22.5777 10.1264 22.5943C10.1434 22.9629 10.2185 23.2418 10.3038 23.2418C10.3891 23.2418 10.4641 22.9662 10.4812 22.5943C10.8599 22.5777 11.1465 22.5047 11.1465 22.4217C11.1465 22.3387 10.8633 22.2656 10.4812 22.249Z" fill="#B2AFFE"/>
<path id="Vector_6" d="M6.70088 21.1568C6.66335 20.3832 6.50982 19.7988 6.32899 19.7988C6.14816 19.7988 5.99121 20.3799 5.9571 21.1568C5.16213 21.1933 4.56165 21.3427 4.56165 21.5187C4.56165 21.6947 5.15872 21.8474 5.9571 21.8806C5.99463 22.6542 6.14816 23.2386 6.32899 23.2386C6.50982 23.2386 6.66676 22.6575 6.70088 21.8806C7.49585 21.8441 8.09633 21.6947 8.09633 21.5187C8.09633 21.3427 7.49926 21.19 6.70088 21.1568Z" fill="#B2AFFE"/>
<path id="Vector_7" d="M5.32938 6.32518C5.43173 6.32518 5.51703 6.24218 5.51703 6.14257C5.51703 6.04297 5.43173 5.95996 5.32938 5.95996C5.22702 5.95996 5.14172 6.04297 5.14172 6.14257C5.14172 6.24218 5.22702 6.32518 5.32938 6.32518Z" fill="#B2AFFE"/>
<path id="Vector_8" d="M7.40037 4.97984C7.7825 4.97984 8.09298 4.6777 8.09298 4.30584C8.09298 3.93398 7.7825 3.63184 7.40037 3.63184C7.01824 3.63184 6.70776 3.93398 6.70776 4.30584C6.70776 4.6777 7.01824 4.97984 7.40037 4.97984Z" fill="#B2AFFE"/>
<path id="Vector_9" d="M13.3882 19.8018C13.122 19.8018 12.9037 20.0143 12.9037 20.2732C12.9037 20.5322 13.122 20.7447 13.3882 20.7447C13.6543 20.7447 13.8727 20.5322 13.8727 20.2732C13.8727 20.0143 13.6543 19.8018 13.3882 19.8018Z" fill="#B2AFFE"/>
<path id="Vector_10" d="M41.925 0.600552C41.8192 -0.315828 25.4047 0.205447 24.5688 1.22475C24.5688 1.22475 23.8353 25.708 24.5688 26.4385C25.3024 27.1722 40.6728 27.1988 41.4029 26.4385C42.1365 25.6748 42.0307 1.51693 41.925 0.600552ZM40.4442 23.53C40.4442 23.53 39.4684 23.4835 38.8338 23.8155C38.1992 24.1475 38.0525 25.5254 38.0525 25.5254H28.6255C28.6255 25.5254 28.6255 24.4331 27.892 23.5765C27.1584 22.7198 25.5958 24.0977 25.5958 24.0977L26.0837 4.22955C26.0837 4.22955 27.4996 4.65786 28.0864 4.22955C28.6733 3.80124 28.0864 2.1843 28.0864 2.1843L38.8816 1.85227C38.8816 1.85227 38.4414 2.80186 38.7826 3.41942C39.1238 4.03698 40.6387 4.84379 40.6387 4.84379L40.4442 23.5233V23.53Z" fill="#B2AFFE"/>
<path id="Vector_11" d="M33.1189 7.67969C29.7787 7.67969 27.0731 10.3159 27.0731 13.5631C27.0731 16.8103 29.7821 19.4465 33.1189 19.4465C36.4557 19.4465 39.1648 16.8103 39.1648 13.5631C39.1648 10.3159 36.4557 7.67969 33.1189 7.67969ZM33.1189 18.4272C30.3587 18.4272 28.1206 16.2492 28.1206 13.5631C28.1206 10.8771 30.3587 8.69899 33.1189 8.69899C35.8791 8.69899 38.1173 10.8771 38.1173 13.5631C38.1173 16.2492 35.8791 18.4272 33.1189 18.4272Z" fill="#B2AFFE"/>
<path id="Vector_12" d="M35.8826 5.39234C35.9133 5.99994 36.0327 6.45481 36.176 6.45481C36.3193 6.45481 36.4387 5.99994 36.4694 5.39234C37.0938 5.36245 37.5612 5.24625 37.5612 5.1068C37.5612 4.96735 37.0938 4.85114 36.4694 4.82126C36.4387 4.21366 36.3193 3.75879 36.176 3.75879C36.0327 3.75879 35.9133 4.21366 35.8826 4.82126C35.2582 4.85114 34.7908 4.96735 34.7908 5.1068C34.7908 5.24625 35.2582 5.36245 35.8826 5.39234Z" fill="#B2AFFE"/>
<path id="Vector_13" d="M34.726 22.375C34.7089 22.0064 34.6338 21.7275 34.5485 21.7275C34.4632 21.7275 34.3882 22.0031 34.3711 22.375C33.9924 22.3916 33.7058 22.4646 33.7058 22.5476C33.7058 22.6306 33.989 22.7037 34.3711 22.7203C34.3882 23.0888 34.4632 23.3677 34.5485 23.3677C34.6338 23.3677 34.7089 23.0921 34.726 22.7203C35.1047 22.7037 35.3913 22.6306 35.3913 22.5476C35.3913 22.4646 35.1081 22.3916 34.726 22.375Z" fill="#B2AFFE"/>
<path id="Vector_14" d="M30.9422 21.2857C30.9047 20.5121 30.7512 19.9277 30.5703 19.9277C30.3895 19.9277 30.2325 20.5088 30.1984 21.2857C29.4035 21.3222 28.803 21.4716 28.803 21.6476C28.803 21.8236 29.4001 21.9763 30.1984 22.0095C30.236 22.7831 30.3895 23.3675 30.5703 23.3675C30.7512 23.3675 30.9081 22.7864 30.9422 22.0095C31.7372 21.973 32.3377 21.8236 32.3377 21.6476C32.3377 21.4716 31.7406 21.3189 30.9422 21.2857Z" fill="#B2AFFE"/>
<path id="Vector_15" d="M29.5706 6.45409C29.6742 6.45409 29.7582 6.37233 29.7582 6.27148C29.7582 6.17063 29.6742 6.08887 29.5706 6.08887C29.4669 6.08887 29.3829 6.17063 29.3829 6.27148C29.3829 6.37233 29.4669 6.45409 29.5706 6.45409Z" fill="#B2AFFE"/>
<path id="Vector_16" d="M31.645 5.1068C32.0271 5.1068 32.3376 4.80466 32.3376 4.43279C32.3376 4.06093 32.0271 3.75879 31.645 3.75879C31.2629 3.75879 30.9524 4.06093 30.9524 4.43279C30.9524 4.80466 31.2629 5.1068 31.645 5.1068Z" fill="#B2AFFE"/>
<path id="Vector_17" d="M37.6328 19.9277C37.3667 19.9277 37.1483 20.1402 37.1483 20.3992C37.1483 20.6582 37.3667 20.8707 37.6328 20.8707C37.8989 20.8707 38.1173 20.6582 38.1173 20.3992C38.1173 20.1402 37.8989 19.9277 37.6328 19.9277Z" fill="#B2AFFE"/>
<path id="Vector_18" d="M33.6272 9.70136C33.5999 9.6084 33.5112 9.54199 33.4123 9.54199C33.3133 9.54199 33.2212 9.60508 33.1939 9.70136L32.4809 12.0986C30.9319 12.0156 29.7104 11.9458 29.6047 11.9325C29.5023 11.9193 29.3965 11.9757 29.3556 12.0687C29.2771 12.2546 29.2635 12.2812 31.7951 14.4028L31.0138 17.0324C30.9865 17.1254 31.024 17.225 31.1059 17.2748C31.1878 17.3279 31.2969 17.3213 31.372 17.2615L33.3338 15.6877C34.3506 16.531 35.1967 17.2283 35.2547 17.2715C35.2956 17.3013 35.3434 17.3146 35.3912 17.3146C35.4355 17.3146 35.4799 17.3013 35.5208 17.2748C35.6471 17.1918 35.7051 17.1519 34.9476 14.3928L37.0289 12.7194C37.1005 12.663 37.1278 12.5667 37.1005 12.4804C37.0732 12.3941 36.9913 12.3343 36.8992 12.331C36.1179 12.2911 35.224 12.2446 34.3369 12.1982C34.1322 11.4777 33.9002 10.6509 33.6307 9.70468L33.6272 9.70136ZM33.4055 10.5646C33.5522 11.0793 33.7057 11.6238 33.8592 12.1683C33.5488 12.1517 33.2417 12.1351 32.9449 12.1185L33.4089 10.5613L33.4055 10.5646ZM30.1471 12.404C30.6726 12.4339 31.4778 12.4804 32.3546 12.5269L31.935 13.9346C31.2116 13.3237 30.5497 12.7593 30.1471 12.404ZM31.6484 16.468L32.1704 14.7116C32.2011 14.7381 32.2318 14.7614 32.2625 14.7879C32.5047 14.9905 32.747 15.193 32.9858 15.3922L31.6484 16.468ZM35.0466 16.5277C34.7088 16.2521 34.2243 15.8504 33.6852 15.4022L34.5587 14.7016C34.7634 15.452 34.9374 16.0994 35.0466 16.531V16.5277ZM36.2987 12.736L34.8214 13.9247C34.7156 13.5429 34.5962 13.1179 34.4631 12.6431C35.1899 12.6796 35.8449 12.7161 36.2987 12.7394V12.736ZM33.3406 15.1133C33.0029 14.8344 32.6549 14.5389 32.3103 14.2534L32.8152 12.5567C33.2042 12.5767 33.5999 12.5999 33.9855 12.6198C34.1424 13.1743 34.2926 13.7255 34.4359 14.2401L33.3406 15.12V15.1133Z" fill="#B2AFFE"/>
</g>
<defs>
<clipPath id="clip0_723_1489">
<rect width="42" height="27" fill="white"/>
</clipPath>
</defs>
</svg>
