<svg width="27" height="43" viewBox="0 0 27 43" fill="none" xmlns="http://www.w3.org/2000/svg">
<g id="OBJECTS" clip-path="url(#clip0_720_1417)">
<path id="Vector" d="M25.1302 12.7342C24.0953 12.2285 19.5883 22.8766 18.4793 22.7312C17.3703 22.5858 16.4837 15.3417 16.5579 13.025C16.632 10.7083 18.0344 3.53685 17.0028 2.52229C15.9679 1.50774 14.8589 1.21696 14.4172 2.52229C13.9723 3.82762 13.3082 16.4289 12.5699 16.1413C11.8317 15.8506 12.7182 2.30737 12.125 0.929349C11.5351 -0.445513 9.39118 -0.157898 9.24288 0.929349C9.09458 2.0166 9.02043 15.3449 8.43046 15.3449C7.84049 15.3449 6.65733 3.97301 6.36073 3.03115C6.06413 2.08929 4.1427 2.16198 4.07177 3.17654C3.99762 4.19109 5.32909 15.4902 4.95834 15.9264C4.58759 16.3626 2.81446 10.133 2.07619 9.26386C1.33792 8.39469 -0.141838 9.40925 0.00646082 10.5692C0.154759 11.7291 2.96276 20.3481 3.25613 22.9556C3.55273 25.5631 6.43165 32.0834 6.36073 33.8944C6.28658 35.7055 5.84491 43.0096 5.84491 43.0096H15.0459C15.0459 43.0096 14.659 36.7453 15.0459 35.225C15.4327 33.7048 20.4684 32.1877 21.0487 28.5815C21.629 24.9752 25.9426 17.8133 26.755 16.3657C27.5674 14.9182 26.165 13.2494 25.1302 12.7437V12.7342ZM10.8613 27.785C8.57553 27.785 7.16348 26.0087 7.16348 26.0087C7.16348 26.0087 8.64968 26.9316 10.7613 26.9696C12.8697 27.0043 14.0174 25.8286 14.0174 25.8286C14.0174 25.8286 13.147 27.7881 10.8613 27.7881V27.785ZM12.4603 23.1452C12.5828 23.3918 12.6602 23.6667 12.6602 23.9607C12.6602 24.991 11.8091 25.8254 10.7581 25.8254C9.70712 25.8254 8.85601 24.991 8.85601 23.9607C8.85601 23.4802 9.04622 23.0441 9.35249 22.7122C7.2473 23.2685 6.14151 25.4809 6.14151 25.4809C6.14151 25.4809 6.24789 24.5643 6.73148 23.5656C6.451 23.1515 5.86425 22.235 6.14151 22.0959C6.36395 21.9821 6.82497 22.4783 7.13768 22.8608C7.43106 22.4278 7.81148 22.0169 8.29828 21.6977C8.06294 21.1319 7.79213 20.3165 8.14354 20.2501C8.48204 20.1837 8.81733 20.8285 9.02688 21.3279C9.47177 21.1604 9.9876 21.0592 10.5776 21.0655C10.8258 21.0655 11.0644 21.0877 11.2868 21.1161C11.4996 20.5599 11.8478 19.8298 12.1702 19.9657C12.4764 20.0952 12.254 20.7653 12.0315 21.2773C12.8246 21.5175 13.4339 21.9379 13.9014 22.4246C14.1657 21.9758 14.5881 21.4006 14.8911 21.6755C15.22 21.9758 14.717 22.6395 14.3817 23.0125C15.2103 24.1977 15.3811 25.4872 15.3811 25.4872C14.3237 24.3336 13.3501 23.594 12.4668 23.1484L12.4603 23.1452Z" fill="#B2AFFE"/>
</g>
<defs>
<clipPath id="clip0_720_1417">
<rect width="27" height="43" fill="white"/>
</clipPath>
</defs>
</svg>
