<svg width="20" height="20" viewBox="0 0 20 20" fill="none" xmlns="http://www.w3.org/2000/svg">
<path d="M1.6665 7.5C1.6665 9.71014 2.54448 11.8298 4.10728 13.3926C5.67008 14.9554 7.7897 15.8333 9.99984 15.8333C12.21 15.8333 14.3296 14.9554 15.8924 13.3926C17.4552 11.8298 18.3332 9.71014 18.3332 7.5" stroke="white" stroke-width="2" stroke-linecap="round" stroke-linejoin="round"/>
<path d="M10 15.8333C10 13.6232 10.878 11.5036 12.4408 9.94078C14.0036 8.37797 16.1232 7.5 18.3333 7.5" stroke="white" stroke-width="2" stroke-linecap="round" stroke-linejoin="round"/>
<path d="M1.6665 7.5C2.76085 7.5 3.84449 7.71555 4.85553 8.13434C5.86658 8.55313 6.78524 9.16696 7.55906 9.94078C8.33288 10.7146 8.94671 11.6333 9.3655 12.6443C9.78429 13.6554 9.99984 14.739 9.99984 15.8333" stroke="white" stroke-width="2" stroke-linecap="round" stroke-linejoin="round"/>
<path d="M10 3.33333C10.8398 4.13504 11.4971 5.10826 11.927 6.18676C12.357 7.26526 12.5496 8.42373 12.4917 9.58333" stroke="white" stroke-width="2" stroke-linecap="round" stroke-linejoin="round"/>
<path d="M7.50811 9.58333C7.4502 8.42373 7.64279 7.26526 8.07275 6.18676C8.50271 5.10826 9.15996 4.13504 9.99977 3.33333" stroke="white" stroke-width="2" stroke-linecap="round" stroke-linejoin="round"/>
</svg>
