<svg width="41" height="40" viewBox="0 0 41 40" fill="none" xmlns="http://www.w3.org/2000/svg">
<g id="hand-three-fingers 1" clip-path="url(#clip0_204_3250)">
<g id="Group">
<path id="Vector" d="M13.8333 21.6667V7.5C13.8333 6.83696 14.0966 6.20107 14.5655 5.73223C15.0343 5.26339 15.6702 5 16.3333 5C16.9963 5 17.6322 5.26339 18.101 5.73223C18.5699 6.20107 18.8333 6.83696 18.8333 7.5V20" stroke="#B2AFFE" stroke-width="2" stroke-linecap="round" stroke-linejoin="round"/>
<path id="Vector_2" d="M28.8334 19.1667C28.8334 18.5036 29.0968 17.8677 29.5656 17.3989C30.0345 16.9301 30.6704 16.6667 31.3334 16.6667C31.9964 16.6667 32.6323 16.9301 33.1012 17.3989C33.57 17.8677 33.8334 18.5036 33.8334 19.1667V26.6667C33.8334 29.3188 32.7798 31.8624 30.9045 33.7377C29.0291 35.6131 26.4856 36.6667 23.8334 36.6667H20.5001H20.8467C19.1906 36.6669 17.5604 36.2559 16.1024 35.4705C14.6444 34.685 13.4043 33.5498 12.4934 32.1667C12.3841 32.0003 12.2752 31.8336 12.1667 31.6667C11.6467 30.8683 9.82173 27.6867 6.69006 22.12C6.37081 21.5525 6.28553 20.8829 6.45237 20.2536C6.6192 19.6242 7.02497 19.0848 7.5834 18.75C8.17819 18.3931 8.87518 18.2452 9.56366 18.3297C10.2521 18.4143 10.8926 18.7265 11.3834 19.2167L13.8334 21.6667" stroke="#B2AFFE" stroke-width="2" stroke-linecap="round" stroke-linejoin="round"/>
<path id="Vector_3" d="M18.8333 9.16667V5.83333C18.8333 5.50503 18.8979 5.17994 19.0236 4.87662C19.1492 4.57331 19.3333 4.29771 19.5655 4.06557C19.7976 3.83342 20.0732 3.64927 20.3765 3.52363C20.6799 3.398 21.0049 3.33333 21.3333 3.33333C21.6616 3.33333 21.9866 3.398 22.29 3.52363C22.5933 3.64927 22.8689 3.83342 23.101 4.06557C23.3332 4.29771 23.5173 4.57331 23.643 4.87662C23.7686 5.17994 23.8333 5.50503 23.8333 5.83333V20" stroke="#B2AFFE" stroke-width="2" stroke-linecap="round" stroke-linejoin="round"/>
<path id="Vector_4" d="M23.8333 9.16667C23.8333 8.50363 24.0966 7.86774 24.5655 7.3989C25.0343 6.93006 25.6702 6.66667 26.3333 6.66667C26.9963 6.66667 27.6322 6.93006 28.101 7.3989C28.5699 7.86774 28.8333 8.50363 28.8333 9.16667V20" stroke="#B2AFFE" stroke-width="2" stroke-linecap="round" stroke-linejoin="round"/>
</g>
</g>
<defs>
<clipPath id="clip0_204_3250">
<rect width="40" height="40" fill="white" transform="translate(0.5)"/>
</clipPath>
</defs>
</svg>
