<svg width="41" height="40" viewBox="0 0 41 40" fill="none" xmlns="http://www.w3.org/2000/svg">
<g clip-path="url(#clip0_204_3228)">
<path d="M27.1667 21.6667V9.16667C27.1667 8.50363 26.9034 7.86774 26.4345 7.3989C25.9657 6.93006 25.3298 6.66667 24.6667 6.66667C24.0037 6.66667 23.3678 6.93006 22.899 7.3989C22.4301 7.86774 22.1667 8.50363 22.1667 9.16667V20" stroke="#B2AFFE" stroke-width="2" stroke-linecap="round" stroke-linejoin="round"/>
<path d="M22.1667 9.16667V5.83333C22.1667 5.50503 22.1021 5.17994 21.9764 4.87662C21.8508 4.57331 21.6667 4.29771 21.4345 4.06557C21.2024 3.83342 20.9268 3.64927 20.6235 3.52363C20.3201 3.398 19.9951 3.33333 19.6667 3.33333C19.3384 3.33333 19.0134 3.398 18.71 3.52363C18.4067 3.64927 18.1311 3.83342 17.899 4.06557C17.6668 4.29771 17.4827 4.57331 17.357 4.87662C17.2314 5.17994 17.1667 5.50503 17.1667 5.83333V20" stroke="#B2AFFE" stroke-width="2" stroke-linecap="round" stroke-linejoin="round"/>
<path d="M17.1667 9.16667C17.1667 8.50363 16.9034 7.86774 16.4345 7.3989C15.9657 6.93006 15.3298 6.66667 14.6667 6.66667C14.0037 6.66667 13.3678 6.93006 12.899 7.3989C12.4301 7.86774 12.1667 8.50363 12.1667 9.16667V20" stroke="#B2AFFE" stroke-width="2" stroke-linecap="round" stroke-linejoin="round"/>
<path d="M12.1666 12.5C12.1666 11.837 11.9032 11.2011 11.4344 10.7322C10.9655 10.2634 10.3296 10 9.6666 10C9.00356 10 8.36768 10.2634 7.89884 10.7322C7.43 11.2011 7.1666 11.837 7.1666 12.5V26.6667C7.1666 29.3188 8.22017 31.8624 10.0955 33.7377C11.9709 35.6131 14.5144 36.6667 17.1666 36.6667H20.4999H20.1533C21.8094 36.6669 23.4396 36.2559 24.8976 35.4705C26.3556 34.685 27.5957 33.5498 28.5066 32.1667C28.6159 32.0003 28.7248 31.8336 28.8333 31.6667C29.3533 30.8683 31.1783 27.6867 34.3099 22.12C34.6292 21.5526 34.7145 20.8829 34.5476 20.2536C34.3808 19.6242 33.975 19.0848 33.4166 18.75C32.8218 18.3931 32.1248 18.2452 31.4363 18.3297C30.7479 18.4143 30.1074 18.7265 29.6166 19.2167L27.1666 21.6667" stroke="#B2AFFE" stroke-width="2" stroke-linecap="round" stroke-linejoin="round"/>
</g>
<defs>
<clipPath id="clip0_204_3228">
<rect width="40" height="40" fill="white" transform="matrix(-1 0 0 1 40.5 0)"/>
</clipPath>
</defs>
</svg>
