<svg width="20" height="20" viewBox="0 0 20 20" fill="none" xmlns="http://www.w3.org/2000/svg">
<g clip-path="url(#clip0_235_361)">
<path d="M5 3.33333H4.16667C3.72464 3.33333 3.30072 3.50892 2.98816 3.82148C2.67559 4.13404 2.5 4.55797 2.5 4.99999V7.91666C2.5 9.13224 2.98289 10.298 3.84243 11.1576C4.70197 12.0171 5.86776 12.5 7.08333 12.5C8.29891 12.5 9.4647 12.0171 10.3242 11.1576C11.1838 10.298 11.6667 9.13224 11.6667 7.91666V4.99999C11.6667 4.55797 11.4911 4.13404 11.1785 3.82148C10.866 3.50892 10.442 3.33333 10 3.33333H9.16667" stroke="white" stroke-width="2" stroke-linecap="round" stroke-linejoin="round"/>
<path d="M6.6665 12.5C6.6665 13.1566 6.79583 13.8068 7.04711 14.4134C7.29838 15.02 7.66668 15.5712 8.13097 16.0355C8.59526 16.4998 9.14646 16.8681 9.75309 17.1194C10.3597 17.3707 11.0099 17.5 11.6665 17.5C12.3231 17.5 12.9733 17.3707 13.5799 17.1194C14.1865 16.8681 14.7377 16.4998 15.202 16.0355C15.6663 15.5712 16.0346 15.02 16.2859 14.4134C16.5372 13.8068 16.6665 13.1566 16.6665 12.5V10" stroke="white" stroke-width="2" stroke-linecap="round" stroke-linejoin="round"/>
<path d="M9.1665 2.5V4.16667" stroke="white" stroke-width="2" stroke-linecap="round" stroke-linejoin="round"/>
<path d="M5 2.5V4.16667" stroke="white" stroke-width="2" stroke-linecap="round" stroke-linejoin="round"/>
<path d="M15 8.33334C15 8.77537 15.1756 9.19929 15.4882 9.51185C15.8007 9.82441 16.2246 10 16.6667 10C17.1087 10 17.5326 9.82441 17.8452 9.51185C18.1577 9.19929 18.3333 8.77537 18.3333 8.33334C18.3333 7.89131 18.1577 7.46739 17.8452 7.15483C17.5326 6.84227 17.1087 6.66667 16.6667 6.66667C16.2246 6.66667 15.8007 6.84227 15.4882 7.15483C15.1756 7.46739 15 7.89131 15 8.33334Z" stroke="white" stroke-width="2" stroke-linecap="round" stroke-linejoin="round"/>
</g>
<defs>
<clipPath id="clip0_235_361">
<rect width="20" height="20" fill="white"/>
</clipPath>
</defs>
</svg>
