<svg width="18" height="16" viewBox="0 0 18 16" fill="none" xmlns="http://www.w3.org/2000/svg">
<path d="M4.81561 0.561667C5.55316 0.435998 6.30952 0.477453 7.02892 0.682975C7.74832 0.888497 8.41242 1.25285 8.97228 1.74917L9.00311 1.77667L9.03145 1.75167C9.56578 1.28275 10.194 0.933163 10.8741 0.726235C11.5542 0.519308 12.2707 0.459795 12.9756 0.551667L13.1806 0.581667C14.0692 0.735091 14.8998 1.12596 15.5843 1.71289C16.2689 2.29982 16.782 3.06095 17.0693 3.9157C17.3566 4.77044 17.4074 5.68696 17.2164 6.56822C17.0253 7.44948 16.5995 8.26267 15.9839 8.92167L15.8339 9.07583L15.7939 9.11L9.58561 15.2592C9.44234 15.401 9.25253 15.486 9.05135 15.4986C8.85017 15.5112 8.65125 15.4504 8.49145 15.3275L8.41311 15.2592L2.16895 9.07417C1.50746 8.43055 1.03703 7.6164 0.809746 6.72189C0.582462 5.82738 0.607198 4.88741 0.881213 4.0061C1.15523 3.12478 1.66783 2.3365 2.36225 1.72856C3.05667 1.12062 3.9058 0.716747 4.81561 0.561667Z" fill="white"/>
</svg>
