<svg width="340" height="516" viewBox="0 0 340 516" fill="none" xmlns="http://www.w3.org/2000/svg">
<path d="M328.067 82.7787C311.409 80.456 308.143 103.181 305.041 114.468C299.241 135.579 295.648 157.214 290.143 178.391C288.996 182.796 283.753 210.014 276.424 205.401C273.748 203.711 274.053 197.397 273.977 194.802C273.813 189.143 274.195 183.461 274.687 177.824C275.604 167.377 277.134 157.007 278.532 146.614C280.902 128.949 281.339 110.869 281.852 93.0726C282.169 81.9826 283.229 70.9471 283.84 59.868C284.343 50.719 285.315 40.6867 282.322 31.843C279.952 24.8423 275.79 21.3419 268.264 22.9121C262.847 24.0462 258.543 27.6011 255.528 32.1266C248.833 42.1916 247.271 55.0045 245.381 66.6616C241.897 88.2746 238.838 109.953 235.07 131.522C233.049 143.147 230.897 154.738 228.615 166.308C228.014 169.351 227.511 179.917 222.967 179.525C220.466 179.307 220.051 176.341 219.756 174.345C219.002 169.1 219.647 163.637 220.018 158.381C220.586 150.235 220.171 141.969 220.291 133.802C220.608 111.556 220.444 89.2887 219.177 67.0651C218.555 56.2695 217.681 45.4848 216.403 34.7437C215.42 26.5216 215.42 16.8601 211.597 9.32495C208.506 3.22925 201.985 -1.20894 195.016 0.939275C189.052 2.77126 185.109 8.33263 182.488 13.6868C179.244 20.3059 177.769 27.6011 177.441 34.9291C176.928 46.368 177.594 57.7089 176.72 69.1588C175.093 90.3138 173.138 111.741 172.996 132.962C172.919 143.736 173.345 154.488 173.149 165.261C173.05 170.169 172.81 175.021 172.089 179.874C171.903 181.16 171.925 184.683 170.767 185.337C168.736 186.482 168.113 184.094 167.589 182.578C165.623 176.929 165.099 170.354 163.875 164.498C161.461 152.939 159.419 141.315 157.649 129.647C154.274 107.467 152.275 85.145 149.479 62.8886C148.496 55.0372 147.611 47.0441 145.689 39.3345C144.258 33.6096 142.434 26.8596 136.284 24.7768C128.988 22.3124 120.086 24.6351 114.712 30.0656C110.19 34.6346 108.628 41.0248 108.289 47.2622C107.153 68.3518 110.048 90.0521 111.577 111.065C113.215 133.66 113.849 156.221 116.164 178.772C118.469 201.247 117.934 223.798 118.699 246.337C118.983 254.821 116.885 265.584 109.086 270.6C98.546 277.394 91.9923 262.771 87.9618 255.715C82.8172 246.73 76.5912 238.453 70.245 230.297C64.2375 222.565 58.2409 214.769 51.0646 208.062C44.5 201.923 36.8322 196.776 28.1268 194.235C20.7102 192.076 10.9343 191.149 4.76293 196.798C-8.85779 209.262 10.4865 223.449 17.6081 232.652C42.2281 264.461 46.7392 306.128 64.2157 341.502C73.227 359.746 86.6074 374.216 99.6164 389.614C106.432 397.683 113.772 406.232 118.141 415.937C122.478 425.588 123.286 436.569 125.864 446.754C131.413 468.607 134.941 490.645 135.705 513.196C135.815 516.402 138.218 516.478 138.108 513.196C137.398 492.248 134.668 471.442 129.741 451.061C127.36 441.236 125.569 431.248 123.046 421.466C120.774 412.622 116.383 404.978 110.987 397.672C98.83 381.217 83.5381 367.15 72.6371 349.768C61.5614 332.092 55.1934 312.005 48.7053 292.333C42.9818 274.973 37.0398 257.558 27.9083 241.648C23.4081 233.808 18.1433 226.415 11.8737 219.872C9.28496 217.178 6.29212 214.67 4.30417 211.486C-0.480012 203.831 8.57498 198.75 15.0194 198.161C36.0458 196.242 52.4737 214.038 64.2594 228.912C70.4744 236.752 76.6895 244.647 82.1836 253.011C86.8695 260.143 90.2228 271.2 97.8906 275.802C111.053 283.708 119.824 264.548 120.96 254.287C121.44 249.98 121.069 245.596 120.839 241.289C120.544 235.836 120.763 230.428 120.708 224.975C120.61 214.714 120.523 204.344 119.911 194.104C119.245 182.905 117.781 171.782 116.787 160.616C115.804 149.461 115.706 138.251 115.05 127.073C113.74 104.784 111.522 82.5497 110.812 60.2278C110.517 50.828 109.141 39.7162 117.661 33.337C121.79 30.251 127.251 28.8443 132.363 29.444C137.792 30.0874 140.424 32.5409 142.226 37.448C144.99 44.9941 145.722 53.3797 146.748 61.2856C148.135 71.9394 149.195 82.626 150.396 93.3016C152.778 114.577 155.705 135.797 159.714 156.832C161.199 164.64 162.761 172.437 164.268 180.234C164.782 182.872 165.765 190.68 169.391 191.258C177.419 192.545 175.694 156.102 175.661 152.198C175.431 130.356 176.578 108.775 177.889 86.977C178.49 76.8792 179.538 66.8034 179.888 56.6947C180.248 46.0191 178.49 34.94 181.515 24.5151C183.635 17.2526 188.058 7.89644 196.239 6.08627C208.56 3.36011 211.793 17.5034 212.853 26.4343C217.932 69.2896 219.407 112.766 217.779 155.905C217.473 163.887 214.83 175.152 219.319 182.414C221.296 185.62 224.89 185.74 227.118 182.545C228.953 179.917 229.259 176.275 229.86 173.244C230.963 167.693 232.044 162.143 233.093 156.592C237.112 135.274 240.706 113.879 243.95 92.4293C246.331 76.6612 247.325 59.3446 253.049 44.3071C255.255 38.5058 258.598 32.6609 264.354 29.7603C267.106 28.3754 271.486 27.2631 274.589 28.1355C281.197 30.0002 281.732 40.1524 281.841 45.6374C282.049 56.7166 280.847 67.8175 280.126 78.8639C279.438 89.3324 279.329 99.8226 278.827 110.302C278.16 124.391 277.134 138.403 275.2 152.372C273.649 163.571 272.218 174.814 271.694 186.111C271.388 192.588 269.99 204.267 274.741 209.698C281.295 217.178 287.39 198.99 288.526 195.282C293.277 179.688 296.216 163.517 299.787 147.618C302.147 137.117 304.506 126.615 307.39 116.245C309.629 108.197 310.852 96.6167 317.854 91.1643C325.969 84.8396 335.975 89.0816 337.122 99.1574C338.301 109.571 335.854 120.814 334.653 131.141C331.988 153.975 327.739 176.177 322.299 198.499C317.406 218.585 312.72 238.944 309.443 259.358C306.035 280.567 307.87 301.995 303.61 323.139C299.351 344.272 291.901 364.62 283.196 384.281C279.154 393.398 274.479 402.252 271.082 411.641C267.98 420.212 265.708 429.045 264.07 438.008C260.695 456.426 260.028 475.237 260.717 493.917C260.837 497.123 263.24 497.199 263.12 493.917C262.344 472.914 263.251 451.683 268.144 431.16C273.005 410.812 283.414 392.678 291.104 373.366C298.662 354.37 304.735 334.698 307.674 314.437C309.148 304.252 309.41 294.154 309.542 283.882C309.684 272.181 311.606 260.546 313.889 249.085C318.192 227.494 323.392 206.143 328.361 184.704C333.397 162.971 336.029 140.944 338.542 118.819C339.743 108.274 343.719 84.9923 328.067 82.8114V82.7787Z" fill="url(#paint0_linear_203_522)"/>
<defs>
<linearGradient id="paint0_linear_203_522" x1="169.953" y1="0.390167" x2="170.07" y2="471.588" gradientUnits="userSpaceOnUse">
<stop stop-color="#B2AFFE"/>
<stop offset="1" stop-color="#B2AFFE" stop-opacity="0"/>
</linearGradient>
</defs>
</svg>
