<svg width="20" height="20" viewBox="0 0 20 20" fill="none" xmlns="http://www.w3.org/2000/svg">
<g id="circle-plus 1" clip-path="url(#clip0_75_479)">
<g id="Group">
<path id="Vector" d="M9.96312 1.5783C11.0663 1.56432 12.1612 1.76952 13.1844 2.18201C14.2077 2.59449 15.1388 3.20604 15.9238 3.98119C16.7089 4.75633 17.3322 5.67965 17.7576 6.69756C18.183 7.71547 18.4021 8.80773 18.4021 9.91097C18.4021 11.0142 18.183 12.1065 17.7576 13.1244C17.3322 14.1423 16.7089 15.0656 15.9238 15.8407C15.1388 16.6159 14.2077 17.2274 13.1844 17.6399C12.1612 18.0524 11.0663 18.2576 9.96312 18.2436C7.77839 18.2057 5.69598 17.3111 4.1644 15.7527C2.63281 14.1942 1.7746 12.0966 1.7746 9.91155C1.7746 7.7265 2.63281 5.62886 4.1644 4.07042C5.69598 2.51199 7.77839 1.61745 9.96312 1.57948V1.5783ZM12.3201 8.73304C12.4764 8.57676 12.5642 8.3648 12.5642 8.14379C12.5642 7.92277 12.4764 7.71081 12.3201 7.55453C12.1639 7.39825 11.9519 7.31045 11.7309 7.31045C11.5099 7.31045 11.2979 7.39825 11.1416 7.55453L9.96312 8.73304L8.78461 7.55453C8.62833 7.39825 8.41636 7.31045 8.19535 7.31045C7.97434 7.31045 7.76237 7.39825 7.60609 7.55453C7.44981 7.71081 7.36202 7.92277 7.36202 8.14379C7.36202 8.3648 7.44981 8.57676 7.60609 8.73304L8.78461 9.91155L7.6061 11.0901C7.44981 11.2463 7.36202 11.4583 7.36202 11.6793C7.36202 11.9003 7.44981 12.1123 7.60609 12.2686C7.76237 12.4249 7.97434 12.5127 8.19535 12.5127C8.41636 12.5127 8.62833 12.4249 8.78461 12.2686L9.96312 11.0901L11.1416 12.2686C11.2979 12.4249 11.5099 12.5127 11.7309 12.5127C11.9519 12.5127 12.1639 12.4249 12.3201 12.2686C12.4764 12.1123 12.5642 11.9003 12.5642 11.6793C12.5642 11.4583 12.4764 11.2463 12.3201 11.0901L11.1416 9.91155L12.3201 8.73304Z" fill="white"/>
</g>
</g>
<defs>
<clipPath id="clip0_75_479">
<rect width="20" height="20" fill="white"/>
</clipPath>
</defs>
</svg>
