<svg width="21" height="20" viewBox="0 0 21 20" fill="none" xmlns="http://www.w3.org/2000/svg">
<g id="compass 1" clip-path="url(#clip0_3370_1415)">
<g id="Group">
<path id="Vector" d="M14.417 2.78332C15.6838 3.51473 16.7358 4.56672 17.4672 5.83356C18.1986 7.1004 18.5837 8.53744 18.5837 10.0003C18.5836 11.4631 18.1986 12.9001 17.4672 14.1669C16.7357 15.4338 15.6837 16.4857 14.4169 17.2171C13.1501 17.9485 11.713 18.3336 10.2502 18.3335C8.78738 18.3335 7.35034 17.9484 6.08352 17.217C4.8167 16.4856 3.76473 15.4336 3.03335 14.1667C2.30198 12.8999 1.91696 11.4628 1.91699 9.99999L1.92116 9.72999C1.96783 8.29082 2.38662 6.88829 3.13669 5.65915C3.88677 4.43001 4.94254 3.4162 6.20107 2.71656C7.4596 2.01692 8.87795 1.65532 10.3178 1.66702C11.7577 1.67872 13.17 2.06332 14.417 2.78332ZM10.2503 15C10.0293 15 9.81735 15.0878 9.66107 15.2441C9.50479 15.4003 9.41699 15.6123 9.41699 15.8333C9.41699 16.0543 9.50479 16.2663 9.66107 16.4226C9.81735 16.5789 10.0293 16.6667 10.2503 16.6667C10.4713 16.6667 10.6833 16.5789 10.8396 16.4226C10.9959 16.2663 11.0837 16.0543 11.0837 15.8333C11.0837 15.6123 10.9959 15.4003 10.8396 15.2441C10.6833 15.0878 10.4713 15 10.2503 15ZM13.3203 5.87583L8.32032 7.54249C8.19746 7.58339 8.08582 7.65235 7.99425 7.74392C7.90269 7.83548 7.83372 7.94713 7.79282 8.06999L6.12033 13.0917L6.10116 13.1633L6.08699 13.2575L6.08366 13.3142V13.3508L6.09116 13.4433L6.10116 13.5017L6.13449 13.6217L6.17199 13.705L6.21699 13.7842L6.27032 13.8592L6.32783 13.9217L6.39782 13.9833L6.47949 14.0417L6.56282 14.0867L6.62782 14.1142L6.71532 14.1417L6.80616 14.1583L6.84199 14.1625L6.89866 14.1658H6.93533L7.02782 14.1583L7.08616 14.1483L7.10282 14.1433L7.11866 14.1417L7.18032 14.1233L12.1803 12.4567C12.3032 12.4158 12.4148 12.3468 12.5064 12.2552C12.598 12.1637 12.6669 12.052 12.7078 11.9292L14.3745 6.92916C14.4235 6.78233 14.4306 6.62476 14.395 6.47412C14.3595 6.32348 14.2827 6.18571 14.1732 6.07627C14.0638 5.96682 13.926 5.89002 13.7754 5.85447C13.6247 5.81892 13.4672 5.82686 13.3203 5.87583ZM12.2662 7.98333L11.2578 11.0075L8.23366 12.0158L9.24199 8.99166L12.2662 7.98333ZM4.41699 9.16666C4.19598 9.16666 3.98402 9.25446 3.82774 9.41074C3.67146 9.56702 3.58366 9.77898 3.58366 9.99999C3.58366 10.221 3.67146 10.433 3.82774 10.5892C3.98402 10.7455 4.19598 10.8333 4.41699 10.8333C4.63801 10.8333 4.84997 10.7455 5.00625 10.5892C5.16253 10.433 5.25032 10.221 5.25032 9.99999C5.25032 9.77898 5.16253 9.56702 5.00625 9.41074C4.84997 9.25446 4.63801 9.16666 4.41699 9.16666ZM16.0837 9.16666C15.8626 9.16666 15.6507 9.25446 15.4944 9.41074C15.3381 9.56702 15.2503 9.77898 15.2503 9.99999C15.2503 10.221 15.3381 10.433 15.4944 10.5892C15.6507 10.7455 15.8626 10.8333 16.0837 10.8333C16.3047 10.8333 16.5166 10.7455 16.6729 10.5892C16.8292 10.433 16.917 10.221 16.917 9.99999C16.917 9.77898 16.8292 9.56702 16.6729 9.41074C16.5166 9.25446 16.3047 9.16666 16.0837 9.16666ZM10.2503 3.33333C10.0293 3.33333 9.81735 3.42112 9.66107 3.5774C9.50479 3.73368 9.41699 3.94564 9.41699 4.16666C9.41699 4.38767 9.50479 4.59963 9.66107 4.75591C9.81735 4.91219 10.0293 4.99999 10.2503 4.99999C10.4713 4.99999 10.6833 4.91219 10.8396 4.75591C10.9959 4.59963 11.0837 4.38767 11.0837 4.16666C11.0837 3.94564 10.9959 3.73368 10.8396 3.5774C10.6833 3.42112 10.4713 3.33333 10.2503 3.33333Z" fill="#FC0160"/>
</g>
</g>
<defs>
<clipPath id="clip0_3370_1415">
<rect width="20" height="20" fill="white" transform="translate(0.25)"/>
</clipPath>
</defs>
</svg>
