<svg width="44" height="44" viewBox="0 0 44 44" fill="none" xmlns="http://www.w3.org/2000/svg">
<g id="plus-outline 2">
<g id="Group">
<g id="Union" filter="url(#filter0_di_456_773)">
<path d="M33.6665 18.3334H23.6665V8.33335C23.6665 7.89133 23.4909 7.4674 23.1783 7.15484C22.8658 6.84228 22.4419 6.66669 21.9998 6.66669C21.5578 6.66669 21.1339 6.84228 20.8213 7.15484C20.5088 7.4674 20.3332 7.89133 20.3332 8.33335V18.3334H10.3332C9.89114 18.3334 9.46722 18.5089 9.15466 18.8215C8.8421 19.1341 8.6665 19.558 8.6665 20C8.6665 20.442 8.8421 20.866 9.15466 21.1785C9.46722 21.4911 9.89114 21.6667 10.3332 21.6667H20.3332V31.6667C20.3332 32.1087 20.5088 32.5326 20.8213 32.8452C21.1339 33.1578 21.5578 33.3334 21.9998 33.3334C22.4419 33.3334 22.8658 33.1578 23.1783 32.8452C23.4909 32.5326 23.6665 32.1087 23.6665 31.6667V21.6667H33.6665C34.1085 21.6667 34.5325 21.4911 34.845 21.1785C35.1576 20.866 35.3332 20.442 35.3332 20C35.3332 19.558 35.1576 19.1341 34.845 18.8215C34.5325 18.5089 34.1085 18.3334 33.6665 18.3334Z" fill="#B2AFFE"/>
</g>
</g>
</g>
<defs>
<filter id="filter0_di_456_773" x="0.666504" y="0.666687" width="42.6665" height="42.6667" filterUnits="userSpaceOnUse" color-interpolation-filters="sRGB">
<feFlood flood-opacity="0" result="BackgroundImageFix"/>
<feColorMatrix in="SourceAlpha" type="matrix" values="0 0 0 0 0 0 0 0 0 0 0 0 0 0 0 0 0 0 127 0" result="hardAlpha"/>
<feOffset dy="2"/>
<feGaussianBlur stdDeviation="4"/>
<feComposite in2="hardAlpha" operator="out"/>
<feColorMatrix type="matrix" values="0 0 0 0 0.698039 0 0 0 0 0.686275 0 0 0 0 0.996078 0 0 0 0.48 0"/>
<feBlend mode="normal" in2="BackgroundImageFix" result="effect1_dropShadow_456_773"/>
<feBlend mode="normal" in="SourceGraphic" in2="effect1_dropShadow_456_773" result="shape"/>
<feColorMatrix in="SourceAlpha" type="matrix" values="0 0 0 0 0 0 0 0 0 0 0 0 0 0 0 0 0 0 127 0" result="hardAlpha"/>
<feOffset dy="2"/>
<feGaussianBlur stdDeviation="1.5"/>
<feComposite in2="hardAlpha" operator="arithmetic" k2="-1" k3="1"/>
<feColorMatrix type="matrix" values="0 0 0 0 0.955704 0 0 0 0 0.953955 0 0 0 0 1 0 0 0 1 0"/>
<feBlend mode="normal" in2="shape" result="effect2_innerShadow_456_773"/>
</filter>
</defs>
</svg>
