<svg width="32" height="32" viewBox="0 0 32 32" fill="none" xmlns="http://www.w3.org/2000/svg">
<g id="coin 1" clip-path="url(#clip0_1372_2227)">
<g id="Group">
<path id="Vector" d="M22.667 4.45333C24.6939 5.62358 26.3771 7.30677 27.5474 9.33371C28.7176 11.3606 29.3337 13.6599 29.3337 16.0004C29.3336 18.3409 28.7175 20.6402 27.5473 22.6671C26.377 24.694 24.6938 26.3772 22.6668 27.5474C20.6399 28.7177 18.3406 29.3337 16.0001 29.3337C13.6596 29.3336 11.3604 28.7175 9.33344 27.5472C7.30653 26.3769 5.62338 24.6937 4.45317 22.6667C3.28297 20.6398 2.66693 18.3405 2.66699 16L2.67366 15.568C2.74833 13.2653 3.41839 11.0213 4.61851 9.05466C5.81863 7.08803 7.50786 5.46594 9.52151 4.34651C11.5352 3.22708 13.8045 2.64853 16.1083 2.66725C18.4121 2.68597 20.6718 3.30133 22.667 4.45333ZM16.0003 8C15.6467 8 15.3076 8.14048 15.0575 8.39052C14.8075 8.64057 14.667 8.97971 14.667 9.33333C13.6061 9.33333 12.5887 9.75476 11.8386 10.5049C11.0884 11.2551 10.667 12.2725 10.667 13.3333C10.667 14.3942 11.0884 15.4116 11.8386 16.1618C12.5887 16.9119 13.6061 17.3333 14.667 17.3333V20C14.4459 20.0118 14.2253 19.9696 14.0242 19.8772C13.823 19.7847 13.6473 19.6448 13.5123 19.4693L13.4217 19.3347C13.2392 19.0405 12.9495 18.8287 12.6138 18.7443C12.2781 18.6598 11.9227 18.7092 11.6228 18.882C11.3229 19.0549 11.1019 19.3376 11.0066 19.6704C10.9114 20.0032 10.9493 20.36 11.1123 20.6653C11.4526 21.2556 11.9381 21.7491 12.5226 22.0991C13.1071 22.4491 13.7714 22.644 14.4523 22.6653H14.667C14.6667 22.9921 14.7865 23.3077 15.0035 23.552C15.2205 23.7963 15.5198 23.9524 15.8443 23.9907L16.0003 24C16.3539 24 16.6931 23.8595 16.9431 23.6095C17.1932 23.3594 17.3337 23.0203 17.3337 22.6667L17.5683 22.66C18.6078 22.5999 19.5829 22.1369 20.2864 21.3693C20.9899 20.6017 21.3663 19.59 21.3358 18.5493C21.3052 17.5085 20.8701 16.5207 20.1227 15.7957C19.3754 15.0707 18.3749 14.6657 17.3337 14.6667V12C17.811 11.984 18.2283 12.1867 18.4883 12.5307L18.579 12.6653C18.7614 12.9595 19.0511 13.1713 19.3868 13.2557C19.7225 13.3402 20.0779 13.2908 20.3778 13.118C20.6778 12.9451 20.8987 12.6624 20.994 12.3296C21.0893 11.9968 21.0514 11.64 20.8883 11.3347C20.5482 10.7442 20.0628 10.2504 19.4783 9.90017C18.8937 9.54991 18.2294 9.3548 17.5483 9.33333H17.3337C17.3337 8.97971 17.1932 8.64057 16.9431 8.39052C16.6931 8.14048 16.3539 8 16.0003 8ZM17.3337 17.3333C17.6873 17.3333 18.0264 17.4738 18.2765 17.7239C18.5265 17.9739 18.667 18.313 18.667 18.6667C18.667 19.0203 18.5265 19.3594 18.2765 19.6095C18.0264 19.8595 17.6873 20 17.3337 20V17.3333ZM14.667 12V14.6667C14.3134 14.6667 13.9742 14.5262 13.7242 14.2761C13.4741 14.0261 13.3337 13.687 13.3337 13.3333C13.3337 12.9797 13.4741 12.6406 13.7242 12.3905C13.9742 12.1405 14.3134 12 14.667 12Z" fill="url(#paint0_linear_1372_2227)"/>
</g>
</g>
<defs>
<linearGradient id="paint0_linear_1372_2227" x1="1.7781" y1="5.86683" x2="24.9354" y2="30.7097" gradientUnits="userSpaceOnUse">
<stop stop-color="#FFD854"/>
<stop offset="1" stop-color="#FFD854" stop-opacity="0.2"/>
</linearGradient>
<clipPath id="clip0_1372_2227">
<rect width="32" height="32" fill="white"/>
</clipPath>
</defs>
</svg>
