<svg width="21" height="20" viewBox="0 0 21 20" fill="none" xmlns="http://www.w3.org/2000/svg">
<g id="pencil 1" clip-path="url(#clip0_1358_2018)">
<g id="Group">
<path id="Vector (Stroke)" fill-rule="evenodd" clip-rule="evenodd" d="M13.0607 3.37948C13.4376 3.22334 13.8417 3.14297 14.2497 3.14297C14.6577 3.14297 15.0617 3.22334 15.4387 3.37948C15.8156 3.53563 16.1582 3.76449 16.4467 4.053C16.7352 4.34151 16.964 4.68403 17.1202 5.06099C17.2763 5.43795 17.3567 5.84198 17.3567 6.25C17.3567 6.65802 17.2763 7.06204 17.1202 7.439C16.964 7.81597 16.7352 8.15848 16.4467 8.44699L7.69667 17.197C7.55602 17.3376 7.36525 17.4167 7.16634 17.4167H3.83301C3.41879 17.4167 3.08301 17.0809 3.08301 16.6667V13.3333C3.08301 13.1344 3.16203 12.9437 3.30268 12.803L12.0527 4.053C12.3412 3.76449 12.6837 3.53563 13.0607 3.37948ZM14.2497 4.64297C14.0386 4.64297 13.8297 4.68454 13.6347 4.7653C13.4397 4.84606 13.2626 4.96444 13.1133 5.11366L4.58301 13.644V15.9167H6.85568L15.386 7.38633C15.5352 7.23711 15.6536 7.05995 15.7344 6.86498C15.8151 6.67001 15.8567 6.46104 15.8567 6.25C15.8567 6.03896 15.8151 5.82999 15.7344 5.63502C15.6536 5.44004 15.5352 5.26289 15.386 5.11366C15.2368 4.96444 15.0596 4.84606 14.8647 4.7653C14.6697 4.68454 14.4607 4.64297 14.2497 4.64297Z" fill="#B23030"/>
<path id="Vector (Stroke)_2" fill-rule="evenodd" clip-rule="evenodd" d="M11.2197 4.88634C11.5126 4.59345 11.9874 4.59345 12.2803 4.88634L15.6137 8.21967C15.9066 8.51257 15.9066 8.98744 15.6137 9.28033C15.3208 9.57323 14.8459 9.57323 14.553 9.28033L11.2197 5.947C10.9268 5.65411 10.9268 5.17923 11.2197 4.88634Z" fill="#B23030"/>
</g>
</g>
<defs>
<clipPath id="clip0_1358_2018">
<rect width="20" height="20" fill="white" transform="translate(0.5)"/>
</clipPath>
</defs>
</svg>
