<svg width="20" height="20" viewBox="0 0 20 20" fill="none" xmlns="http://www.w3.org/2000/svg">
<g id="settings 1" clip-path="url(#clip0_1372_2190)">
<g id="Group">
<path id="Vector" d="M12.2054 3.40085C12.2277 3.49312 12.2716 3.57882 12.3333 3.65097C12.395 3.72312 12.4729 3.77968 12.5606 3.81606C12.6483 3.85244 12.7433 3.86761 12.838 3.86033C12.9327 3.85306 13.0243 3.82354 13.1054 3.77418C15.1379 2.53668 17.4637 4.86168 16.2262 6.89418C16.1769 6.97523 16.1473 7.06679 16.14 7.16141C16.1327 7.25602 16.1478 7.35104 16.184 7.43872C16.2203 7.52641 16.2768 7.6043 16.3489 7.66606C16.4209 7.72782 16.5065 7.77172 16.5987 7.79418C18.9112 8.35501 18.9112 11.6442 16.5987 12.2058C16.5064 12.2282 16.4207 12.272 16.3486 12.3337C16.2765 12.3955 16.2199 12.4733 16.1835 12.561C16.1471 12.6487 16.132 12.7438 16.1392 12.8385C16.1465 12.9331 16.176 13.0247 16.2254 13.1058C17.4629 15.1383 15.1379 17.4642 13.1054 16.2267C13.0243 16.1773 12.9328 16.1478 12.8382 16.1404C12.7435 16.1331 12.6485 16.1482 12.5608 16.1845C12.4732 16.2208 12.3953 16.2773 12.3335 16.3493C12.2717 16.4214 12.2279 16.507 12.2054 16.5992C11.6446 18.9117 8.35539 18.9117 7.79372 16.5992C7.77136 16.5069 7.72754 16.4212 7.66582 16.3491C7.6041 16.2769 7.52623 16.2203 7.43853 16.184C7.35083 16.1476 7.25578 16.1324 7.16111 16.1397C7.06645 16.147 6.97483 16.1765 6.89372 16.2258C4.86122 17.4633 2.53539 15.1383 3.77289 13.1058C3.82225 13.0248 3.85179 12.9332 3.85912 12.8386C3.86645 12.744 3.85135 12.649 3.81506 12.5613C3.77877 12.4736 3.7223 12.3957 3.65025 12.334C3.5782 12.2722 3.49259 12.2283 3.40039 12.2058C1.08789 11.645 1.08789 8.35585 3.40039 7.79418C3.49267 7.77182 3.57836 7.728 3.65051 7.66628C3.72266 7.60456 3.77923 7.52669 3.8156 7.43899C3.85198 7.35129 3.86715 7.25624 3.85987 7.16157C3.8526 7.0669 3.82308 6.97529 3.77372 6.89418C2.53622 4.86168 4.86122 2.53585 6.89372 3.77335C6.97469 3.82308 7.06629 3.85293 7.16102 3.86044C7.25575 3.86796 7.35091 3.85294 7.43871 3.81659C7.52651 3.78025 7.60446 3.72364 7.66616 3.65137C7.72787 3.57911 7.77158 3.49326 7.79372 3.40085C8.35456 1.08835 11.6437 1.08835 12.2054 3.40085ZM9.99956 7.50001C9.33651 7.50001 8.70063 7.76341 8.23179 8.23225C7.76295 8.70109 7.49956 9.33697 7.49956 10C7.49956 10.6631 7.76295 11.2989 8.23179 11.7678C8.70063 12.2366 9.33651 12.5 9.99956 12.5C10.6626 12.5 11.2985 12.2366 11.7673 11.7678C12.2362 11.2989 12.4996 10.6631 12.4996 10C12.4996 9.33697 12.2362 8.70109 11.7673 8.23225C11.2985 7.76341 10.6626 7.50001 9.99956 7.50001Z" fill="url(#paint0_linear_1372_2190)"/>
</g>
</g>
<defs>
<linearGradient id="paint0_linear_1372_2190" x1="3.78495" y1="2.86442" x2="22.0918" y2="11.2507" gradientUnits="userSpaceOnUse">
<stop stop-color="#B2AFFE"/>
<stop offset="1" stop-color="#252376"/>
</linearGradient>
<clipPath id="clip0_1372_2190">
<rect width="20" height="20" fill="white"/>
</clipPath>
</defs>
</svg>
