<svg width="18" height="18" viewBox="0 0 18 18" fill="none" xmlns="http://www.w3.org/2000/svg">
<path d="M13.4166 1.78334C14.6835 2.51475 15.7354 3.56674 16.4668 4.83357C17.1983 6.10041 17.5833 7.53746 17.5833 9.00027C17.5833 10.4631 17.1982 11.9001 16.4668 13.167C15.7354 14.4338 14.6834 15.4858 13.4165 16.2172C12.1497 16.9485 10.7126 17.3336 9.24983 17.3336C7.78701 17.3335 6.34998 16.9485 5.08315 16.217C3.81633 15.4856 2.76437 14.4336 2.03299 13.1667C1.30161 11.8999 0.916589 10.4628 0.916626 9.00001L0.920793 8.73001C0.967462 7.29083 1.38625 5.88831 2.13633 4.65917C2.8864 3.43003 3.94217 2.41622 5.2007 1.71658C6.45923 1.01693 7.87758 0.655338 9.31746 0.667039C10.7573 0.678739 12.1696 1.06334 13.4166 1.78334ZM9.24996 14C9.02894 14 8.81698 14.0878 8.6607 14.2441C8.50442 14.4004 8.41662 14.6123 8.41662 14.8333C8.41662 15.0544 8.50442 15.2663 8.6607 15.4226C8.81698 15.5789 9.02894 15.6667 9.24996 15.6667C9.47097 15.6667 9.68293 15.5789 9.83921 15.4226C9.99549 15.2663 10.0833 15.0544 10.0833 14.8333C10.0833 14.6123 9.99549 14.4004 9.83921 14.2441C9.68293 14.0878 9.47097 14 9.24996 14ZM12.32 4.87584L7.31996 6.54251C7.19709 6.5834 7.08545 6.65237 6.99389 6.74393C6.90232 6.8355 6.83335 6.94714 6.79246 7.07001L5.11996 12.0917L5.10079 12.1633L5.08663 12.2575L5.08329 12.3142V12.3508L5.09079 12.4433L5.10079 12.5017L5.13413 12.6217L5.17163 12.705L5.21663 12.7842L5.26996 12.8592L5.32746 12.9217L5.39746 12.9833L5.47913 13.0417L5.56246 13.0867L5.62746 13.1142L5.71496 13.1417L5.80579 13.1583L5.84163 13.1625L5.89829 13.1658H5.93496L6.02746 13.1583L6.08579 13.1483L6.10246 13.1433L6.11829 13.1417L6.17996 13.1233L11.18 11.4567C11.3028 11.4158 11.4145 11.3468 11.506 11.2552C11.5976 11.1637 11.6666 11.052 11.7075 10.9292L13.3741 5.92917C13.4231 5.78234 13.4302 5.62478 13.3946 5.47414C13.3591 5.32349 13.2823 5.18573 13.1728 5.07628C13.0634 4.96684 12.9256 4.89004 12.775 4.85449C12.6244 4.81893 12.4668 4.82687 12.32 4.87584ZM11.2658 6.98334L10.2575 10.0075L7.23329 11.0158L8.24162 7.99167L11.2658 6.98334ZM3.41663 8.16667C3.19561 8.16667 2.98365 8.25447 2.82737 8.41075C2.67109 8.56703 2.58329 8.77899 2.58329 9.00001C2.58329 9.22102 2.67109 9.43298 2.82737 9.58926C2.98365 9.74554 3.19561 9.83334 3.41663 9.83334C3.63764 9.83334 3.8496 9.74554 4.00588 9.58926C4.16216 9.43298 4.24996 9.22102 4.24996 9.00001C4.24996 8.77899 4.16216 8.56703 4.00588 8.41075C3.8496 8.25447 3.63764 8.16667 3.41663 8.16667ZM15.0833 8.16667C14.8623 8.16667 14.6503 8.25447 14.494 8.41075C14.3378 8.56703 14.25 8.77899 14.25 9.00001C14.25 9.22102 14.3378 9.43298 14.494 9.58926C14.6503 9.74554 14.8623 9.83334 15.0833 9.83334C15.3043 9.83334 15.5163 9.74554 15.6725 9.58926C15.8288 9.43298 15.9166 9.22102 15.9166 9.00001C15.9166 8.77899 15.8288 8.56703 15.6725 8.41075C15.5163 8.25447 15.3043 8.16667 15.0833 8.16667ZM9.24996 2.33334C9.02894 2.33334 8.81698 2.42114 8.6607 2.57742C8.50442 2.7337 8.41662 2.94566 8.41662 3.16667C8.41662 3.38769 8.50442 3.59965 8.6607 3.75593C8.81698 3.91221 9.02894 4.00001 9.24996 4.00001C9.47097 4.00001 9.68293 3.91221 9.83921 3.75593C9.99549 3.59965 10.0833 3.38769 10.0833 3.16667C10.0833 2.94566 9.99549 2.7337 9.83921 2.57742C9.68293 2.42114 9.47097 2.33334 9.24996 2.33334Z" fill="white"/>
</svg>
