<svg width="21" height="20" viewBox="0 0 21 20" fill="none" xmlns="http://www.w3.org/2000/svg">
<g clip-path="url(#clip0_1303_1211)">
<path d="M10.7499 5.00001C11.7388 5.00001 12.7055 5.29325 13.5278 5.84266C14.35 6.39206 14.9909 7.17296 15.3693 8.08659C15.7478 9.00022 15.8468 10.0056 15.6539 10.9755C15.4609 11.9454 14.9847 12.8363 14.2855 13.5355C13.5862 14.2348 12.6953 14.711 11.7254 14.9039C10.7555 15.0969 9.75016 14.9978 8.83653 14.6194C7.92289 14.241 7.142 13.6001 6.59259 12.7779C6.04319 11.9556 5.74994 10.9889 5.74994 10L5.75328 9.8125C5.80179 8.51976 6.34946 7.29614 7.28122 6.39873C8.21298 5.50131 9.45629 4.99996 10.7499 5.00001ZM10.7499 8.33334C10.3295 8.33321 9.92447 8.49201 9.61615 8.77792C9.30784 9.06383 9.11898 9.45571 9.08744 9.875L9.08328 10C9.08328 10.3296 9.18102 10.6519 9.36416 10.926C9.5473 11.2 9.80759 11.4137 10.1121 11.5398C10.4167 11.6659 10.7518 11.699 11.0751 11.6346C11.3984 11.5703 11.6954 11.4116 11.9285 11.1785C12.1615 10.9454 12.3203 10.6485 12.3846 10.3252C12.4489 10.0019 12.4159 9.66674 12.2897 9.3622C12.1636 9.05766 11.95 8.79736 11.6759 8.61422C11.4018 8.43109 11.0796 8.33334 10.7499 8.33334ZM13.9999 15.925C14.2041 15.925 14.4011 16 14.5536 16.1356C14.7061 16.2712 14.8036 16.4581 14.8274 16.6608L14.8333 16.7667C14.833 16.9791 14.7517 17.1834 14.6059 17.3378C14.4601 17.4923 14.2608 17.5852 14.0488 17.5976C13.8367 17.6101 13.628 17.5411 13.4651 17.4048C13.3022 17.2685 13.1975 17.0751 13.1724 16.8642L13.1666 16.7583C13.1666 16.5373 13.2544 16.3254 13.4107 16.1691C13.567 16.0128 13.7789 15.925 13.9999 15.925ZM16.6166 13.8417C16.8207 13.8417 17.0177 13.9166 17.1703 14.0523C17.3228 14.1879 17.4202 14.3748 17.4441 14.5775L17.4499 14.6833C17.4497 14.8957 17.3684 15.1 17.2226 15.2545C17.0768 15.4089 16.8775 15.5019 16.6654 15.5143C16.4534 15.5268 16.2446 15.4578 16.0817 15.3215C15.9189 15.1851 15.8142 14.9918 15.7891 14.7808L15.7833 14.675C15.7833 14.454 15.8711 14.242 16.0274 14.0857C16.1836 13.9295 16.3956 13.8417 16.6166 13.8417ZM18.0583 10.8333C18.2624 10.8334 18.4594 10.9083 18.6119 11.0439C18.7644 11.1796 18.8619 11.3665 18.8858 11.5692L18.8916 11.675C18.8914 11.8874 18.81 12.0917 18.6642 12.2461C18.5184 12.4006 18.3191 12.4935 18.1071 12.506C17.8951 12.5184 17.6863 12.4494 17.5234 12.3131C17.3605 12.1768 17.2559 11.9834 17.2308 11.7725L17.2249 11.6667C17.2249 11.4457 17.3127 11.2337 17.469 11.0774C17.6253 10.9211 17.8373 10.8333 18.0583 10.8333ZM18.0583 7.5C18.2624 7.50003 18.4594 7.57497 18.6119 7.7106C18.7644 7.84623 18.8619 8.03313 18.8858 8.23584L18.8916 8.34167C18.8914 8.55407 18.81 8.75837 18.6642 8.91281C18.5184 9.06726 18.3191 9.1602 18.1071 9.17265C17.8951 9.1851 17.6863 9.11611 17.5234 8.97978C17.3605 8.84346 17.2559 8.65008 17.2308 8.43917L17.2249 8.33334C17.2249 8.11232 17.3127 7.90036 17.469 7.74408C17.6253 7.5878 17.8373 7.5 18.0583 7.5ZM16.6166 4.49167C16.8376 4.49167 17.0496 4.57947 17.2059 4.73575C17.3621 4.89203 17.4499 5.10399 17.4499 5.325C17.4505 5.43444 17.4295 5.54291 17.3881 5.64423C17.3467 5.74554 17.2858 5.83771 17.2088 5.91548C17.0533 6.07254 16.8418 6.1614 16.6208 6.16251C16.5113 6.16305 16.4029 6.14204 16.3016 6.10067C16.2002 6.05929 16.1081 5.99837 16.0303 5.92137C15.8732 5.76587 15.7844 5.55435 15.7833 5.33334C15.7833 4.86501 16.1566 4.49167 16.6166 4.49167ZM13.9999 2.40834C14.221 2.40834 14.4329 2.49614 14.5892 2.65242C14.7455 2.8087 14.8333 3.02066 14.8333 3.24167C14.8338 3.35111 14.8128 3.45958 14.7714 3.56089C14.7301 3.66221 14.6691 3.75438 14.5921 3.83215C14.5151 3.90992 14.4236 3.97176 14.3227 4.01414C14.2218 4.05653 14.1135 4.07862 14.0041 4.07917C13.8947 4.07972 13.7862 4.05871 13.6849 4.01733C13.5836 3.97596 13.4914 3.91504 13.4136 3.83804C13.3359 3.76104 13.274 3.66949 13.2316 3.56859C13.1893 3.4677 13.1672 3.35944 13.1666 3.25001C13.1666 2.78167 13.5399 2.40834 13.9999 2.40834ZM10.7499 1.66667C10.971 1.66667 11.1829 1.75447 11.3392 1.91075C11.4955 2.06703 11.5833 2.27899 11.5833 2.50001C11.5838 2.60944 11.5628 2.71791 11.5214 2.81923C11.4801 2.92054 11.4191 3.01271 11.3421 3.09048C11.2651 3.16825 11.1736 3.23009 11.0727 3.27248C10.9718 3.31486 10.8635 3.33696 10.7541 3.33751C10.6447 3.33805 10.5362 3.31704 10.4349 3.27567C10.3336 3.23429 10.2414 3.17337 10.1636 3.09637C10.0859 3.01938 10.024 2.92782 9.98164 2.82692C9.93925 2.72603 9.91716 2.61777 9.91661 2.50834C9.91661 2.04001 10.2899 1.66667 10.7499 1.66667ZM7.49994 2.40834C7.72096 2.40834 7.93292 2.49614 8.0892 2.65242C8.24548 2.8087 8.33328 3.02066 8.33328 3.24167C8.33438 3.46269 8.24764 3.67509 8.09214 3.83215C7.93665 3.98921 7.72512 4.07807 7.50411 4.07917C7.28309 4.08028 7.07069 3.99354 6.91363 3.83804C6.75657 3.68254 6.66771 3.47102 6.66661 3.25001C6.66661 2.78167 7.03994 2.40834 7.49994 2.40834ZM4.88328 4.49167C5.10429 4.49167 5.31625 4.57947 5.47253 4.73575C5.62881 4.89203 5.71661 5.10399 5.71661 5.325C5.71716 5.43444 5.69614 5.54291 5.65477 5.64423C5.6134 5.74554 5.55247 5.83771 5.47548 5.91548C5.31998 6.07254 5.10846 6.1614 4.88744 6.16251C4.77801 6.16305 4.66954 6.14204 4.56822 6.10067C4.46691 6.05929 4.37474 5.99837 4.29697 5.92137C4.13991 5.76587 4.05105 5.55435 4.04994 5.33334C4.04994 4.86501 4.42328 4.49167 4.88328 4.49167ZM3.44161 7.5C3.64572 7.50003 3.84272 7.57497 3.99525 7.7106C4.14778 7.84623 4.24523 8.03313 4.26911 8.23584L4.27494 8.34167C4.27471 8.55407 4.19338 8.75837 4.04757 8.91281C3.90176 9.06726 3.70248 9.1602 3.49045 9.17265C3.27841 9.1851 3.06963 9.11611 2.90675 8.97978C2.74387 8.84346 2.6392 8.65008 2.61411 8.43917L2.60828 8.33334C2.60828 8.11232 2.69607 7.90036 2.85235 7.74408C3.00863 7.5878 3.2206 7.5 3.44161 7.5ZM3.44161 10.8333C3.64572 10.8334 3.84272 10.9083 3.99525 11.0439C4.14778 11.1796 4.24523 11.3665 4.26911 11.5692L4.27494 11.675C4.27471 11.8874 4.19338 12.0917 4.04757 12.2461C3.90176 12.4006 3.70248 12.4935 3.49045 12.506C3.27841 12.5184 3.06963 12.4494 2.90675 12.3131C2.74387 12.1768 2.6392 11.9834 2.61411 11.7725L2.60828 11.6667C2.60828 11.4457 2.69607 11.2337 2.85235 11.0774C3.00863 10.9211 3.2206 10.8333 3.44161 10.8333ZM4.88328 13.8417C5.08739 13.8417 5.28439 13.9166 5.43692 14.0523C5.58945 14.1879 5.6869 14.3748 5.71078 14.5775L5.71661 14.6833C5.71637 14.8957 5.63504 15.1 5.48924 15.2545C5.34343 15.4089 5.14415 15.5019 4.93211 15.5143C4.72008 15.5268 4.51129 15.4578 4.34842 15.3215C4.18554 15.1851 4.08086 14.9918 4.05578 14.7808L4.04994 14.675C4.04994 14.454 4.13774 14.242 4.29402 14.0857C4.4503 13.9295 4.66226 13.8417 4.88328 13.8417ZM7.49994 15.925C7.70405 15.925 7.90106 16 8.05359 16.1356C8.20611 16.2712 8.30356 16.4581 8.32744 16.6608L8.33328 16.7667C8.33304 16.9791 8.25171 17.1834 8.1059 17.3378C7.96009 17.4923 7.76082 17.5852 7.54878 17.5976C7.33675 17.6101 7.12796 17.5411 6.96508 17.4048C6.8022 17.2685 6.69753 17.0751 6.67244 16.8642L6.66661 16.7583C6.66661 16.5373 6.75441 16.3254 6.91069 16.1691C7.06697 16.0128 7.27893 15.925 7.49994 15.925ZM10.7499 16.6667C10.9541 16.6667 11.1511 16.7416 11.3036 16.8773C11.4561 17.0129 11.5536 17.1998 11.5774 17.4025L11.5833 17.5083C11.583 17.7207 11.5017 17.925 11.3559 18.0795C11.2101 18.2339 11.0108 18.3269 10.7988 18.3393C10.5867 18.3518 10.378 18.2828 10.2151 18.1465C10.0522 18.0101 9.94753 17.8168 9.92244 17.6058L9.91661 17.5C9.91661 17.279 10.0044 17.067 10.1607 16.9107C10.317 16.7545 10.5289 16.6667 10.7499 16.6667Z" fill="white"/>
</g>
<defs>
<clipPath id="clip0_1303_1211">
<rect width="20" height="20" fill="white" transform="translate(0.75)"/>
</clipPath>
</defs>
</svg>
