<svg width="21" height="20" viewBox="0 0 21 20" fill="none" xmlns="http://www.w3.org/2000/svg">
<path d="M10.5 1.66667C11.3241 1.66667 12.1297 1.91104 12.8149 2.36888C13.5001 2.82672 14.0342 3.47747 14.3495 4.23882C14.6649 5.00018 14.7474 5.83796 14.5866 6.64621C14.4259 7.45447 14.029 8.1969 13.4463 8.77962C12.8636 9.36233 12.1212 9.75917 11.3129 9.91994C10.5047 10.0807 9.66689 9.9982 8.90553 9.68284C8.14417 9.36747 7.49342 8.83342 7.03558 8.14821C6.57774 7.46301 6.33337 6.65743 6.33337 5.83334L6.33754 5.6525C6.38414 4.5798 6.84305 3.56649 7.61856 2.82389C8.39407 2.08129 9.42632 1.66673 10.5 1.66667Z" fill="white"/>
<path d="M12.1666 11.6667C13.2717 11.6667 14.3315 12.1057 15.1129 12.8871C15.8943 13.6685 16.3333 14.7283 16.3333 15.8333V16.6667C16.3333 17.1087 16.1577 17.5326 15.8451 17.8452C15.5326 18.1577 15.1087 18.3333 14.6666 18.3333H6.33329C5.89127 18.3333 5.46734 18.1577 5.15478 17.8452C4.84222 17.5326 4.66663 17.1087 4.66663 16.6667V15.8333C4.66663 14.7283 5.10561 13.6685 5.88701 12.8871C6.66842 12.1057 7.72822 11.6667 8.83329 11.6667H12.1666Z" fill="white"/>
</svg>
