<svg width="20" height="20" viewBox="0 0 20 20" fill="none" xmlns="http://www.w3.org/2000/svg">
<g clip-path="url(#clip0_1303_1228)">
<path d="M14.1666 2.78334C15.4235 3.50905 16.4691 4.55044 17.1998 5.80442C17.9305 7.0584 18.3211 8.48148 18.3328 9.93279C18.3445 11.3841 17.977 12.8133 17.2666 14.0789C16.5563 15.3445 15.5277 16.4027 14.2827 17.1486C13.0377 17.8945 11.6194 18.3024 10.1684 18.3317C8.71732 18.3611 7.28375 18.011 6.00959 17.316C4.73543 16.6211 3.66485 15.6054 2.90385 14.3696C2.14284 13.1338 1.7178 11.7206 1.67079 10.27L1.66663 10L1.67079 9.73001C1.71746 8.29083 2.13625 6.88831 2.88633 5.65917C3.6364 4.43003 4.69217 3.41622 5.9507 2.71658C7.20924 2.01693 8.62758 1.65534 10.0675 1.66704C11.5073 1.67874 12.9196 2.06334 14.1666 2.78334ZM6.66663 4.22667C5.39577 4.96049 4.40254 6.09314 3.84099 7.44895C3.27943 8.80477 3.18093 10.308 3.56075 11.7255C3.94058 13.143 4.7775 14.3956 5.94174 15.2889C7.10597 16.1823 8.53245 16.6666 9.99996 16.6667L10.1666 16.6625C11.0208 16.6198 11.8258 16.2504 12.4152 15.6307C13.0046 15.011 13.3333 14.1885 13.3333 13.3333C13.3333 12.4781 13.0046 11.6556 12.4152 11.036C11.8258 10.4163 11.0208 10.0469 10.1666 10.0042L9.99996 10C9.13033 10 8.29513 9.66018 7.67256 9.053C7.05 8.44583 6.68936 7.61939 6.66762 6.75003C6.64587 5.88068 6.96473 5.03724 7.55616 4.39969C8.14759 3.76215 8.96475 3.38097 9.83329 3.33751L9.99996 3.33334C8.82967 3.3332 7.68 3.64131 6.66663 4.22667ZM9.99996 5.41667C9.66844 5.41667 9.3505 5.54837 9.11608 5.78279C8.88166 6.01721 8.74996 6.33515 8.74996 6.66667C8.74996 6.99819 8.88166 7.31614 9.11608 7.55056C9.3505 7.78498 9.66844 7.91667 9.99996 7.91667C10.3315 7.91667 10.6494 7.78498 10.8838 7.55056C11.1183 7.31614 11.25 6.99819 11.25 6.66667C11.25 6.33515 11.1183 6.01721 10.8838 5.78279C10.6494 5.54837 10.3315 5.41667 9.99996 5.41667Z" fill="white"/>
<path d="M10 12.0833C10.3315 12.0833 10.6495 12.215 10.8839 12.4494C11.1183 12.6839 11.25 13.0018 11.25 13.3333C11.25 13.6648 11.1183 13.9828 10.8839 14.2172C10.6495 14.4516 10.3315 14.5833 10 14.5833C9.66848 14.5833 9.35054 14.4516 9.11612 14.2172C8.8817 13.9828 8.75 13.6648 8.75 13.3333C8.75 13.0018 8.8817 12.6839 9.11612 12.4494C9.35054 12.215 9.66848 12.0833 10 12.0833Z" fill="white"/>
</g>
<defs>
<clipPath id="clip0_1303_1228">
<rect width="20" height="20" fill="white"/>
</clipPath>
</defs>
</svg>
